<?xml version="1.0" encoding="UTF-8" standalone="no"?>
<!-- Created with Inkscape (http://www.inkscape.org/) -->

<svg
   height="240"
   width="780"
   sodipodi:docname="newAC.svg"
   version="1.1"
   id="ac-unit-svg"
   viewBox="0 0 780 240"
   inkscape:version="1.4.2 (ebf0e940, 2025-05-08)"
   xml:space="preserve"
   xmlns:inkscape="http://www.inkscape.org/namespaces/inkscape"
   xmlns:sodipodi="http://sodipodi.sourceforge.net/DTD/sodipodi-0.dtd"
   xmlns:xlink="http://www.w3.org/1999/xlink"
   xmlns="http://www.w3.org/2000/svg"
   xmlns:svg="http://www.w3.org/2000/svg"
   xmlns:rdf="http://www.w3.org/1999/02/22-rdf-syntax-ns#"
   xmlns:cc="http://creativecommons.org/ns#"
   xmlns:dc="http://purl.org/dc/elements/1.1/"><sodipodi:namedview
     id="base"
     pagecolor="#ffffff"
     bordercolor="#000000"
     borderopacity="0.3"
     inkscape:pageopacity="0.0"
     inkscape:pageshadow="2"
     inkscape:zoom="1.32"
     inkscape:cx="378.0303"
     inkscape:cy="197.72727"
     inkscape:document-units="px"
     inkscape:current-layer="layer1"
     showgrid="false"
     showguides="true"
     inkscape:window-width="1680"
     inkscape:window-height="1027"
     inkscape:window-x="50"
     inkscape:window-y="25"
     inkscape:window-maximized="0"
     showborder="true"
     inkscape:showpageshadow="false"
     inkscape:pagecheckerboard="0"
     inkscape:deskcolor="#d1d1d1"
     inkscape:clip-to-page="false"><sodipodi:guide
       id="guide_baseline"
       inkscape:label="baseline"
       position="0,-407"
       orientation="0,1"
       inkscape:locked="false" /><sodipodi:guide
       id="guide_ascender"
       inkscape:label="ascender"
       position="823.76238,300.39604"
       orientation="0,1"
       inkscape:locked="false" /><sodipodi:guide
       id="guide_caps"
       inkscape:label="caps"
       position="756.06061,-128.18182"
       orientation="0,1"
       inkscape:locked="false" /><sodipodi:guide
       id="guide_xheight"
       inkscape:label="xheight"
       position="264.39394,121.06061"
       orientation="0,1"
       inkscape:locked="false" /><sodipodi:guide
       id="guide_descender"
       inkscape:label="descender"
       position="0,-632"
       orientation="0,1"
       inkscape:locked="false" /><sodipodi:guide
       position="389.39394,415.75758"
       orientation="1,0"
       id="guide30"
       inkscape:locked="false" /></sodipodi:namedview><defs
     id="defs4"><inkscape:path-effect
       effect="bspline"
       id="path-effect47"
       is_visible="true"
       lpeversion="1.3"
       weight="33.333333"
       steps="2"
       helper_size="0"
       apply_no_weight="true"
       apply_with_weight="true"
       only_selected="false"
       uniform="false" /><inkscape:path-effect
       effect="bspline"
       id="path-effect46"
       is_visible="true"
       lpeversion="1.3"
       weight="33.333333"
       steps="2"
       helper_size="0"
       apply_no_weight="true"
       apply_with_weight="true"
       only_selected="false"
       uniform="false" /><inkscape:path-effect
       effect="bspline"
       id="path-effect45"
       is_visible="true"
       lpeversion="1.3"
       weight="33.333333"
       steps="2"
       helper_size="0"
       apply_no_weight="true"
       apply_with_weight="true"
       only_selected="false"
       uniform="false" /><inkscape:path-effect
       effect="bspline"
       id="path-effect44"
       is_visible="true"
       lpeversion="1.3"
       weight="33.333333"
       steps="2"
       helper_size="0"
       apply_no_weight="true"
       apply_with_weight="true"
       only_selected="false"
       uniform="false" /><inkscape:path-effect
       effect="bspline"
       id="path-effect43"
       is_visible="true"
       lpeversion="1.3"
       weight="33.333333"
       steps="2"
       helper_size="0"
       apply_no_weight="true"
       apply_with_weight="true"
       only_selected="false"
       uniform="false" /><inkscape:path-effect
       effect="bspline"
       id="path-effect42"
       is_visible="true"
       lpeversion="1.3"
       weight="33.333333"
       steps="2"
       helper_size="0"
       apply_no_weight="true"
       apply_with_weight="true"
       only_selected="false"
       uniform="false" /><linearGradient
       id="linearGradient32"><stop
         style="stop-color:#1eb4e6;stop-opacity:1;"
         offset="0"
         id="stop34" /><stop
         style="stop-color:#31fff6;stop-opacity:0.45490196;"
         offset="0.50349653"
         id="stop36" /><stop
         style="stop-color:#1eb4f6;stop-opacity:0.45490196;"
         offset="1"
         id="stop37" /></linearGradient><linearGradient
       id="swatch5"
       inkscape:swatch="solid"><stop
         style="stop-color:#000000;stop-opacity:1;"
         offset="0"
         id="stop5" /></linearGradient><linearGradient
       inkscape:collect="always"
       xlink:href="#linearGradient32"
       id="linearGradient33"
       x1="436.02277"
       y1="114.34781"
       x2="469.19464"
       y2="114.34781"
       gradientUnits="userSpaceOnUse"
       gradientTransform="matrix(0.80824808,0,0,0.91814445,44.269635,-51.173535)"
       spreadMethod="reflect" /><linearGradient
       inkscape:collect="always"
       xlink:href="#linearGradient32"
       id="linearGradient37"
       gradientUnits="userSpaceOnUse"
       gradientTransform="matrix(0.80824808,0,0,0.91814453,-18.131952,77.22985)"
       x1="436.02277"
       y1="114.34781"
       x2="469.19464"
       y2="114.34781"
       spreadMethod="reflect" /><linearGradient
       inkscape:collect="always"
       xlink:href="#linearGradient32"
       id="linearGradient38"
       gradientUnits="userSpaceOnUse"
       gradientTransform="matrix(0.40648869,0,0,0.85596226,-118.07207,-583.50657)"
       x1="436.02277"
       y1="114.34781"
       x2="469.19464"
       y2="114.34781"
       spreadMethod="reflect" /><linearGradient
       inkscape:collect="always"
       xlink:href="#linearGradient32"
       id="linearGradient39"
       gradientUnits="userSpaceOnUse"
       gradientTransform="matrix(0.40648873,0,0,0.85596226,-13.855522,-383.16221)"
       x1="436.02277"
       y1="114.34781"
       x2="469.19464"
       y2="114.34781"
       spreadMethod="reflect" /></defs><metadata
     id="metadata7"><rdf:RDF><cc:Work
         rdf:about=""><dc:format>image/svg+xml</dc:format><dc:type
           rdf:resource="http://purl.org/dc/dcmitype/StillImage" /></cc:Work></rdf:RDF></metadata><g
     id="layer1"
     inkscape:groupmode="layer"
     inkscape:label="Layer 1"><path
       d="M 102.72126,4.903284 V 94.00581 H 651.8242 V 4.903284 Z m 7.95646,6.502446 H 643.86774 V 87.503358 H 110.67772 Z"
       style="fill:#283f7b;fill-opacity:0.196262;fill-rule:nonzero;stroke:#3caadc;stroke-width:0.897478;stroke-linejoin:round;stroke-opacity:0.9"
       id="path5" /><path
       d="m 518.51203,5.520955 h -7.95644 v 27.20874 H 367.22411 v 6.502447 h 151.28792 z"
       style="fill:#283f7b;fill-opacity:0.196262;stroke:#3caadc;stroke-width:0.897478;stroke-linejoin:round;stroke-opacity:0.9"
       id="path40" /><path
       d="m 243.37742,231.31263 h 7.95645 v -27.20875 h 143.33147 v -6.50244 H 243.37742 Z"
       style="fill:#d2cd53;fill-opacity:0.196078;stroke:#e0bb2d;stroke-width:0.897478;stroke-linejoin:round;stroke-opacity:0.9"
       id="path40-4" /><path
       d="m 102.72147,142.44874 v 89.10253 h 549.10292 v -89.10253 z m 7.95646,6.50244 h 533.19002 v 76.09764 H 110.67793 Z"
       style="fill:#d2cd53;fill-opacity:0.196262;fill-rule:nonzero;stroke:#e0bb2d;stroke-width:0.897478;stroke-linejoin:round;stroke-opacity:0.9"
       id="path5-6" /><path
       d="m 638.6138,88.796069 v 59.317861 h 15.31812 V 88.796069 Z m 1.94365,1.86828 h 11.43082 v 25.927981 h -11.43082 z m 0,29.653321 h 11.43082 v 25.92798 h -11.43082 z"
       style="fill:#ffffff;stroke:#ffffff;stroke-width:0.682138;stroke-linejoin:round"
       id="path8" /><path
       d="m 640.63582,90.663285 v 25.928725 h 11.35671 V 90.663285 Z"
       style="fill:#44d4f1;fill-opacity:0.9;stroke:#44d4f1;stroke-width:0.54865;stroke-linejoin:round;stroke-opacity:0.9"
       id="path9" /><path
       d="m 640.63582,120.31746 v 25.92872 h 11.35671 v -25.92872 z"
       style="fill:#44d4f1;fill-opacity:0.9;stroke:#44d4f1;stroke-width:0.54865;stroke-linejoin:round;stroke-opacity:0.9"
       id="path10" /><path
       d="M 244.73818,41.698804 H 368.78311 V 29.418709 H 244.73818 Z m 3.90693,-1.558161 v -9.163774 h 54.22033 v 9.163774 z m 62.01074,0 v -9.163774 h 54.22033 v 9.163774 z"
       style="fill:#ffffff;stroke:#ffffff;stroke-width:0.883217;stroke-linejoin:round"
       id="path8-0" /><path
       d="m 248.64511,40.140643 h 54.22033 v -9.163774 h -54.22033 z"
       style="fill:#44d4f1;fill-opacity:0.9;stroke:#44d4f1;stroke-width:0.712684;stroke-linejoin:round;stroke-opacity:0.9"
       id="path9-6" /><path
       d="m 310.65585,40.140643 h 54.22033 v -9.163774 h -54.22033 z"
       style="fill:#44d4f1;fill-opacity:0.9;stroke:#44d4f1;stroke-width:0.712684;stroke-linejoin:round;stroke-opacity:0.9"
       id="path10-5" /><path
       d="M 390.76348,207.02638 H 514.8084 v -12.2801 H 390.76348 Z m 3.90692,-1.55816 v -9.16378 h 54.22034 v 9.16378 z m 62.01074,0 v -9.16378 h 54.22034 v 9.16378 z"
       style="fill:#ffffff;stroke:#ffffff;stroke-width:0.883217;stroke-linejoin:round"
       id="path8-0-0" /><path
       d="m 394.6704,205.46822 h 54.22034 v -9.16378 H 394.6704 Z"
       style="fill:#44d4f1;fill-opacity:0.9;stroke:#44d4f1;stroke-width:0.712684;stroke-linejoin:round;stroke-opacity:0.9"
       id="path9-6-1" /><path
       d="m 456.68114,205.46822 h 54.22034 v -9.16378 h -54.22034 z"
       style="fill:#44d4f1;fill-opacity:0.9;stroke:#44d4f1;stroke-width:0.712684;stroke-linejoin:round;stroke-opacity:0.9"
       id="path10-5-9" /><path
       d="M 99.612702,88.794524 V 148.11457 H 114.8321 V 88.794524 Z m 1.931118,1.868349 h 11.35716 v 25.928937 h -11.35716 z m 0,29.654417 h 11.35716 v 25.92894 h -11.35716 z"
       style="fill:#ffffff;stroke:#ffffff;stroke-width:0.679949;stroke-linejoin:round"
       id="path8-8" /><path
       d="m 101.54382,90.662873 v 25.928937 h 11.35716 V 90.662873 Z"
       style="fill:#44d4f1;fill-opacity:0.9;stroke:#44d4f1;stroke-width:0.548664;stroke-linejoin:round;stroke-opacity:0.9"
       id="path9-5" /><path
       d="m 101.54382,120.31729 v 25.92894 h 11.35716 v -25.92894 z"
       style="fill:#44d4f1;fill-opacity:0.9;stroke:#44d4f1;stroke-width:0.548664;stroke-linejoin:round;stroke-opacity:0.9"
       id="path10-6" /><path
       d="m 319.6903,100.68263 a 18.002215,18.002215 0 0 0 -18.00195,18.00196 18.002215,18.002215 0 0 0 18.00195,18.00195 18.002215,18.002215 0 0 0 18.00196,-18.00195 18.002215,18.002215 0 0 0 -18.00196,-18.00196 z m 0,15.00124 a 3.0003689,3.0003692 0 0 1 3.00072,3.00072 3.0003689,3.0003692 0 0 1 -3.00072,3.00071 3.0003689,3.0003692 0 0 1 -3.00071,-3.00071 3.0003689,3.0003692 0 0 1 3.00071,-3.00072 z"
       style="fill:none;fill-opacity:0.9;stroke:#000000;stroke-width:0.359325;stroke-linejoin:round;stroke-opacity:1"
       id="path19" /><path
      style="fill:#44d4f1;fill-opacity:0.9;fill-rule:nonzero;stroke:#44d4f1;stroke-width:0.468801;stroke-linejoin:round;stroke-dasharray:none;stroke-dashoffset:0;stroke-opacity:0.9;display:none"
       id="path28"
       d="m 321.43643,121.17327 c 0.32694,0.5645 0.66605,1.12087 0.97112,1.70056 0.15238,0.1387 0.20999,0.38696 0.3504,0.53444 0.2138,0.22459 -0.0639,-0.13727 0.10324,0.0892 0.0289,0.26024 0.19591,0.44607 0.26081,0.69296 0.0435,0.32221 0.18436,0.61157 0.24867,0.92966 0.0408,0.16894 0.0641,0.33974 0.0697,0.51488 -0.0103,0.38154 0.0582,0.74612 0.14065,1.11394 0.0323,0.23032 0.0843,0.45852 0.0996,0.69119 0.13539,-0.37424 -0.14595,0.48126 -0.15375,0.51241 0.004,0.0402 -0.14545,0.57868 -0.0483,0.41211 -0.096,0.16075 -0.17381,0.3466 -0.23019,0.53306 -0.0227,0.16091 -0.0366,0.23433 -0.12512,0.36555 0,0 5.78108,3.77439 5.78108,3.77439 v 0 c 0.0997,-0.18381 0.24223,-0.37953 0.24023,-0.59884 0.0172,-0.14026 0.0799,-0.2723 0.16002,-0.39019 0.0965,-0.20394 0.10349,-0.3398 0.10925,-0.56653 0.0302,-0.25616 0.14686,-0.47054 0.25317,-0.69602 -0.014,-0.27253 -0.0302,-0.5401 -0.0943,-0.80586 -0.0512,-0.33067 -0.1855,-0.63599 -0.16364,-0.9673 6e-4,-0.21739 0.0154,-0.43945 -0.0224,-0.65348 -0.0575,-0.30929 -0.0827,-0.66135 -0.25242,-0.92046 -0.031,-0.26202 -0.0231,-0.5773 -0.21823,-0.76024 -0.01,-0.0971 -2.5e-4,-0.1985 -0.0274,-0.29133 -0.0653,-0.22315 -0.30487,-0.38135 -0.38088,-0.59961 -0.41971,-0.44719 -0.65622,-1.07979 -0.98369,-1.60703 z" /><path
      style="fill:#44d4f1;fill-opacity:0.9;fill-rule:nonzero;stroke:#44d4f1;stroke-width:0.468801;stroke-linejoin:round;stroke-dasharray:none;stroke-dashoffset:0;stroke-opacity:0.9;display:none"
       id="path28-67"
       d="m 322.55853,117.47871 c 0.56448,-0.32694 1.12085,-0.66605 1.70055,-0.97112 0.1387,-0.15238 0.38696,-0.20999 0.53443,-0.3504 0.22459,-0.2138 -0.13726,0.0639 0.0892,-0.10324 0.26025,-0.0289 0.44608,-0.19591 0.69296,-0.26081 0.32221,-0.0435 0.61158,-0.18436 0.92966,-0.24867 0.16895,-0.0408 0.33974,-0.0641 0.51489,-0.0697 0.38154,0.0103 0.74612,-0.0583 1.11393,-0.14065 0.23033,-0.0323 0.45852,-0.0843 0.6912,-0.0996 -0.37424,-0.13539 0.48126,0.14594 0.51241,0.15375 0.0402,-0.004 0.57868,0.14544 0.41211,0.0483 0.16075,0.096 0.3466,0.17382 0.53306,0.2302 0.16091,0.0227 0.23433,0.0366 0.36555,0.12512 0,0 3.77439,-5.78108 3.77439,-5.78108 v 0 c -0.18381,-0.0997 -0.37954,-0.24223 -0.59883,-0.24023 -0.14027,-0.0172 -0.27231,-0.0799 -0.3902,-0.16002 -0.20394,-0.0965 -0.33979,-0.10349 -0.56654,-0.10925 -0.25615,-0.0302 -0.47053,-0.14686 -0.69601,-0.25317 -0.27253,0.0139 -0.54011,0.0301 -0.80587,0.0943 -0.33066,0.0512 -0.63598,0.1855 -0.96728,0.16364 -0.2174,-6.1e-4 -0.43946,-0.0154 -0.65349,0.0224 -0.30929,0.0575 -0.66136,0.0827 -0.92046,0.25242 -0.26202,0.031 -0.57731,0.0232 -0.76024,0.21824 -0.0971,0.01 -0.1985,2.5e-4 -0.29134,0.0274 -0.22314,0.0653 -0.38134,0.30487 -0.59959,0.38088 -0.44721,0.41971 -1.0798,0.65622 -1.60705,0.98368 z" /><path
      style="fill:#44d4f1;fill-opacity:0.9;fill-rule:nonzero;stroke:#44d4f1;stroke-width:0.468801;stroke-linejoin:round;stroke-dasharray:none;stroke-dashoffset:0;stroke-opacity:0.9;display:none"
       id="path28-67-4"
       d="m 318.05795,121.28406 c -0.56449,0.32694 -1.12086,0.66605 -1.70055,0.97112 -0.13871,0.15238 -0.38697,0.20999 -0.53444,0.3504 -0.22459,0.2138 0.13726,-0.0639 -0.0892,0.10324 -0.26024,0.0289 -0.44607,0.19591 -0.69295,0.26081 -0.32221,0.0435 -0.61157,0.18436 -0.92966,0.24867 -0.16895,0.0408 -0.33974,0.0641 -0.51488,0.0697 -0.38155,-0.0103 -0.74613,0.0582 -1.11395,0.14065 -0.23032,0.0323 -0.45851,0.0843 -0.69119,0.0996 0.37424,0.13539 -0.48126,-0.14595 -0.5124,-0.15375 -0.0402,0.004 -0.57869,-0.14545 -0.41212,-0.0483 -0.16074,-0.096 -0.3466,-0.17381 -0.53305,-0.23019 -0.16091,-0.0227 -0.23433,-0.0365 -0.36556,-0.12512 0,0 -3.77439,5.78108 -3.77439,5.78108 v 0 c 0.18381,0.0997 0.37954,0.24223 0.59884,0.24023 0.14026,0.0172 0.2723,0.0799 0.3902,0.16002 0.20393,0.0965 0.33979,0.10348 0.56653,0.10925 0.25616,0.0302 0.47053,0.14686 0.69601,0.25317 0.27253,-0.0139 0.5401,-0.0302 0.80587,-0.0943 0.33067,-0.0512 0.63599,-0.1855 0.96729,-0.16364 0.21739,6e-4 0.43946,0.0154 0.65348,-0.0224 0.30929,-0.0575 0.66136,-0.0827 0.92046,-0.25242 0.26202,-0.031 0.57731,-0.0231 0.76024,-0.21823 0.0971,-0.01 0.19851,-2.5e-4 0.29134,-0.0274 0.22314,-0.0653 0.38135,-0.30487 0.5996,-0.38088 0.4472,-0.41971 1.0798,-0.65622 1.60704,-0.98369 z" /><path
      style="fill:#44d4f1;fill-opacity:0.9;fill-rule:nonzero;stroke:#44d4f1;stroke-width:0.468801;stroke-linejoin:round;stroke-dasharray:none;stroke-dashoffset:0;stroke-opacity:0.9;display:none"
       id="path28-6"
       d="m 317.71323,116.3499 c -0.32695,-0.56448 -0.66606,-1.12086 -0.97112,-1.70055 -0.15239,-0.1387 -0.21,-0.38696 -0.3504,-0.53444 -0.21381,-0.22458 0.0639,0.13727 -0.10324,-0.0892 -0.0289,-0.26025 -0.19591,-0.44608 -0.26082,-0.69297 -0.0435,-0.3222 -0.18436,-0.61157 -0.24867,-0.92965 -0.0408,-0.16895 -0.0641,-0.33974 -0.0697,-0.51489 0.0103,-0.38154 -0.0582,-0.74612 -0.14065,-1.11394 -0.0323,-0.23032 -0.0843,-0.45851 -0.0996,-0.69119 -0.13539,0.37424 0.14595,-0.48126 0.15376,-0.51241 -0.004,-0.0402 0.14544,-0.57868 0.0483,-0.41211 0.096,-0.16075 0.17381,-0.3466 0.2302,-0.53306 0.0227,-0.16091 0.0365,-0.23433 0.12512,-0.36555 0,0 -5.78109,-3.77439 -5.78109,-3.77439 v 0 c -0.0997,0.18381 -0.24223,0.37953 -0.24022,0.59883 -0.0172,0.14027 -0.0799,0.27231 -0.16002,0.3902 -0.0965,0.20394 -0.10349,0.33979 -0.10926,0.56654 -0.0301,0.25615 -0.14686,0.47053 -0.25317,0.69601 0.014,0.27253 0.0302,0.5401 0.0943,0.80587 0.0511,0.33066 0.1855,0.63598 0.16365,0.96729 -6.1e-4,0.21739 -0.0154,0.43945 0.0224,0.65348 0.0575,0.30929 0.0827,0.66135 0.25242,0.92046 0.031,0.26202 0.0231,0.5773 0.21824,0.76024 0.01,0.0971 2.5e-4,0.1985 0.0274,0.29134 0.0653,0.22314 0.30487,0.38134 0.38087,0.5996 0.41971,0.44719 0.65622,1.07979 0.98369,1.60704 z" /><path
       d="m 292.52953,98.71135 v 39.48639 h 54.03189 V 98.71135 Z m 27.01595,1.74125 a 18.002215,18.002215 0 0 1 18.00195,18.00195 18.002215,18.002215 0 0 1 -18.00195,18.00195 18.002215,18.002215 0 0 1 -18.00196,-18.00195 18.002215,18.002215 0 0 1 18.00196,-18.00195 z"
       style="fill:#ffffff;fill-opacity:1;stroke:#000000;stroke-width:0.513606;stroke-linejoin:round"
       id="path29" /><path
       d="m 459.6903,100.68263 a 18.002215,18.002215 0 0 0 -18.00195,18.00196 18.002215,18.002215 0 0 0 18.00195,18.00195 18.002215,18.002215 0 0 0 18.00196,-18.00195 18.002215,18.002215 0 0 0 -18.00196,-18.00196 z m 0,15.00124 a 3.0003689,3.0003692 0 0 1 3.00072,3.00072 3.0003689,3.0003692 0 0 1 -3.00072,3.00071 3.0003689,3.0003692 0 0 1 -3.00071,-3.00071 3.0003689,3.0003692 0 0 1 3.00071,-3.00072 z"
       style="fill:none;fill-opacity:0.9;stroke:#000000;stroke-width:0.359325;stroke-linejoin:round;stroke-opacity:1"
       id="path19-4" /><path
      style="fill:#44d4f1;fill-opacity:0.9;fill-rule:nonzero;stroke:#44d4f1;stroke-width:0.468801;stroke-linejoin:round;stroke-dasharray:none;stroke-dashoffset:0;stroke-opacity:0.9;display:none"
       id="path28-9"
       d="m 461.43643,121.17327 c 0.32694,0.5645 0.66605,1.12087 0.97112,1.70056 0.15238,0.1387 0.20999,0.38696 0.3504,0.53444 0.2138,0.22459 -0.0639,-0.13727 0.10324,0.0892 0.0289,0.26024 0.19591,0.44607 0.26081,0.69296 0.0435,0.32221 0.18436,0.61157 0.24867,0.92966 0.0408,0.16894 0.0641,0.33974 0.0697,0.51488 -0.0103,0.38154 0.0582,0.74612 0.14065,1.11394 0.0323,0.23032 0.0843,0.45852 0.0996,0.69119 0.13539,-0.37424 -0.14595,0.48126 -0.15375,0.51241 0.004,0.0402 -0.14545,0.57868 -0.0483,0.41211 -0.096,0.16075 -0.17381,0.3466 -0.23019,0.53306 -0.0227,0.16091 -0.0366,0.23433 -0.12512,0.36555 0,0 5.78108,3.77439 5.78108,3.77439 v 0 c 0.0997,-0.18381 0.24223,-0.37953 0.24023,-0.59884 0.0172,-0.14026 0.0799,-0.2723 0.16002,-0.39019 0.0965,-0.20394 0.10349,-0.3398 0.10925,-0.56653 0.0302,-0.25616 0.14686,-0.47054 0.25317,-0.69602 -0.014,-0.27253 -0.0302,-0.5401 -0.0943,-0.80586 -0.0512,-0.33067 -0.1855,-0.63599 -0.16364,-0.9673 6e-4,-0.21739 0.0154,-0.43945 -0.0224,-0.65348 -0.0575,-0.30929 -0.0827,-0.66135 -0.25242,-0.92046 -0.031,-0.26202 -0.0231,-0.5773 -0.21823,-0.76024 -0.01,-0.0971 -2.5e-4,-0.1985 -0.0274,-0.29133 -0.0653,-0.22315 -0.30487,-0.38135 -0.38088,-0.59961 -0.41971,-0.44719 -0.65622,-1.07979 -0.98369,-1.60703 z" /><path
      style="fill:#44d4f1;fill-opacity:0.9;fill-rule:nonzero;stroke:#44d4f1;stroke-width:0.468801;stroke-linejoin:round;stroke-dasharray:none;stroke-dashoffset:0;stroke-opacity:0.9;display:none"
       id="path28-67-2"
       d="m 462.55853,117.47871 c 0.56448,-0.32694 1.12085,-0.66605 1.70055,-0.97112 0.1387,-0.15238 0.38696,-0.20999 0.53443,-0.3504 0.22459,-0.2138 -0.13726,0.0639 0.0892,-0.10324 0.26025,-0.0289 0.44608,-0.19591 0.69296,-0.26081 0.32221,-0.0435 0.61158,-0.18436 0.92966,-0.24867 0.16895,-0.0408 0.33974,-0.0641 0.51489,-0.0697 0.38154,0.0103 0.74612,-0.0583 1.11393,-0.14065 0.23033,-0.0323 0.45852,-0.0843 0.6912,-0.0996 -0.37424,-0.13539 0.48126,0.14594 0.51241,0.15375 0.0402,-0.004 0.57868,0.14544 0.41211,0.0483 0.16075,0.096 0.3466,0.17382 0.53306,0.2302 0.16091,0.0227 0.23433,0.0366 0.36555,0.12512 0,0 3.77439,-5.78108 3.77439,-5.78108 v 0 c -0.18381,-0.0997 -0.37954,-0.24223 -0.59883,-0.24023 -0.14027,-0.0172 -0.27231,-0.0799 -0.3902,-0.16002 -0.20394,-0.0965 -0.33979,-0.10349 -0.56654,-0.10925 -0.25615,-0.0302 -0.47053,-0.14686 -0.69601,-0.25317 -0.27253,0.0139 -0.54011,0.0301 -0.80587,0.0943 -0.33066,0.0512 -0.63598,0.1855 -0.96728,0.16364 -0.2174,-6.1e-4 -0.43946,-0.0154 -0.65349,0.0224 -0.30929,0.0575 -0.66136,0.0827 -0.92046,0.25242 -0.26202,0.031 -0.57731,0.0232 -0.76024,0.21824 -0.0971,0.01 -0.1985,2.5e-4 -0.29134,0.0274 -0.22314,0.0653 -0.38134,0.30487 -0.59959,0.38088 -0.44721,0.41971 -1.0798,0.65622 -1.60705,0.98368 z" /><path
      style="fill:#44d4f1;fill-opacity:0.9;fill-rule:nonzero;stroke:#44d4f1;stroke-width:0.468801;stroke-linejoin:round;stroke-dasharray:none;stroke-dashoffset:0;stroke-opacity:0.9;display:none"
       id="path28-67-4-9"
       d="m 458.05795,121.28406 c -0.56449,0.32694 -1.12086,0.66605 -1.70055,0.97112 -0.13871,0.15238 -0.38697,0.20999 -0.53444,0.3504 -0.22459,0.2138 0.13726,-0.0639 -0.0892,0.10324 -0.26024,0.0289 -0.44607,0.19591 -0.69295,0.26081 -0.32221,0.0435 -0.61157,0.18436 -0.92966,0.24867 -0.16895,0.0408 -0.33974,0.0641 -0.51488,0.0697 -0.38155,-0.0103 -0.74613,0.0582 -1.11395,0.14065 -0.23032,0.0323 -0.45851,0.0843 -0.69119,0.0996 0.37424,0.13539 -0.48126,-0.14595 -0.5124,-0.15375 -0.0402,0.004 -0.57869,-0.14545 -0.41212,-0.0483 -0.16074,-0.096 -0.3466,-0.17381 -0.53305,-0.23019 -0.16091,-0.0227 -0.23433,-0.0365 -0.36556,-0.12512 0,0 -3.77439,5.78108 -3.77439,5.78108 v 0 c 0.18381,0.0997 0.37954,0.24223 0.59884,0.24023 0.14026,0.0172 0.2723,0.0799 0.3902,0.16002 0.20393,0.0965 0.33979,0.10348 0.56653,0.10925 0.25616,0.0302 0.47053,0.14686 0.69601,0.25317 0.27253,-0.0139 0.5401,-0.0302 0.80587,-0.0943 0.33067,-0.0512 0.63599,-0.1855 0.96729,-0.16364 0.21739,6e-4 0.43946,0.0154 0.65348,-0.0224 0.30929,-0.0575 0.66136,-0.0827 0.92046,-0.25242 0.26202,-0.031 0.57731,-0.0231 0.76024,-0.21823 0.0971,-0.01 0.19851,-2.5e-4 0.29134,-0.0274 0.22314,-0.0653 0.38135,-0.30487 0.5996,-0.38088 0.4472,-0.41971 1.0798,-0.65622 1.60704,-0.98369 z" /><path
      style="fill:#44d4f1;fill-opacity:0.9;fill-rule:nonzero;stroke:#44d4f1;stroke-width:0.468801;stroke-linejoin:round;stroke-dasharray:none;stroke-dashoffset:0;stroke-opacity:0.9;display:none"
       id="path28-6-1"
       d="m 457.71323,116.3499 c -0.32695,-0.56448 -0.66606,-1.12086 -0.97112,-1.70055 -0.15239,-0.1387 -0.21,-0.38696 -0.3504,-0.53444 -0.21381,-0.22458 0.0639,0.13727 -0.10324,-0.0892 -0.0289,-0.26025 -0.19591,-0.44608 -0.26082,-0.69297 -0.0435,-0.3222 -0.18436,-0.61157 -0.24867,-0.92965 -0.0408,-0.16895 -0.0641,-0.33974 -0.0697,-0.51489 0.0103,-0.38154 -0.0582,-0.74612 -0.14065,-1.11394 -0.0323,-0.23032 -0.0843,-0.45851 -0.0996,-0.69119 -0.13539,0.37424 0.14595,-0.48126 0.15376,-0.51241 -0.004,-0.0402 0.14544,-0.57868 0.0483,-0.41211 0.096,-0.16075 0.17381,-0.3466 0.2302,-0.53306 0.0227,-0.16091 0.0365,-0.23433 0.12512,-0.36555 0,0 -5.78109,-3.77439 -5.78109,-3.77439 v 0 c -0.0997,0.18381 -0.24223,0.37953 -0.24022,0.59883 -0.0172,0.14027 -0.0799,0.27231 -0.16002,0.3902 -0.0965,0.20394 -0.10349,0.33979 -0.10926,0.56654 -0.0301,0.25615 -0.14686,0.47053 -0.25317,0.69601 0.014,0.27253 0.0302,0.5401 0.0943,0.80587 0.0511,0.33066 0.1855,0.63598 0.16365,0.96729 -6.1e-4,0.21739 -0.0154,0.43945 0.0224,0.65348 0.0575,0.30929 0.0827,0.66135 0.25242,0.92046 0.031,0.26202 0.0231,0.5773 0.21824,0.76024 0.01,0.0971 2.5e-4,0.1985 0.0274,0.29134 0.0653,0.22314 0.30487,0.38134 0.38087,0.5996 0.41971,0.44719 0.65622,1.07979 0.98369,1.60704 z" /><path
       d="m 432.52953,98.71135 v 39.48639 h 54.03189 V 98.71135 Z m 27.01595,1.74125 a 18.002215,18.002215 0 0 1 18.00195,18.00195 18.002215,18.002215 0 0 1 -18.00195,18.00195 18.002215,18.002215 0 0 1 -18.00196,-18.00195 18.002215,18.002215 0 0 1 18.00196,-18.00195 z"
       style="fill:#ffffff;fill-opacity:1;stroke:#000000;stroke-width:0.513606;stroke-linejoin:round"
       id="path29-0" /><circle
       style="fill:#ffffff;fill-opacity:1;fill-rule:nonzero;stroke:#000000;stroke-width:0.385975;stroke-linejoin:round;stroke-dasharray:none;stroke-dashoffset:0;stroke-opacity:1"
       id="path30"
       cx="459.69672"
       cy="118.81401"
      r="2.8373253" />
      <g id="fan-blades-2" data-running-status="off">
        <animateTransform id="fan-animate-2" attributeName="transform" type="rotate" from="0 459.69672 118.81401" to="-360 459.69672 118.81401" dur="2s" repeatCount="indefinite" begin="indefinite" />
        <path style="fill:#44d4f1;fill-opacity:0.9;stroke:#44d4f1;stroke-width:0.468801;stroke-linejoin:round;stroke-opacity:0.9" d="m 461.43643,121.17327 c 0.32694,0.5645 0.66605,1.12087 0.97112,1.70056 0.15238,0.1387 0.20999,0.38696 0.3504,0.53444 0.2138,0.22459 -0.0639,-0.13727 0.10324,0.0892 0.0289,0.26024 0.19591,0.44607 0.26081,0.69296 0.0435,0.32221 0.18436,0.61157 0.24867,0.92966 0.0408,0.16894 0.0641,0.33974 0.0697,0.51488 -0.0103,0.38154 0.0582,0.74612 0.14065,1.11394 0.0323,0.23032 0.0843,0.45852 0.0996,0.69119 0.13539,-0.37424 -0.14595,0.48126 -0.15375,0.51241 0.004,0.0402 -0.14545,0.57868 -0.0483,0.41211 -0.096,0.16075 -0.17381,0.3466 -0.23019,0.53306 -0.0227,0.16091 -0.0366,0.23433 -0.12512,0.36555 0,0 5.78108,3.77439 5.78108,3.77439 v 0 c 0.0997,-0.18381 0.24223,-0.37953 0.24023,-0.59884 0.0172,-0.14026 0.0799,-0.2723 0.16002,-0.39019 0.0965,-0.20394 0.10349,-0.3398 0.10925,-0.56653 0.0302,-0.25616 0.14686,-0.47054 0.25317,-0.69602 -0.014,-0.27253 -0.0302,-0.5401 -0.0943,-0.80586 -0.0512,-0.33067 -0.1855,-0.63599 -0.16364,-0.9673 6e-4,-0.21739 0.0154,-0.43945 -0.0224,-0.65348 -0.0575,-0.30929 -0.0827,-0.66135 -0.25242,-0.92046 -0.031,-0.26202 -0.0231,-0.5773 -0.21823,-0.76024 -0.01,-0.0971 -2.5e-4,-0.1985 -0.0274,-0.29133 -0.0653,-0.22315 -0.30487,-0.38135 -0.38088,-0.59961 -0.41971,-0.44719 -0.65622,-1.07979 -0.98369,-1.60703 z" />
        <path style="fill:#44d4f1;fill-opacity:0.9;stroke:#44d4f1;stroke-width:0.468801;stroke-linejoin:round;stroke-opacity:0.9" d="m 461.43643,121.17327 c 0.32694,0.5645 0.66605,1.12087 0.97112,1.70056 0.15238,0.1387 0.20999,0.38696 0.3504,0.53444 0.2138,0.22459 -0.0639,-0.13727 0.10324,0.0892 0.0289,0.26024 0.19591,0.44607 0.26081,0.69296 0.0435,0.32221 0.18436,0.61157 0.24867,0.92966 0.0408,0.16894 0.0641,0.33974 0.0697,0.51488 -0.0103,0.38154 0.0582,0.74612 0.14065,1.11394 0.0323,0.23032 0.0843,0.45852 0.0996,0.69119 0.13539,-0.37424 -0.14595,0.48126 -0.15375,0.51241 0.004,0.0402 -0.14545,0.57868 -0.0483,0.41211 -0.096,0.16075 -0.17381,0.3466 -0.23019,0.53306 -0.0227,0.16091 -0.0366,0.23433 -0.12512,0.36555 0,0 5.78108,3.77439 5.78108,3.77439 v 0 c 0.0997,-0.18381 0.24223,-0.37953 0.24023,-0.59884 0.0172,-0.14026 0.0799,-0.2723 0.16002,-0.39019 0.0965,-0.20394 0.10349,-0.3398 0.10925,-0.56653 0.0302,-0.25616 0.14686,-0.47054 0.25317,-0.69602 -0.014,-0.27253 -0.0302,-0.5401 -0.0943,-0.80586 -0.0512,-0.33067 -0.1855,-0.63599 -0.16364,-0.9673 6e-4,-0.21739 0.0154,-0.43945 -0.0224,-0.65348 -0.0575,-0.30929 -0.0827,-0.66135 -0.25242,-0.92046 -0.031,-0.26202 -0.0231,-0.5773 -0.21823,-0.76024 -0.01,-0.0971 -2.5e-4,-0.1985 -0.0274,-0.29133 -0.0653,-0.22315 -0.30487,-0.38135 -0.38088,-0.59961 -0.41971,-0.44719 -0.65622,-1.07979 -0.98369,-1.60703 z" transform="rotate(60 459.69672 118.81401)" />
        <path style="fill:#44d4f1;fill-opacity:0.9;stroke:#44d4f1;stroke-width:0.468801;stroke-linejoin:round;stroke-opacity:0.9" d="m 461.43643,121.17327 c 0.32694,0.5645 0.66605,1.12087 0.97112,1.70056 0.15238,0.1387 0.20999,0.38696 0.3504,0.53444 0.2138,0.22459 -0.0639,-0.13727 0.10324,0.0892 0.0289,0.26024 0.19591,0.44607 0.26081,0.69296 0.0435,0.32221 0.18436,0.61157 0.24867,0.92966 0.0408,0.16894 0.0641,0.33974 0.0697,0.51488 -0.0103,0.38154 0.0582,0.74612 0.14065,1.11394 0.0323,0.23032 0.0843,0.45852 0.0996,0.69119 0.13539,-0.37424 -0.14595,0.48126 -0.15375,0.51241 0.004,0.0402 -0.14545,0.57868 -0.0483,0.41211 -0.096,0.16075 -0.17381,0.3466 -0.23019,0.53306 -0.0227,0.16091 -0.0366,0.23433 -0.12512,0.36555 0,0 5.78108,3.77439 5.78108,3.77439 v 0 c 0.0997,-0.18381 0.24223,-0.37953 0.24023,-0.59884 0.0172,-0.14026 0.0799,-0.2723 0.16002,-0.39019 0.0965,-0.20394 0.10349,-0.3398 0.10925,-0.56653 0.0302,-0.25616 0.14686,-0.47054 0.25317,-0.69602 -0.014,-0.27253 -0.0302,-0.5401 -0.0943,-0.80586 -0.0512,-0.33067 -0.1855,-0.63599 -0.16364,-0.9673 6e-4,-0.21739 0.0154,-0.43945 -0.0224,-0.65348 -0.0575,-0.30929 -0.0827,-0.66135 -0.25242,-0.92046 -0.031,-0.26202 -0.0231,-0.5773 -0.21823,-0.76024 -0.01,-0.0971 -2.5e-4,-0.1985 -0.0274,-0.29133 -0.0653,-0.22315 -0.30487,-0.38135 -0.38088,-0.59961 -0.41971,-0.44719 -0.65622,-1.07979 -0.98369,-1.60703 z" transform="rotate(120 459.69672 118.81401)" />
        <path style="fill:#44d4f1;fill-opacity:0.9;stroke:#44d4f1;stroke-width:0.468801;stroke-linejoin:round;stroke-opacity:0.9" d="m 461.43643,121.17327 c 0.32694,0.5645 0.66605,1.12087 0.97112,1.70056 0.15238,0.1387 0.20999,0.38696 0.3504,0.53444 0.2138,0.22459 -0.0639,-0.13727 0.10324,0.0892 0.0289,0.26024 0.19591,0.44607 0.26081,0.69296 0.0435,0.32221 0.18436,0.61157 0.24867,0.92966 0.0408,0.16894 0.0641,0.33974 0.0697,0.51488 -0.0103,0.38154 0.0582,0.74612 0.14065,1.11394 0.0323,0.23032 0.0843,0.45852 0.0996,0.69119 0.13539,-0.37424 -0.14595,0.48126 -0.15375,0.51241 0.004,0.0402 -0.14545,0.57868 -0.0483,0.41211 -0.096,0.16075 -0.17381,0.3466 -0.23019,0.53306 -0.0227,0.16091 -0.0366,0.23433 -0.12512,0.36555 0,0 5.78108,3.77439 5.78108,3.77439 v 0 c 0.0997,-0.18381 0.24223,-0.37953 0.24023,-0.59884 0.0172,-0.14026 0.0799,-0.2723 0.16002,-0.39019 0.0965,-0.20394 0.10349,-0.3398 0.10925,-0.56653 0.0302,-0.25616 0.14686,-0.47054 0.25317,-0.69602 -0.014,-0.27253 -0.0302,-0.5401 -0.0943,-0.80586 -0.0512,-0.33067 -0.1855,-0.63599 -0.16364,-0.9673 6e-4,-0.21739 0.0154,-0.43945 -0.0224,-0.65348 -0.0575,-0.30929 -0.0827,-0.66135 -0.25242,-0.92046 -0.031,-0.26202 -0.0231,-0.5773 -0.21823,-0.76024 -0.01,-0.0971 -2.5e-4,-0.1985 -0.0274,-0.29133 -0.0653,-0.22315 -0.30487,-0.38135 -0.38088,-0.59961 -0.41971,-0.44719 -0.65622,-1.07979 -0.98369,-1.60703 z" transform="rotate(180 459.69672 118.81401)" />
        <path style="fill:#44d4f1;fill-opacity:0.9;stroke:#44d4f1;stroke-width:0.468801;stroke-linejoin:round;stroke-opacity:0.9" d="m 461.43643,121.17327 c 0.32694,0.5645 0.66605,1.12087 0.97112,1.70056 0.15238,0.1387 0.20999,0.38696 0.3504,0.53444 0.2138,0.22459 -0.0639,-0.13727 0.10324,0.0892 0.0289,0.26024 0.19591,0.44607 0.26081,0.69296 0.0435,0.32221 0.18436,0.61157 0.24867,0.92966 0.0408,0.16894 0.0641,0.33974 0.0697,0.51488 -0.0103,0.38154 0.0582,0.74612 0.14065,1.11394 0.0323,0.23032 0.0843,0.45852 0.0996,0.69119 0.13539,-0.37424 -0.14595,0.48126 -0.15375,0.51241 0.004,0.0402 -0.14545,0.57868 -0.0483,0.41211 -0.096,0.16075 -0.17381,0.3466 -0.23019,0.53306 -0.0227,0.16091 -0.0366,0.23433 -0.12512,0.36555 0,0 5.78108,3.77439 5.78108,3.77439 v 0 c 0.0997,-0.18381 0.24223,-0.37953 0.24023,-0.59884 0.0172,-0.14026 0.0799,-0.2723 0.16002,-0.39019 0.0965,-0.20394 0.10349,-0.3398 0.10925,-0.56653 0.0302,-0.25616 0.14686,-0.47054 0.25317,-0.69602 -0.014,-0.27253 -0.0302,-0.5401 -0.0943,-0.80586 -0.0512,-0.33067 -0.1855,-0.63599 -0.16364,-0.9673 6e-4,-0.21739 0.0154,-0.43945 -0.0224,-0.65348 -0.0575,-0.30929 -0.0827,-0.66135 -0.25242,-0.92046 -0.031,-0.26202 -0.0231,-0.5773 -0.21823,-0.76024 -0.01,-0.0971 -2.5e-4,-0.1985 -0.0274,-0.29133 -0.0653,-0.22315 -0.30487,-0.38135 -0.38088,-0.59961 -0.41971,-0.44719 -0.65622,-1.07979 -0.98369,-1.60703 z" transform="rotate(240 459.69672 118.81401)" />
        <path style="fill:#44d4f1;fill-opacity:0.9;stroke:#44d4f1;stroke-width:0.468801;stroke-linejoin:round;stroke-opacity:0.9" d="m 461.43643,121.17327 c 0.32694,0.5645 0.66605,1.12087 0.97112,1.70056 0.15238,0.1387 0.20999,0.38696 0.3504,0.53444 0.2138,0.22459 -0.0639,-0.13727 0.10324,0.0892 0.0289,0.26024 0.19591,0.44607 0.26081,0.69296 0.0435,0.32221 0.18436,0.61157 0.24867,0.92966 0.0408,0.16894 0.0641,0.33974 0.0697,0.51488 -0.0103,0.38154 0.0582,0.74612 0.14065,1.11394 0.0323,0.23032 0.0843,0.45852 0.0996,0.69119 0.13539,-0.37424 -0.14595,0.48126 -0.15375,0.51241 0.004,0.0402 -0.14545,0.57868 -0.0483,0.41211 -0.096,0.16075 -0.17381,0.3466 -0.23019,0.53306 -0.0227,0.16091 -0.0366,0.23433 -0.12512,0.36555 0,0 5.78108,3.77439 5.78108,3.77439 v 0 c 0.0997,-0.18381 0.24223,-0.37953 0.24023,-0.59884 0.0172,-0.14026 0.0799,-0.2723 0.16002,-0.39019 0.0965,-0.20394 0.10349,-0.3398 0.10925,-0.56653 0.0302,-0.25616 0.14686,-0.47054 0.25317,-0.69602 -0.014,-0.27253 -0.0302,-0.5401 -0.0943,-0.80586 -0.0512,-0.33067 -0.1855,-0.63599 -0.16364,-0.9673 6e-4,-0.21739 0.0154,-0.43945 -0.0224,-0.65348 -0.0575,-0.30929 -0.0827,-0.66135 -0.25242,-0.92046 -0.031,-0.26202 -0.0231,-0.5773 -0.21823,-0.76024 -0.01,-0.0971 -2.5e-4,-0.1985 -0.0274,-0.29133 -0.0653,-0.22315 -0.30487,-0.38135 -0.38088,-0.59961 -0.41971,-0.44719 -0.65622,-1.07979 -0.98369,-1.60703 z" transform="rotate(300 459.69672 118.81401)" />
      </g>
      <path
       d="m 677.15747,101.38646 a 16.973847,16.973846 0 0 0 -16.9736,16.97359 16.973847,16.973846 0 0 0 16.9736,16.97361 16.973847,16.973846 0 0 0 16.97359,-16.97361 16.973847,16.973846 0 0 0 -16.97359,-16.97359 z m 0,14.1443 a 2.8289742,2.8289744 0 0 1 2.8293,2.82929 2.8289742,2.8289744 0 0 1 -2.8293,2.82932 2.8289742,2.8289744 0 0 1 -2.82931,-2.82932 2.8289742,2.8289744 0 0 1 2.82931,-2.82929 z"
       style="fill:none;fill-opacity:0.9;stroke:#000000;stroke-width:0.338798;stroke-linejoin:round;stroke-opacity:1"
       id="path19-4-0" /><path
      style="fill:#44d4f1;fill-opacity:0.9;fill-rule:nonzero;stroke:#44d4f1;stroke-width:0.44202;stroke-linejoin:round;stroke-dasharray:none;stroke-dashoffset:0;stroke-opacity:0.9;display:none"
       id="path28-9-4"
       d="m 678.80384,120.70659 c 0.30827,0.53224 0.62801,1.05683 0.91565,1.60341 0.14367,0.13078 0.19799,0.36485 0.33038,0.5039 0.20159,0.21176 -0.0602,-0.12942 0.0973,0.0841 0.0273,0.24537 0.18473,0.42059 0.24592,0.65337 0.041,0.30381 0.17383,0.57665 0.23447,0.87655 0.0384,0.1593 0.0605,0.32034 0.0658,0.48548 -0.01,0.35974 0.055,0.7035 0.1326,1.0503 0.0304,0.21717 0.0794,0.43232 0.0939,0.65172 0.12766,-0.35286 -0.13761,0.45376 -0.14497,0.48313 0.004,0.0379 -0.13714,0.54563 -0.0455,0.38857 -0.0905,0.15157 -0.16388,0.3268 -0.21704,0.50261 -0.0214,0.15172 -0.0345,0.22093 -0.11798,0.34467 0,0 5.45084,3.55878 5.45084,3.55878 v 0 c 0.094,-0.17332 0.2284,-0.35786 0.22651,-0.56463 0.0162,-0.13225 0.0754,-0.25674 0.15088,-0.36791 0.091,-0.19229 0.0976,-0.32038 0.10301,-0.53417 0.0285,-0.24152 0.13848,-0.44365 0.23872,-0.65625 -0.0131,-0.25696 -0.0285,-0.50925 -0.0889,-0.75984 -0.0482,-0.31176 -0.1749,-0.59965 -0.15429,-0.91203 5.7e-4,-0.20497 0.0145,-0.41435 -0.0212,-0.61615 -0.0542,-0.29162 -0.078,-0.62358 -0.23801,-0.86789 -0.0293,-0.24705 -0.0218,-0.54432 -0.20576,-0.71681 -0.009,-0.0915 -2.4e-4,-0.18716 -0.0258,-0.27468 -0.0615,-0.2104 -0.28746,-0.35957 -0.35912,-0.56536 -0.39574,-0.42165 -0.61874,-1.01811 -0.9275,-1.51524 z" /><path
      style="fill:#44d4f1;fill-opacity:0.9;fill-rule:nonzero;stroke:#44d4f1;stroke-width:0.44202;stroke-linejoin:round;stroke-dasharray:none;stroke-dashoffset:0;stroke-opacity:0.9;display:none"
       id="path28-67-2-5"
       d="m 679.86184,117.22307 c 0.53224,-0.30826 1.05683,-0.628 1.60341,-0.91565 0.13078,-0.14367 0.36486,-0.19799 0.50391,-0.33037 0.21176,-0.2016 -0.12943,0.0602 0.0841,-0.0974 0.24538,-0.0273 0.4206,-0.18471 0.65338,-0.24591 0.3038,-0.041 0.57664,-0.17384 0.87655,-0.23447 0.1593,-0.0384 0.32033,-0.0605 0.48547,-0.0658 0.35976,0.01 0.7035,-0.0549 1.05031,-0.13262 0.21716,-0.0304 0.43233,-0.0794 0.65171,-0.0939 -0.35286,-0.12766 0.45377,0.13762 0.48313,0.14498 0.0379,-0.004 0.54563,0.13712 0.38857,0.0455 0.15156,0.0905 0.3268,0.16388 0.5026,0.21704 0.15173,0.0214 0.22096,0.0345 0.34468,0.11798 0,0 3.55879,-5.45084 3.55879,-5.45084 v 0 c -0.17331,-0.094 -0.35787,-0.22839 -0.56463,-0.2265 -0.13226,-0.0162 -0.25676,-0.0754 -0.36792,-0.15088 -0.19228,-0.091 -0.32037,-0.0976 -0.53416,-0.10302 -0.24153,-0.0285 -0.44366,-0.13847 -0.65626,-0.2387 -0.25696,0.0131 -0.50925,0.0285 -0.75983,0.0889 -0.31177,0.0482 -0.59966,0.17491 -0.91203,0.1543 -0.20498,-5.8e-4 -0.41436,-0.0145 -0.61616,0.0211 -0.29162,0.0542 -0.62357,0.078 -0.86788,0.238 -0.24705,0.0293 -0.54432,0.0218 -0.71681,0.20578 -0.0915,0.009 -0.18716,2.3e-4 -0.27469,0.0258 -0.2104,0.0616 -0.35956,0.28745 -0.56535,0.35912 -0.42165,0.39573 -1.01811,0.61873 -1.51524,0.92749 z" /><path
      style="fill:#44d4f1;fill-opacity:0.9;fill-rule:nonzero;stroke:#44d4f1;stroke-width:0.44202;stroke-linejoin:round;stroke-dasharray:none;stroke-dashoffset:0;stroke-opacity:0.9;display:none"
       id="path28-67-4-9-7"
       d="m 675.61836,120.81104 c -0.53224,0.30826 -1.05683,0.62801 -1.60341,0.91565 -0.13078,0.14368 -0.36486,0.19799 -0.50391,0.33038 -0.21176,0.20159 0.12943,-0.0602 -0.0841,0.0973 -0.24538,0.0273 -0.42059,0.18472 -0.65337,0.24591 -0.30381,0.041 -0.57664,0.17383 -0.87656,0.23448 -0.15929,0.0384 -0.32034,0.0604 -0.48547,0.0658 -0.35975,-0.01 -0.70351,0.0549 -1.05031,0.13262 -0.21716,0.0304 -0.43232,0.0794 -0.65171,0.0939 0.35286,0.12766 -0.45376,-0.13761 -0.48313,-0.14497 -0.0379,0.004 -0.54563,-0.13714 -0.38857,-0.0455 -0.15157,-0.0905 -0.3268,-0.16388 -0.50261,-0.21704 -0.15171,-0.0214 -0.22094,-0.0345 -0.34467,-0.11798 0,0 -3.55878,5.45084 -3.55878,5.45084 v 0 c 0.17331,0.094 0.35786,0.2284 0.56463,0.22651 0.13225,0.0162 0.25675,0.0754 0.36791,0.15087 0.19229,0.091 0.32037,0.0976 0.53417,0.10302 0.24152,0.0285 0.44365,0.13847 0.65625,0.2387 0.25696,-0.0131 0.50925,-0.0285 0.75983,-0.0889 0.31178,-0.0482 0.59966,-0.1749 0.91204,-0.1543 0.20497,5.7e-4 0.41435,0.0145 0.61615,-0.0212 0.29162,-0.0542 0.62358,-0.078 0.86788,-0.238 0.24705,-0.0293 0.54433,-0.0218 0.71681,-0.20577 0.0915,-0.009 0.18716,-2.3e-4 0.27469,-0.0258 0.2104,-0.0616 0.35956,-0.28745 0.56535,-0.35912 0.42166,-0.39573 1.01812,-0.61874 1.51524,-0.9275 z" /><path
      style="fill:#44d4f1;fill-opacity:0.9;fill-rule:nonzero;stroke:#44d4f1;stroke-width:0.44202;stroke-linejoin:round;stroke-dasharray:none;stroke-dashoffset:0;stroke-opacity:0.9;display:none"
       id="path28-6-1-1"
       d="m 675.29333,116.15875 c -0.30827,-0.53225 -0.62801,-1.05683 -0.91565,-1.60341 -0.14367,-0.13078 -0.19799,-0.36485 -0.33037,-0.5039 -0.2016,-0.21177 0.0602,0.12941 -0.0974,-0.0841 -0.0273,-0.24537 -0.18472,-0.42059 -0.24592,-0.65337 -0.041,-0.30379 -0.17383,-0.57663 -0.23446,-0.87655 -0.0384,-0.15929 -0.0605,-0.32033 -0.0658,-0.48547 0.01,-0.35974 -0.055,-0.7035 -0.13262,-1.05031 -0.0304,-0.21716 -0.0794,-0.43232 -0.0939,-0.6517 -0.12765,0.35285 0.13762,-0.45377 0.14498,-0.48314 -0.004,-0.0379 0.13713,-0.54563 0.0455,-0.38857 0.0905,-0.15156 0.16388,-0.32681 0.21704,-0.50261 0.0214,-0.15172 0.0345,-0.22094 0.11798,-0.34467 0,0 -5.45085,-3.55878 -5.45085,-3.55878 v 0 c -0.094,0.17331 -0.22839,0.35786 -0.2265,0.56463 -0.0162,0.13225 -0.0754,0.25675 -0.15088,0.36791 -0.091,0.19228 -0.0976,0.32038 -0.10301,0.53417 -0.0285,0.24152 -0.13847,0.44366 -0.23871,0.65625 0.0131,0.25696 0.0285,0.50925 0.0889,0.75983 0.0482,0.31178 0.1749,0.59966 0.15429,0.91204 -5.6e-4,0.20497 -0.0145,0.41435 0.0212,0.61614 0.0542,0.29164 0.078,0.6236 0.238,0.86789 0.0293,0.24706 0.0218,0.54433 0.20578,0.71681 0.009,0.0915 2.3e-4,0.18716 0.0258,0.2747 0.0615,0.2104 0.28745,0.35956 0.35911,0.56534 0.39575,0.42166 0.61875,1.01811 0.92751,1.51525 z" /><circle
       style="fill:#ffffff;fill-opacity:1;fill-rule:nonzero;stroke:#000000;stroke-width:0.363926;stroke-linejoin:round;stroke-dasharray:none;stroke-dashoffset:0;stroke-opacity:1"
       id="path30-6"
       cx="677.16351"
       cy="118.48211"
      r="2.6752443" />
      <g id="fan-blades-3" data-running-status="off">
        <animateTransform id="fan-animate-3" attributeName="transform" type="rotate" from="0 677.16351 118.48211" to="-360 677.16351 118.48211" dur="2s" repeatCount="indefinite" begin="indefinite" />
        <path style="fill:#44d4f1;fill-opacity:0.9;stroke:#44d4f1;stroke-width:0.44202;stroke-linejoin:round;stroke-opacity:0.9" d="m 678.80384,120.70659 c 0.30827,0.53224 0.62801,1.05683 0.91565,1.60341 0.14367,0.13078 0.19799,0.36485 0.33038,0.5039 0.20159,0.21176 -0.0602,-0.12942 0.0973,0.0841 0.0273,0.24537 0.18473,0.42059 0.24592,0.65337 0.041,0.30381 0.17383,0.57665 0.23447,0.87655 0.0384,0.1593 0.0605,0.32034 0.0658,0.48548 -0.01,0.35974 0.055,0.7035 0.1326,1.0503 0.0304,0.21717 0.0794,0.43232 0.0939,0.65172 0.12766,-0.35286 -0.13761,0.45376 -0.14497,0.48313 0.004,0.0379 -0.13714,0.54563 -0.0455,0.38857 -0.0905,0.15157 -0.16388,0.3268 -0.21704,0.50261 -0.0214,0.15172 -0.0345,0.22093 -0.11798,0.34467 0,0 5.45084,3.55878 5.45084,3.55878 v 0 c 0.094,-0.17332 0.2284,-0.35786 0.22651,-0.56463 0.0162,-0.13225 0.0754,-0.25674 0.15088,-0.36791 0.091,-0.19229 0.0976,-0.32038 0.10301,-0.53417 0.0285,-0.24152 0.13848,-0.44365 0.23872,-0.65625 -0.0131,-0.25696 -0.0285,-0.50925 -0.0889,-0.75984 -0.0482,-0.31176 -0.1749,-0.59965 -0.15429,-0.91203 5.7e-4,-0.20497 0.0145,-0.41435 -0.0212,-0.61615 -0.0542,-0.29162 -0.078,-0.62358 -0.23801,-0.86789 -0.0293,-0.24705 -0.0218,-0.54432 -0.20576,-0.71681 -0.009,-0.0915 -2.4e-4,-0.18716 -0.0258,-0.27468 -0.0615,-0.2104 -0.28746,-0.35957 -0.35912,-0.56536 -0.39574,-0.42165 -0.61874,-1.01811 -0.9275,-1.51524 z" />
        <path style="fill:#44d4f1;fill-opacity:0.9;stroke:#44d4f1;stroke-width:0.44202;stroke-linejoin:round;stroke-opacity:0.9" d="m 678.80384,120.70659 c 0.30827,0.53224 0.62801,1.05683 0.91565,1.60341 0.14367,0.13078 0.19799,0.36485 0.33038,0.5039 0.20159,0.21176 -0.0602,-0.12942 0.0973,0.0841 0.0273,0.24537 0.18473,0.42059 0.24592,0.65337 0.041,0.30381 0.17383,0.57665 0.23447,0.87655 0.0384,0.1593 0.0605,0.32034 0.0658,0.48548 -0.01,0.35974 0.055,0.7035 0.1326,1.0503 0.0304,0.21717 0.0794,0.43232 0.0939,0.65172 0.12766,-0.35286 -0.13761,0.45376 -0.14497,0.48313 0.004,0.0379 -0.13714,0.54563 -0.0455,0.38857 -0.0905,0.15157 -0.16388,0.3268 -0.21704,0.50261 -0.0214,0.15172 -0.0345,0.22093 -0.11798,0.34467 0,0 5.45084,3.55878 5.45084,3.55878 v 0 c 0.094,-0.17332 0.2284,-0.35786 0.22651,-0.56463 0.0162,-0.13225 0.0754,-0.25674 0.15088,-0.36791 0.091,-0.19229 0.0976,-0.32038 0.10301,-0.53417 0.0285,-0.24152 0.13848,-0.44365 0.23872,-0.65625 -0.0131,-0.25696 -0.0285,-0.50925 -0.0889,-0.75984 -0.0482,-0.31176 -0.1749,-0.59965 -0.15429,-0.91203 5.7e-4,-0.20497 0.0145,-0.41435 -0.0212,-0.61615 -0.0542,-0.29162 -0.078,-0.62358 -0.23801,-0.86789 -0.0293,-0.24705 -0.0218,-0.54432 -0.20576,-0.71681 -0.009,-0.0915 -2.4e-4,-0.18716 -0.0258,-0.27468 -0.0615,-0.2104 -0.28746,-0.35957 -0.35912,-0.56536 -0.39574,-0.42165 -0.61874,-1.01811 -0.9275,-1.51524 z" transform="rotate(60 677.16351 118.48211)" />
        <path style="fill:#44d4f1;fill-opacity:0.9;stroke:#44d4f1;stroke-width:0.44202;stroke-linejoin:round;stroke-opacity:0.9" d="m 678.80384,120.70659 c 0.30827,0.53224 0.62801,1.05683 0.91565,1.60341 0.14367,0.13078 0.19799,0.36485 0.33038,0.5039 0.20159,0.21176 -0.0602,-0.12942 0.0973,0.0841 0.0273,0.24537 0.18473,0.42059 0.24592,0.65337 0.041,0.30381 0.17383,0.57665 0.23447,0.87655 0.0384,0.1593 0.0605,0.32034 0.0658,0.48548 -0.01,0.35974 0.055,0.7035 0.1326,1.0503 0.0304,0.21717 0.0794,0.43232 0.0939,0.65172 0.12766,-0.35286 -0.13761,0.45376 -0.14497,0.48313 0.004,0.0379 -0.13714,0.54563 -0.0455,0.38857 -0.0905,0.15157 -0.16388,0.3268 -0.21704,0.50261 -0.0214,0.15172 -0.0345,0.22093 -0.11798,0.34467 0,0 5.45084,3.55878 5.45084,3.55878 v 0 c 0.094,-0.17332 0.2284,-0.35786 0.22651,-0.56463 0.0162,-0.13225 0.0754,-0.25674 0.15088,-0.36791 0.091,-0.19229 0.0976,-0.32038 0.10301,-0.53417 0.0285,-0.24152 0.13848,-0.44365 0.23872,-0.65625 -0.0131,-0.25696 -0.0285,-0.50925 -0.0889,-0.75984 -0.0482,-0.31176 -0.1749,-0.59965 -0.15429,-0.91203 5.7e-4,-0.20497 0.0145,-0.41435 -0.0212,-0.61615 -0.0542,-0.29162 -0.078,-0.62358 -0.23801,-0.86789 -0.0293,-0.24705 -0.0218,-0.54432 -0.20576,-0.71681 -0.009,-0.0915 -2.4e-4,-0.18716 -0.0258,-0.27468 -0.0615,-0.2104 -0.28746,-0.35957 -0.35912,-0.56536 -0.39574,-0.42165 -0.61874,-1.01811 -0.9275,-1.51524 z" transform="rotate(120 677.16351 118.48211)" />
        <path style="fill:#44d4f1;fill-opacity:0.9;stroke:#44d4f1;stroke-width:0.44202;stroke-linejoin:round;stroke-opacity:0.9" d="m 678.80384,120.70659 c 0.30827,0.53224 0.62801,1.05683 0.91565,1.60341 0.14367,0.13078 0.19799,0.36485 0.33038,0.5039 0.20159,0.21176 -0.0602,-0.12942 0.0973,0.0841 0.0273,0.24537 0.18473,0.42059 0.24592,0.65337 0.041,0.30381 0.17383,0.57665 0.23447,0.87655 0.0384,0.1593 0.0605,0.32034 0.0658,0.48548 -0.01,0.35974 0.055,0.7035 0.1326,1.0503 0.0304,0.21717 0.0794,0.43232 0.0939,0.65172 0.12766,-0.35286 -0.13761,0.45376 -0.14497,0.48313 0.004,0.0379 -0.13714,0.54563 -0.0455,0.38857 -0.0905,0.15157 -0.16388,0.3268 -0.21704,0.50261 -0.0214,0.15172 -0.0345,0.22093 -0.11798,0.34467 0,0 5.45084,3.55878 5.45084,3.55878 v 0 c 0.094,-0.17332 0.2284,-0.35786 0.22651,-0.56463 0.0162,-0.13225 0.0754,-0.25674 0.15088,-0.36791 0.091,-0.19229 0.0976,-0.32038 0.10301,-0.53417 0.0285,-0.24152 0.13848,-0.44365 0.23872,-0.65625 -0.0131,-0.25696 -0.0285,-0.50925 -0.0889,-0.75984 -0.0482,-0.31176 -0.1749,-0.59965 -0.15429,-0.91203 5.7e-4,-0.20497 0.0145,-0.41435 -0.0212,-0.61615 -0.0542,-0.29162 -0.078,-0.62358 -0.23801,-0.86789 -0.0293,-0.24705 -0.0218,-0.54432 -0.20576,-0.71681 -0.009,-0.0915 -2.4e-4,-0.18716 -0.0258,-0.27468 -0.0615,-0.2104 -0.28746,-0.35957 -0.35912,-0.56536 -0.39574,-0.42165 -0.61874,-1.01811 -0.9275,-1.51524 z" transform="rotate(180 677.16351 118.48211)" />
        <path style="fill:#44d4f1;fill-opacity:0.9;stroke:#44d4f1;stroke-width:0.44202;stroke-linejoin:round;stroke-opacity:0.9" d="m 678.80384,120.70659 c 0.30827,0.53224 0.62801,1.05683 0.91565,1.60341 0.14367,0.13078 0.19799,0.36485 0.33038,0.5039 0.20159,0.21176 -0.0602,-0.12942 0.0973,0.0841 0.0273,0.24537 0.18473,0.42059 0.24592,0.65337 0.041,0.30381 0.17383,0.57665 0.23447,0.87655 0.0384,0.1593 0.0605,0.32034 0.0658,0.48548 -0.01,0.35974 0.055,0.7035 0.1326,1.0503 0.0304,0.21717 0.0794,0.43232 0.0939,0.65172 0.12766,-0.35286 -0.13761,0.45376 -0.14497,0.48313 0.004,0.0379 -0.13714,0.54563 -0.0455,0.38857 -0.0905,0.15157 -0.16388,0.3268 -0.21704,0.50261 -0.0214,0.15172 -0.0345,0.22093 -0.11798,0.34467 0,0 5.45084,3.55878 5.45084,3.55878 v 0 c 0.094,-0.17332 0.2284,-0.35786 0.22651,-0.56463 0.0162,-0.13225 0.0754,-0.25674 0.15088,-0.36791 0.091,-0.19229 0.0976,-0.32038 0.10301,-0.53417 0.0285,-0.24152 0.13848,-0.44365 0.23872,-0.65625 -0.0131,-0.25696 -0.0285,-0.50925 -0.0889,-0.75984 -0.0482,-0.31176 -0.1749,-0.59965 -0.15429,-0.91203 5.7e-4,-0.20497 0.0145,-0.41435 -0.0212,-0.61615 -0.0542,-0.29162 -0.078,-0.62358 -0.23801,-0.86789 -0.0293,-0.24705 -0.0218,-0.54432 -0.20576,-0.71681 -0.009,-0.0915 -2.4e-4,-0.18716 -0.0258,-0.27468 -0.0615,-0.2104 -0.28746,-0.35957 -0.35912,-0.56536 -0.39574,-0.42165 -0.61874,-1.01811 -0.9275,-1.51524 z" transform="rotate(240 677.16351 118.48211)" />
        <path style="fill:#44d4f1;fill-opacity:0.9;stroke:#44d4f1;stroke-width:0.44202;stroke-linejoin:round;stroke-opacity:0.9" d="m 678.80384,120.70659 c 0.30827,0.53224 0.62801,1.05683 0.91565,1.60341 0.14367,0.13078 0.19799,0.36485 0.33038,0.5039 0.20159,0.21176 -0.0602,-0.12942 0.0973,0.0841 0.0273,0.24537 0.18473,0.42059 0.24592,0.65337 0.041,0.30381 0.17383,0.57665 0.23447,0.87655 0.0384,0.1593 0.0605,0.32034 0.0658,0.48548 -0.01,0.35974 0.055,0.7035 0.1326,1.0503 0.0304,0.21717 0.0794,0.43232 0.0939,0.65172 0.12766,-0.35286 -0.13761,0.45376 -0.14497,0.48313 0.004,0.0379 -0.13714,0.54563 -0.0455,0.38857 -0.0905,0.15157 -0.16388,0.3268 -0.21704,0.50261 -0.0214,0.15172 -0.0345,0.22093 -0.11798,0.34467 0,0 5.45084,3.55878 5.45084,3.55878 v 0 c 0.094,-0.17332 0.2284,-0.35786 0.22651,-0.56463 0.0162,-0.13225 0.0754,-0.25674 0.15088,-0.36791 0.091,-0.19229 0.0976,-0.32038 0.10301,-0.53417 0.0285,-0.24152 0.13848,-0.44365 0.23872,-0.65625 -0.0131,-0.25696 -0.0285,-0.50925 -0.0889,-0.75984 -0.0482,-0.31176 -0.1749,-0.59965 -0.15429,-0.91203 5.7e-4,-0.20497 0.0145,-0.41435 -0.0212,-0.61615 -0.0542,-0.29162 -0.078,-0.62358 -0.23801,-0.86789 -0.0293,-0.24705 -0.0218,-0.54432 -0.20576,-0.71681 -0.009,-0.0915 -2.4e-4,-0.18716 -0.0258,-0.27468 -0.0615,-0.2104 -0.28746,-0.35957 -0.35912,-0.56536 -0.39574,-0.42165 -0.61874,-1.01811 -0.9275,-1.51524 z" transform="rotate(300 677.16351 118.48211)" />
      </g>
      <circle
       style="fill:#ffffff;fill-opacity:1;fill-rule:nonzero;stroke:#000000;stroke-width:0.385975;stroke-linejoin:round;stroke-dasharray:none;stroke-dashoffset:0;stroke-opacity:1"
      id="path30-8"
      cx="319.68314"
      cy="118.58103"
      r="2.8373253" />
      <g id="fan-blades-1" data-running-status="off">
        <animateTransform id="fan-animate-1" attributeName="transform" type="rotate" from="0 319.68314 118.58103" to="-360 319.68314 118.58103" dur="2s" repeatCount="indefinite" begin="indefinite" />
        <path style="fill:#44d4f1;fill-opacity:0.9;stroke:#44d4f1;stroke-width:0.468801;stroke-linejoin:round;stroke-opacity:0.9" d="m 321.43643,121.17327 c 0.32694,0.5645 0.66605,1.12087 0.97112,1.70056 0.15238,0.1387 0.20999,0.38696 0.3504,0.53444 0.2138,0.22459 -0.0639,-0.13727 0.10324,0.0892 0.0289,0.26024 0.19591,0.44607 0.26081,0.69296 0.0435,0.32221 0.18436,0.61157 0.24867,0.92966 0.0408,0.16894 0.0641,0.33974 0.0697,0.51488 -0.0103,0.38154 0.0582,0.74612 0.14065,1.11394 0.0323,0.23032 0.0843,0.45852 0.0996,0.69119 0.13539,-0.37424 -0.14595,0.48126 -0.15375,0.51241 0.004,0.0402 -0.14545,0.57868 -0.0483,0.41211 -0.096,0.16075 -0.17381,0.3466 -0.23019,0.53306 -0.0227,0.16091 -0.0366,0.23433 -0.12512,0.36555 0,0 5.78108,3.77439 5.78108,3.77439 v 0 c 0.0997,-0.18381 0.24223,-0.37953 0.24023,-0.59884 0.0172,-0.14026 0.0799,-0.2723 0.16002,-0.39019 0.0965,-0.20394 0.10349,-0.3398 0.10925,-0.56653 0.0302,-0.25616 0.14686,-0.47054 0.25317,-0.69602 -0.014,-0.27253 -0.0302,-0.5401 -0.0943,-0.80586 -0.0512,-0.33067 -0.1855,-0.63599 -0.16364,-0.9673 6e-4,-0.21739 0.0154,-0.43945 -0.0224,-0.65348 -0.0575,-0.30929 -0.0827,-0.66135 -0.25242,-0.92046 -0.031,-0.26202 -0.0231,-0.5773 -0.21823,-0.76024 -0.01,-0.0971 -2.5e-4,-0.1985 -0.0274,-0.29133 -0.0653,-0.22315 -0.30487,-0.38135 -0.38088,-0.59961 -0.41971,-0.44719 -0.65622,-1.07979 -0.98369,-1.60703 z" />
        <path style="fill:#44d4f1;fill-opacity:0.9;stroke:#44d4f1;stroke-width:0.468801;stroke-linejoin:round;stroke-opacity:0.9" d="m 321.43643,121.17327 c 0.32694,0.5645 0.66605,1.12087 0.97112,1.70056 0.15238,0.1387 0.20999,0.38696 0.3504,0.53444 0.2138,0.22459 -0.0639,-0.13727 0.10324,0.0892 0.0289,0.26024 0.19591,0.44607 0.26081,0.69296 0.0435,0.32221 0.18436,0.61157 0.24867,0.92966 0.0408,0.16894 0.0641,0.33974 0.0697,0.51488 -0.0103,0.38154 0.0582,0.74612 0.14065,1.11394 0.0323,0.23032 0.0843,0.45852 0.0996,0.69119 0.13539,-0.37424 -0.14595,0.48126 -0.15375,0.51241 0.004,0.0402 -0.14545,0.57868 -0.0483,0.41211 -0.096,0.16075 -0.17381,0.3466 -0.23019,0.53306 -0.0227,0.16091 -0.0366,0.23433 -0.12512,0.36555 0,0 5.78108,3.77439 5.78108,3.77439 v 0 c 0.0997,-0.18381 0.24223,-0.37953 0.24023,-0.59884 0.0172,-0.14026 0.0799,-0.2723 0.16002,-0.39019 0.0965,-0.20394 0.10349,-0.3398 0.10925,-0.56653 0.0302,-0.25616 0.14686,-0.47054 0.25317,-0.69602 -0.014,-0.27253 -0.0302,-0.5401 -0.0943,-0.80586 -0.0512,-0.33067 -0.1855,-0.63599 -0.16364,-0.9673 6e-4,-0.21739 0.0154,-0.43945 -0.0224,-0.65348 -0.0575,-0.30929 -0.0827,-0.66135 -0.25242,-0.92046 -0.031,-0.26202 -0.0231,-0.5773 -0.21823,-0.76024 -0.01,-0.0971 -2.5e-4,-0.1985 -0.0274,-0.29133 -0.0653,-0.22315 -0.30487,-0.38135 -0.38088,-0.59961 -0.41971,-0.44719 -0.65622,-1.07979 -0.98369,-1.60703 z" transform="rotate(60 319.68314 118.58103)" />
        <path style="fill:#44d4f1;fill-opacity:0.9;stroke:#44d4f1;stroke-width:0.468801;stroke-linejoin:round;stroke-opacity:0.9" d="m 321.43643,121.17327 c 0.32694,0.5645 0.66605,1.12087 0.97112,1.70056 0.15238,0.1387 0.20999,0.38696 0.3504,0.53444 0.2138,0.22459 -0.0639,-0.13727 0.10324,0.0892 0.0289,0.26024 0.19591,0.44607 0.26081,0.69296 0.0435,0.32221 0.18436,0.61157 0.24867,0.92966 0.0408,0.16894 0.0641,0.33974 0.0697,0.51488 -0.0103,0.38154 0.0582,0.74612 0.14065,1.11394 0.0323,0.23032 0.0843,0.45852 0.0996,0.69119 0.13539,-0.37424 -0.14595,0.48126 -0.15375,0.51241 0.004,0.0402 -0.14545,0.57868 -0.0483,0.41211 -0.096,0.16075 -0.17381,0.3466 -0.23019,0.53306 -0.0227,0.16091 -0.0366,0.23433 -0.12512,0.36555 0,0 5.78108,3.77439 5.78108,3.77439 v 0 c 0.0997,-0.18381 0.24223,-0.37953 0.24023,-0.59884 0.0172,-0.14026 0.0799,-0.2723 0.16002,-0.39019 0.0965,-0.20394 0.10349,-0.3398 0.10925,-0.56653 0.0302,-0.25616 0.14686,-0.47054 0.25317,-0.69602 -0.014,-0.27253 -0.0302,-0.5401 -0.0943,-0.80586 -0.0512,-0.33067 -0.1855,-0.63599 -0.16364,-0.9673 6e-4,-0.21739 0.0154,-0.43945 -0.0224,-0.65348 -0.0575,-0.30929 -0.0827,-0.66135 -0.25242,-0.92046 -0.031,-0.26202 -0.0231,-0.5773 -0.21823,-0.76024 -0.01,-0.0971 -2.5e-4,-0.1985 -0.0274,-0.29133 -0.0653,-0.22315 -0.30487,-0.38135 -0.38088,-0.59961 -0.41971,-0.44719 -0.65622,-1.07979 -0.98369,-1.60703 z" transform="rotate(120 319.68314 118.58103)" />
        <path style="fill:#44d4f1;fill-opacity:0.9;stroke:#44d4f1;stroke-width:0.468801;stroke-linejoin:round;stroke-opacity:0.9" d="m 321.43643,121.17327 c 0.32694,0.5645 0.66605,1.12087 0.97112,1.70056 0.15238,0.1387 0.20999,0.38696 0.3504,0.53444 0.2138,0.22459 -0.0639,-0.13727 0.10324,0.0892 0.0289,0.26024 0.19591,0.44607 0.26081,0.69296 0.0435,0.32221 0.18436,0.61157 0.24867,0.92966 0.0408,0.16894 0.0641,0.33974 0.0697,0.51488 -0.0103,0.38154 0.0582,0.74612 0.14065,1.11394 0.0323,0.23032 0.0843,0.45852 0.0996,0.69119 0.13539,-0.37424 -0.14595,0.48126 -0.15375,0.51241 0.004,0.0402 -0.14545,0.57868 -0.0483,0.41211 -0.096,0.16075 -0.17381,0.3466 -0.23019,0.53306 -0.0227,0.16091 -0.0366,0.23433 -0.12512,0.36555 0,0 5.78108,3.77439 5.78108,3.77439 v 0 c 0.0997,-0.18381 0.24223,-0.37953 0.24023,-0.59884 0.0172,-0.14026 0.0799,-0.2723 0.16002,-0.39019 0.0965,-0.20394 0.10349,-0.3398 0.10925,-0.56653 0.0302,-0.25616 0.14686,-0.47054 0.25317,-0.69602 -0.014,-0.27253 -0.0302,-0.5401 -0.0943,-0.80586 -0.0512,-0.33067 -0.1855,-0.63599 -0.16364,-0.9673 6e-4,-0.21739 0.0154,-0.43945 -0.0224,-0.65348 -0.0575,-0.30929 -0.0827,-0.66135 -0.25242,-0.92046 -0.031,-0.26202 -0.0231,-0.5773 -0.21823,-0.76024 -0.01,-0.0971 -2.5e-4,-0.1985 -0.0274,-0.29133 -0.0653,-0.22315 -0.30487,-0.38135 -0.38088,-0.59961 -0.41971,-0.44719 -0.65622,-1.07979 -0.98369,-1.60703 z" transform="rotate(180 319.68314 118.58103)" />
        <path style="fill:#44d4f1;fill-opacity:0.9;stroke:#44d4f1;stroke-width:0.468801;stroke-linejoin:round;stroke-opacity:0.9" d="m 321.43643,121.17327 c 0.32694,0.5645 0.66605,1.12087 0.97112,1.70056 0.15238,0.1387 0.20999,0.38696 0.3504,0.53444 0.2138,0.22459 -0.0639,-0.13727 0.10324,0.0892 0.0289,0.26024 0.19591,0.44607 0.26081,0.69296 0.0435,0.32221 0.18436,0.61157 0.24867,0.92966 0.0408,0.16894 0.0641,0.33974 0.0697,0.51488 -0.0103,0.38154 0.0582,0.74612 0.14065,1.11394 0.0323,0.23032 0.0843,0.45852 0.0996,0.69119 0.13539,-0.37424 -0.14595,0.48126 -0.15375,0.51241 0.004,0.0402 -0.14545,0.57868 -0.0483,0.41211 -0.096,0.16075 -0.17381,0.3466 -0.23019,0.53306 -0.0227,0.16091 -0.0366,0.23433 -0.12512,0.36555 0,0 5.78108,3.77439 5.78108,3.77439 v 0 c 0.0997,-0.18381 0.24223,-0.37953 0.24023,-0.59884 0.0172,-0.14026 0.0799,-0.2723 0.16002,-0.39019 0.0965,-0.20394 0.10349,-0.3398 0.10925,-0.56653 0.0302,-0.25616 0.14686,-0.47054 0.25317,-0.69602 -0.014,-0.27253 -0.0302,-0.5401 -0.0943,-0.80586 -0.0512,-0.33067 -0.1855,-0.63599 -0.16364,-0.9673 6e-4,-0.21739 0.0154,-0.43945 -0.0224,-0.65348 -0.0575,-0.30929 -0.0827,-0.66135 -0.25242,-0.92046 -0.031,-0.26202 -0.0231,-0.5773 -0.21823,-0.76024 -0.01,-0.0971 -2.5e-4,-0.1985 -0.0274,-0.29133 -0.0653,-0.22315 -0.30487,-0.38135 -0.38088,-0.59961 -0.41971,-0.44719 -0.65622,-1.07979 -0.98369,-1.60703 z" transform="rotate(240 319.68314 118.58103)" />
        <path style="fill:#44d4f1;fill-opacity:0.9;stroke:#44d4f1;stroke-width:0.468801;stroke-linejoin:round;stroke-opacity:0.9" d="m 321.43643,121.17327 c 0.32694,0.5645 0.66605,1.12087 0.97112,1.70056 0.15238,0.1387 0.20999,0.38696 0.3504,0.53444 0.2138,0.22459 -0.0639,-0.13727 0.10324,0.0892 0.0289,0.26024 0.19591,0.44607 0.26081,0.69296 0.0435,0.32221 0.18436,0.61157 0.24867,0.92966 0.0408,0.16894 0.0641,0.33974 0.0697,0.51488 -0.0103,0.38154 0.0582,0.74612 0.14065,1.11394 0.0323,0.23032 0.0843,0.45852 0.0996,0.69119 0.13539,-0.37424 -0.14595,0.48126 -0.15375,0.51241 0.004,0.0402 -0.14545,0.57868 -0.0483,0.41211 -0.096,0.16075 -0.17381,0.3466 -0.23019,0.53306 -0.0227,0.16091 -0.0366,0.23433 -0.12512,0.36555 0,0 5.78108,3.77439 5.78108,3.77439 v 0 c 0.0997,-0.18381 0.24223,-0.37953 0.24023,-0.59884 0.0172,-0.14026 0.0799,-0.2723 0.16002,-0.39019 0.0965,-0.20394 0.10349,-0.3398 0.10925,-0.56653 0.0302,-0.25616 0.14686,-0.47054 0.25317,-0.69602 -0.014,-0.27253 -0.0302,-0.5401 -0.0943,-0.80586 -0.0512,-0.33067 -0.1855,-0.63599 -0.16364,-0.9673 6e-4,-0.21739 0.0154,-0.43945 -0.0224,-0.65348 -0.0575,-0.30929 -0.0827,-0.66135 -0.25242,-0.92046 -0.031,-0.26202 -0.0231,-0.5773 -0.21823,-0.76024 -0.01,-0.0971 -2.5e-4,-0.1985 -0.0274,-0.29133 -0.0653,-0.22315 -0.30487,-0.38135 -0.38088,-0.59961 -0.41971,-0.44719 -0.65622,-1.07979 -0.98369,-1.60703 z" transform="rotate(300 319.68314 118.58103)" />
      </g>
      <path
       d="m 677.27273,98.61224 a 19.78215,19.782152 0 0 0 -19.7817,19.7817 19.78215,19.782152 0 0 0 19.7817,19.7817 19.78215,19.782152 0 0 0 19.7817,-19.7817 19.78215,19.782152 0 0 0 -19.7817,-19.7817 z m 0,2.8081 a 16.973847,16.973846 0 0 1 16.9736,16.9736 16.973847,16.973846 0 0 1 -16.9736,16.9736 16.973847,16.973846 0 0 1 -16.9736,-16.9736 16.973847,16.973846 0 0 1 16.9736,-16.9736 z"
       style="fill:#ffffff;stroke:#000000;stroke-width:0.436604;stroke-linejoin:round"
       id="path32" /><path
       d="m 76.702918,101.38646 a 16.973846,16.973847 0 0 0 -16.973601,16.9736 16.973846,16.973847 0 0 0 16.973601,16.9736 16.973846,16.973847 0 0 0 16.973597,-16.9736 16.973846,16.973847 0 0 0 -16.973597,-16.9736 z m 0,14.1443 a 2.8289741,2.8289745 0 0 1 2.829305,2.8293 2.8289741,2.8289745 0 0 1 -2.829305,2.82931 2.8289741,2.8289745 0 0 1 -2.829304,-2.82931 2.8289741,2.8289745 0 0 1 2.829304,-2.8293 z"
       style="fill:none;fill-opacity:0.9;stroke:#000000;stroke-width:0.338798;stroke-linejoin:round;stroke-opacity:1"
       id="path19-4-0-1" /><path
      style="fill:#44d4f1;fill-opacity:0.9;fill-rule:nonzero;stroke:#44d4f1;stroke-width:0.44202;stroke-linejoin:round;stroke-dasharray:none;stroke-dashoffset:0;stroke-opacity:0.9;display:none"
       id="path28-9-4-1"
       d="m 78.349293,120.70659 c 0.30827,0.53224 0.628009,1.05682 0.915649,1.60341 0.143678,0.13077 0.197994,0.36485 0.330379,0.50391 0.201593,0.21175 -0.06021,-0.12943 0.09735,0.0841 0.02726,0.24537 0.184717,0.42059 0.245913,0.65337 0.04102,0.30381 0.173833,0.57664 0.234469,0.87656 0.0384,0.15929 0.06045,0.32033 0.06573,0.48547 -0.0097,0.35974 0.05491,0.7035 0.132615,1.0503 0.0304,0.21716 0.07945,0.43233 0.09392,0.65172 0.127654,-0.35286 -0.137616,0.45376 -0.144975,0.48312 0.004,0.0379 -0.137135,0.54564 -0.04555,0.38858 -0.09053,0.15157 -0.163884,0.3268 -0.217045,0.50261 -0.02137,0.15172 -0.03446,0.22094 -0.117974,0.34467 0,0 5.450843,3.55878 5.450843,3.55878 v 0 c 0.09401,-0.17331 0.228389,-0.35786 0.226502,-0.56463 0.01623,-0.13225 0.07535,-0.25675 0.150879,-0.36791 0.091,-0.19229 0.09758,-0.32038 0.103013,-0.53417 0.02846,-0.24152 0.138472,-0.44365 0.238708,-0.65625 -0.01314,-0.25696 -0.02846,-0.50925 -0.08889,-0.75984 -0.04822,-0.31176 -0.1749,-0.59964 -0.154294,-0.91203 5.71e-4,-0.20497 0.01452,-0.41435 -0.02114,-0.61615 -0.05423,-0.29162 -0.07802,-0.62358 -0.238006,-0.86788 -0.02926,-0.24706 -0.02182,-0.54433 -0.205769,-0.71681 -0.009,-0.0915 -2.35e-4,-0.18717 -0.02583,-0.27469 -0.06156,-0.2104 -0.287453,-0.35956 -0.359117,-0.56536 -0.395741,-0.42165 -0.61874,-1.01811 -0.927502,-1.51523 z" /><path
      style="fill:#44d4f1;fill-opacity:0.9;fill-rule:nonzero;stroke:#44d4f1;stroke-width:0.44202;stroke-linejoin:round;stroke-dasharray:none;stroke-dashoffset:0;stroke-opacity:0.9;display:none"
       id="path28-67-2-5-5"
       d="m 79.407295,117.22308 c 0.53224,-0.30827 1.056829,-0.62801 1.603407,-0.91565 0.13078,-0.14368 0.36486,-0.198 0.503909,-0.33038 0.211758,-0.2016 -0.129426,0.0602 0.08413,-0.0974 0.245377,-0.0273 0.420593,-0.18472 0.653375,-0.24591 0.303801,-0.041 0.576635,-0.17383 0.876551,-0.23446 0.159296,-0.0384 0.320332,-0.0605 0.485474,-0.0658 0.359745,0.01 0.703502,-0.055 1.050304,-0.13262 0.217165,-0.0304 0.432323,-0.0794 0.651711,-0.0939 -0.352859,-0.12766 0.453765,0.13761 0.483132,0.14497 0.03794,-0.004 0.545628,0.13714 0.388574,0.0455 0.151564,0.0905 0.326802,0.16389 0.502606,0.21705 0.151717,0.0214 0.220942,0.0345 0.34467,0.11798 0,0 3.558784,-5.45085 3.558784,-5.45085 v 0 c -0.173312,-0.094 -0.35786,-0.22838 -0.56463,-0.2265 -0.132254,-0.0162 -0.256749,-0.0754 -0.367911,-0.15088 -0.192284,-0.091 -0.320379,-0.0976 -0.534167,-0.103 -0.241525,-0.0285 -0.443655,-0.13848 -0.656254,-0.23872 -0.256961,0.0131 -0.509252,0.0285 -0.759835,0.0889 -0.311773,0.0482 -0.599653,0.1749 -0.912032,0.1543 -0.204976,-5.8e-4 -0.414352,-0.0145 -0.616151,0.0211 -0.291624,0.0542 -0.62358,0.078 -0.867883,0.23801 -0.247051,0.0293 -0.544327,0.0218 -0.71681,0.20576 -0.09152,0.009 -0.187165,2.4e-4 -0.274692,0.0258 -0.210399,0.0615 -0.359563,0.28745 -0.56535,0.35912 -0.421656,0.39574 -1.018114,0.61873 -1.51524,0.9275 z" /><path
      style="fill:#44d4f1;fill-opacity:0.9;fill-rule:nonzero;stroke:#44d4f1;stroke-width:0.44202;stroke-linejoin:round;stroke-dasharray:none;stroke-dashoffset:0;stroke-opacity:0.9;display:none"
       id="path28-67-4-9-7-0"
       d="m 75.16381,120.81104 c -0.532241,0.30827 -1.05683,0.62801 -1.603409,0.91565 -0.13078,0.14367 -0.364859,0.19799 -0.503908,0.33037 -0.211759,0.2016 0.129426,-0.0602 -0.08413,0.0974 -0.245377,0.0273 -0.420592,0.18472 -0.653376,0.24592 -0.3038,0.041 -0.576636,0.17383 -0.876551,0.23446 -0.159294,0.0384 -0.320332,0.0605 -0.485473,0.0658 -0.359746,-0.01 -0.703501,0.055 -1.050304,0.13262 -0.217165,0.0304 -0.432324,0.0794 -0.651712,0.0939 0.352859,0.12765 -0.453765,-0.13762 -0.483131,-0.14498 -0.03794,0.004 -0.54563,-0.13713 -0.388575,-0.0455 -0.151563,-0.0905 -0.326801,-0.16388 -0.502605,-0.21704 -0.151718,-0.0214 -0.220943,-0.0345 -0.344671,-0.11797 0,0 -3.558783,5.45085 -3.558783,5.45085 v 0 c 0.173313,0.094 0.357859,0.22838 0.564629,0.22649 0.132256,0.0162 0.256749,0.0754 0.367913,0.15088 0.192284,0.091 0.320377,0.0976 0.534165,0.10301 0.241526,0.0285 0.443656,0.13848 0.656255,0.23871 0.25696,-0.0131 0.509252,-0.0285 0.759834,-0.0889 0.311773,-0.0482 0.599654,-0.1749 0.912033,-0.15429 0.204975,5.7e-4 0.414352,0.0145 0.61615,-0.0211 0.291624,-0.0542 0.623581,-0.078 0.867883,-0.23801 0.247051,-0.0293 0.544327,-0.0218 0.71681,-0.20578 0.09152,-0.009 0.187165,-2.3e-4 0.274693,-0.0258 0.210399,-0.0615 0.359562,-0.28744 0.56535,-0.35911 0.421654,-0.39574 1.018114,-0.61873 1.515239,-0.9275 z" /><path
      style="fill:#44d4f1;fill-opacity:0.9;fill-rule:nonzero;stroke:#44d4f1;stroke-width:0.44202;stroke-linejoin:round;stroke-dasharray:none;stroke-dashoffset:0;stroke-opacity:0.9;display:none"
       id="path28-6-1-1-0"
       d="m 74.838785,116.15875 c -0.30827,-0.53224 -0.628009,-1.05683 -0.915649,-1.60341 -0.143679,-0.13078 -0.197994,-0.36486 -0.330379,-0.50391 -0.201593,-0.21176 0.06021,0.12943 -0.09735,-0.0841 -0.02726,-0.24537 -0.184719,-0.4206 -0.245915,-0.65337 -0.04102,-0.3038 -0.173832,-0.57664 -0.234468,-0.87656 -0.03841,-0.15929 -0.06045,-0.32033 -0.06572,-0.48547 0.0097,-0.35975 -0.05492,-0.7035 -0.132615,-1.0503 -0.0304,-0.21717 -0.07945,-0.43233 -0.09392,-0.65171 -0.127655,0.35285 0.137614,-0.45377 0.144974,-0.48314 -0.004,-0.0379 0.137135,-0.54562 0.04555,-0.38857 0.09053,-0.15157 0.163884,-0.32681 0.217045,-0.50261 0.02137,-0.15172 0.03446,-0.22094 0.117974,-0.34467 0,0 -5.450843,-3.55878 -5.450843,-3.55878 v 0 c -0.09401,0.17331 -0.228389,0.35785 -0.226502,0.56463 -0.01623,0.13226 -0.07535,0.25674 -0.150879,0.36791 -0.091,0.19228 -0.09758,0.32038 -0.103013,0.53416 -0.02846,0.24153 -0.138472,0.44367 -0.238708,0.65627 0.01314,0.25695 0.02846,0.50924 0.08889,0.75983 0.04822,0.31177 0.174901,0.59965 0.154295,0.91203 -5.72e-4,0.20498 -0.01452,0.41435 0.02114,0.61614 0.05423,0.29164 0.07802,0.62359 0.238005,0.86789 0.02926,0.24705 0.02182,0.54433 0.20577,0.71682 0.009,0.0915 2.34e-4,0.18716 0.02583,0.27469 0.06156,0.2104 0.287452,0.35956 0.359117,0.56535 0.39574,0.42165 0.618739,1.01811 0.927501,1.51523 z" /><circle
       style="fill:#ffffff;fill-opacity:1;fill-rule:nonzero;stroke:#000000;stroke-width:0.363926;stroke-linejoin:round;stroke-dasharray:none;stroke-dashoffset:0;stroke-opacity:1"
       id="path30-6-8"
       cx="76.708939"
       cy="118.48211"
      r="2.6752443" />
      <g id="fan-blades-4" data-running-status="off">
        <animateTransform id="fan-animate-4" attributeName="transform" type="rotate" from="0 76.708939 118.48211" to="-360 76.708939 118.48211" dur="2s" repeatCount="indefinite" begin="indefinite" />
        <path style="fill:#44d4f1;fill-opacity:0.9;stroke:#44d4f1;stroke-width:0.44202;stroke-linejoin:round;stroke-opacity:0.9" d="m 78.349293,120.70659 c 0.30827,0.53224 0.628009,1.05682 0.915649,1.60341 0.143678,0.13077 0.197994,0.36485 0.330379,0.50391 0.201593,0.21175 -0.06021,-0.12943 0.09735,0.0841 0.02726,0.24537 0.184717,0.42059 0.245913,0.65337 0.04102,0.30381 0.173833,0.57664 0.234469,0.87656 0.0384,0.15929 0.06045,0.32033 0.06573,0.48547 -0.0097,0.35974 0.05491,0.7035 0.132615,1.0503 0.0304,0.21716 0.07945,0.43233 0.09392,0.65172 0.127654,-0.35286 -0.137616,0.45376 -0.144975,0.48312 0.004,0.0379 -0.137135,0.54564 -0.04555,0.38858 -0.09053,0.15157 -0.163884,0.3268 -0.217045,0.50261 -0.02137,0.15172 -0.03446,0.22094 -0.117974,0.34467 0,0 5.450843,3.55878 5.450843,3.55878 v 0 c 0.09401,-0.17331 0.228389,-0.35786 0.226502,-0.56463 0.01623,-0.13225 0.07535,-0.25675 0.150879,-0.36791 0.091,-0.19229 0.09758,-0.32038 0.103013,-0.53417 0.02846,-0.24152 0.138472,-0.44365 0.238708,-0.65625 -0.01314,-0.25696 -0.02846,-0.50925 -0.08889,-0.75984 -0.04822,-0.31176 -0.1749,-0.59964 -0.154294,-0.91203 5.71e-4,-0.20497 0.01452,-0.41435 -0.02114,-0.61615 -0.05423,-0.29162 -0.07802,-0.62358 -0.238006,-0.86788 -0.02926,-0.24706 -0.02182,-0.54433 -0.205769,-0.71681 -0.009,-0.0915 -2.35e-4,-0.18717 -0.02583,-0.27469 -0.06156,-0.2104 -0.287453,-0.35956 -0.359117,-0.56536 -0.395741,-0.42165 -0.61874,-1.01811 -0.927502,-1.51523 z" />
        <path style="fill:#44d4f1;fill-opacity:0.9;stroke:#44d4f1;stroke-width:0.44202;stroke-linejoin:round;stroke-opacity:0.9" d="m 78.349293,120.70659 c 0.30827,0.53224 0.628009,1.05682 0.915649,1.60341 0.143678,0.13077 0.197994,0.36485 0.330379,0.50391 0.201593,0.21175 -0.06021,-0.12943 0.09735,0.0841 0.02726,0.24537 0.184717,0.42059 0.245913,0.65337 0.04102,0.30381 0.173833,0.57664 0.234469,0.87656 0.0384,0.15929 0.06045,0.32033 0.06573,0.48547 -0.0097,0.35974 0.05491,0.7035 0.132615,1.0503 0.0304,0.21716 0.07945,0.43233 0.09392,0.65172 0.127654,-0.35286 -0.137616,0.45376 -0.144975,0.48312 0.004,0.0379 -0.137135,0.54564 -0.04555,0.38858 -0.09053,0.15157 -0.163884,0.3268 -0.217045,0.50261 -0.02137,0.15172 -0.03446,0.22094 -0.117974,0.34467 0,0 5.450843,3.55878 5.450843,3.55878 v 0 c 0.09401,-0.17331 0.228389,-0.35786 0.226502,-0.56463 0.01623,-0.13225 0.07535,-0.25675 0.150879,-0.36791 0.091,-0.19229 0.09758,-0.32038 0.103013,-0.53417 0.02846,-0.24152 0.138472,-0.44365 0.238708,-0.65625 -0.01314,-0.25696 -0.02846,-0.50925 -0.08889,-0.75984 -0.04822,-0.31176 -0.1749,-0.59964 -0.154294,-0.91203 5.71e-4,-0.20497 0.01452,-0.41435 -0.02114,-0.61615 -0.05423,-0.29162 -0.07802,-0.62358 -0.238006,-0.86788 -0.02926,-0.24706 -0.02182,-0.54433 -0.205769,-0.71681 -0.009,-0.0915 -2.35e-4,-0.18717 -0.02583,-0.27469 -0.06156,-0.2104 -0.287453,-0.35956 -0.359117,-0.56536 -0.395741,-0.42165 -0.61874,-1.01811 -0.927502,-1.51523 z" transform="rotate(60 76.708939 118.48211)" />
        <path style="fill:#44d4f1;fill-opacity:0.9;stroke:#44d4f1;stroke-width:0.44202;stroke-linejoin:round;stroke-opacity:0.9" d="m 78.349293,120.70659 c 0.30827,0.53224 0.628009,1.05682 0.915649,1.60341 0.143678,0.13077 0.197994,0.36485 0.330379,0.50391 0.201593,0.21175 -0.06021,-0.12943 0.09735,0.0841 0.02726,0.24537 0.184717,0.42059 0.245913,0.65337 0.04102,0.30381 0.173833,0.57664 0.234469,0.87656 0.0384,0.15929 0.06045,0.32033 0.06573,0.48547 -0.0097,0.35974 0.05491,0.7035 0.132615,1.0503 0.0304,0.21716 0.07945,0.43233 0.09392,0.65172 0.127654,-0.35286 -0.137616,0.45376 -0.144975,0.48312 0.004,0.0379 -0.137135,0.54564 -0.04555,0.38858 -0.09053,0.15157 -0.163884,0.3268 -0.217045,0.50261 -0.02137,0.15172 -0.03446,0.22094 -0.117974,0.34467 0,0 5.450843,3.55878 5.450843,3.55878 v 0 c 0.09401,-0.17331 0.228389,-0.35786 0.226502,-0.56463 0.01623,-0.13225 0.07535,-0.25675 0.150879,-0.36791 0.091,-0.19229 0.09758,-0.32038 0.103013,-0.53417 0.02846,-0.24152 0.138472,-0.44365 0.238708,-0.65625 -0.01314,-0.25696 -0.02846,-0.50925 -0.08889,-0.75984 -0.04822,-0.31176 -0.1749,-0.59964 -0.154294,-0.91203 5.71e-4,-0.20497 0.01452,-0.41435 -0.02114,-0.61615 -0.05423,-0.29162 -0.07802,-0.62358 -0.238006,-0.86788 -0.02926,-0.24706 -0.02182,-0.54433 -0.205769,-0.71681 -0.009,-0.0915 -2.35e-4,-0.18717 -0.02583,-0.27469 -0.06156,-0.2104 -0.287453,-0.35956 -0.359117,-0.56536 -0.395741,-0.42165 -0.61874,-1.01811 -0.927502,-1.51523 z" transform="rotate(120 76.708939 118.48211)" />
        <path style="fill:#44d4f1;fill-opacity:0.9;stroke:#44d4f1;stroke-width:0.44202;stroke-linejoin:round;stroke-opacity:0.9" d="m 78.349293,120.70659 c 0.30827,0.53224 0.628009,1.05682 0.915649,1.60341 0.143678,0.13077 0.197994,0.36485 0.330379,0.50391 0.201593,0.21175 -0.06021,-0.12943 0.09735,0.0841 0.02726,0.24537 0.184717,0.42059 0.245913,0.65337 0.04102,0.30381 0.173833,0.57664 0.234469,0.87656 0.0384,0.15929 0.06045,0.32033 0.06573,0.48547 -0.0097,0.35974 0.05491,0.7035 0.132615,1.0503 0.0304,0.21716 0.07945,0.43233 0.09392,0.65172 0.127654,-0.35286 -0.137616,0.45376 -0.144975,0.48312 0.004,0.0379 -0.137135,0.54564 -0.04555,0.38858 -0.09053,0.15157 -0.163884,0.3268 -0.217045,0.50261 -0.02137,0.15172 -0.03446,0.22094 -0.117974,0.34467 0,0 5.450843,3.55878 5.450843,3.55878 v 0 c 0.09401,-0.17331 0.228389,-0.35786 0.226502,-0.56463 0.01623,-0.13225 0.07535,-0.25675 0.150879,-0.36791 0.091,-0.19229 0.09758,-0.32038 0.103013,-0.53417 0.02846,-0.24152 0.138472,-0.44365 0.238708,-0.65625 -0.01314,-0.25696 -0.02846,-0.50925 -0.08889,-0.75984 -0.04822,-0.31176 -0.1749,-0.59964 -0.154294,-0.91203 5.71e-4,-0.20497 0.01452,-0.41435 -0.02114,-0.61615 -0.05423,-0.29162 -0.07802,-0.62358 -0.238006,-0.86788 -0.02926,-0.24706 -0.02182,-0.54433 -0.205769,-0.71681 -0.009,-0.0915 -2.35e-4,-0.18717 -0.02583,-0.27469 -0.06156,-0.2104 -0.287453,-0.35956 -0.359117,-0.56536 -0.395741,-0.42165 -0.61874,-1.01811 -0.927502,-1.51523 z" transform="rotate(180 76.708939 118.48211)" />
        <path style="fill:#44d4f1;fill-opacity:0.9;stroke:#44d4f1;stroke-width:0.44202;stroke-linejoin:round;stroke-opacity:0.9" d="m 78.349293,120.70659 c 0.30827,0.53224 0.628009,1.05682 0.915649,1.60341 0.143678,0.13077 0.197994,0.36485 0.330379,0.50391 0.201593,0.21175 -0.06021,-0.12943 0.09735,0.0841 0.02726,0.24537 0.184717,0.42059 0.245913,0.65337 0.04102,0.30381 0.173833,0.57664 0.234469,0.87656 0.0384,0.15929 0.06045,0.32033 0.06573,0.48547 -0.0097,0.35974 0.05491,0.7035 0.132615,1.0503 0.0304,0.21716 0.07945,0.43233 0.09392,0.65172 0.127654,-0.35286 -0.137616,0.45376 -0.144975,0.48312 0.004,0.0379 -0.137135,0.54564 -0.04555,0.38858 -0.09053,0.15157 -0.163884,0.3268 -0.217045,0.50261 -0.02137,0.15172 -0.03446,0.22094 -0.117974,0.34467 0,0 5.450843,3.55878 5.450843,3.55878 v 0 c 0.09401,-0.17331 0.228389,-0.35786 0.226502,-0.56463 0.01623,-0.13225 0.07535,-0.25675 0.150879,-0.36791 0.091,-0.19229 0.09758,-0.32038 0.103013,-0.53417 0.02846,-0.24152 0.138472,-0.44365 0.238708,-0.65625 -0.01314,-0.25696 -0.02846,-0.50925 -0.08889,-0.75984 -0.04822,-0.31176 -0.1749,-0.59964 -0.154294,-0.91203 5.71e-4,-0.20497 0.01452,-0.41435 -0.02114,-0.61615 -0.05423,-0.29162 -0.07802,-0.62358 -0.238006,-0.86788 -0.02926,-0.24706 -0.02182,-0.54433 -0.205769,-0.71681 -0.009,-0.0915 -2.35e-4,-0.18717 -0.02583,-0.27469 -0.06156,-0.2104 -0.287453,-0.35956 -0.359117,-0.56536 -0.395741,-0.42165 -0.61874,-1.01811 -0.927502,-1.51523 z" transform="rotate(240 76.708939 118.48211)" />
        <path style="fill:#44d4f1;fill-opacity:0.9;stroke:#44d4f1;stroke-width:0.44202;stroke-linejoin:round;stroke-opacity:0.9" d="m 78.349293,120.70659 c 0.30827,0.53224 0.628009,1.05682 0.915649,1.60341 0.143678,0.13077 0.197994,0.36485 0.330379,0.50391 0.201593,0.21175 -0.06021,-0.12943 0.09735,0.0841 0.02726,0.24537 0.184717,0.42059 0.245913,0.65337 0.04102,0.30381 0.173833,0.57664 0.234469,0.87656 0.0384,0.15929 0.06045,0.32033 0.06573,0.48547 -0.0097,0.35974 0.05491,0.7035 0.132615,1.0503 0.0304,0.21716 0.07945,0.43233 0.09392,0.65172 0.127654,-0.35286 -0.137616,0.45376 -0.144975,0.48312 0.004,0.0379 -0.137135,0.54564 -0.04555,0.38858 -0.09053,0.15157 -0.163884,0.3268 -0.217045,0.50261 -0.02137,0.15172 -0.03446,0.22094 -0.117974,0.34467 0,0 5.450843,3.55878 5.450843,3.55878 v 0 c 0.09401,-0.17331 0.228389,-0.35786 0.226502,-0.56463 0.01623,-0.13225 0.07535,-0.25675 0.150879,-0.36791 0.091,-0.19229 0.09758,-0.32038 0.103013,-0.53417 0.02846,-0.24152 0.138472,-0.44365 0.238708,-0.65625 -0.01314,-0.25696 -0.02846,-0.50925 -0.08889,-0.75984 -0.04822,-0.31176 -0.1749,-0.59964 -0.154294,-0.91203 5.71e-4,-0.20497 0.01452,-0.41435 -0.02114,-0.61615 -0.05423,-0.29162 -0.07802,-0.62358 -0.238006,-0.86788 -0.02926,-0.24706 -0.02182,-0.54433 -0.205769,-0.71681 -0.009,-0.0915 -2.35e-4,-0.18717 -0.02583,-0.27469 -0.06156,-0.2104 -0.287453,-0.35956 -0.359117,-0.56536 -0.395741,-0.42165 -0.61874,-1.01811 -0.927502,-1.51523 z" transform="rotate(300 76.708939 118.48211)" />
      </g>
      <path
       d="m 76.818184,98.61224 a 19.782149,19.782152 0 0 0 -19.781699,19.7817 19.782149,19.782152 0 0 0 19.781699,19.7817 19.782149,19.782152 0 0 0 19.7817,-19.7817 19.782149,19.782152 0 0 0 -19.7817,-19.7817 z m 0,2.8081 a 16.973846,16.973847 0 0 1 16.973596,16.9736 16.973846,16.973847 0 0 1 -16.973596,16.9736 16.973846,16.973847 0 0 1 -16.973602,-16.9736 16.973846,16.973847 0 0 1 16.973602,-16.9736 z"
       style="fill:#ffffff;stroke:#000000;stroke-width:0.436604;stroke-linejoin:round"
       id="path32-3" /><rect
       style="fill:url(#linearGradient33);fill-rule:nonzero;stroke:none;stroke-width:0.859718;stroke-linejoin:round;stroke-dasharray:none;stroke-dashoffset:0;stroke-opacity:1"
       id="rect32"
       width="26.004505"
       height="34.33062"
       x="397.08749"
       y="36.648979" /><path
       d="m 574.58877,92.990764 h -7.95945 V 68.82726 H 423.24381 v -5.774688 h 151.34496 z"
       style="fill:#283f7b;fill-opacity:0.196262;stroke:#3caadc;stroke-width:0.845924;stroke-linejoin:round;stroke-opacity:0.9"
       id="path40-5" /><path
       d="m 184.65453,142.85565 h 7.95944 v 24.1635 h 143.38551 v 5.77469 H 184.65453 Z"
       style="fill:#d2cd53;fill-opacity:0.196078;stroke:#e0bb2d;stroke-width:0.845924;stroke-linejoin:round;stroke-opacity:0.9"
       id="path40-5-7" /><rect
       style="fill:url(#linearGradient38);fill-rule:nonzero;stroke:none;stroke-width:0.588681;stroke-linejoin:round;stroke-dasharray:none;stroke-dashoffset:0;stroke-opacity:1"
       id="rect32-5"
       width="13.078331"
       height="32.005543"
       x="59.36908"
       y="-501.63199"
       transform="rotate(90)" /><rect
       style="fill:url(#linearGradient39);fill-rule:nonzero;stroke:none;stroke-width:0.588681;stroke-linejoin:round;stroke-dasharray:none;stroke-dashoffset:0;stroke-opacity:1"
       id="rect32-5-0"
       width="13.078332"
       height="32.005543"
       x="163.58565"
       y="-301.28763"
       transform="rotate(90)" /><rect
       style="fill:url(#linearGradient37);fill-rule:nonzero;stroke:none;stroke-width:0.859718;stroke-linejoin:round;stroke-dasharray:none;stroke-dashoffset:0;stroke-opacity:1"
       id="rect32-4"
       width="26.004505"
       height="34.330624"
       x="334.68591"
       y="165.05238" /><path
       d="m 502.29409,5.31047 v 5.774459 h 8.27682 v 3.737345 h 7.96036 v -3.737345 h 9.42546 V 5.31047 h -9.42546 -7.96036 z"
       style="fill:#14e7eb;fill-opacity:1;stroke:none;stroke-width:0.902369;stroke-linejoin:round;stroke-opacity:0.9"
       id="path41" /><path
       d="m 558.40938,93.856084 v -5.774459 h 8.27682 v -3.737354 h 7.96036 v 3.737354 h 9.42546 v 5.774459 h -9.42546 -7.96036 z"
       style="fill:#14e7eb;fill-opacity:1;stroke:none;stroke-width:0.902369;stroke-linejoin:round;stroke-opacity:0.9"
       id="path41-4" /><path
       d="m 235.48501,231.46608 v -5.77446 h 8.27682 v -3.73736 h 7.96036 v 3.73736 h 9.42547 v 5.77446 h -9.42547 -7.96036 z"
       style="fill:#e0bb2d;fill-opacity:0.9;stroke:none;stroke-width:0.902369;stroke-linejoin:round;stroke-opacity:0.9"
       id="path41-4-3" /><path
       d="m 176.73799,142.83895 v 5.77446 h 8.27683 v 3.73736 h 7.96036 v -3.73736 h 9.42546 v -5.77446 h -9.42546 -7.96036 z"
       style="fill:#e0bb2d;fill-opacity:0.9;stroke:none;stroke-width:0.902369;stroke-linejoin:round;stroke-opacity:0.9"
      id="path41-4-3-1" /><g id="arrow-group" data-running-status="off" style="visibility: hidden"><path
      id="path89"
      style="fill:#e0bb2d;fill-opacity:0.9;stroke-width:0.183746;stroke-linejoin:round;stroke-opacity:0.9"
      d="m 271.65924,143.21313 -7.77674,2.25742 -0.22465,0.0144 8.00139,2.63258 v -1.68747 h -0.041 v -1.63479 h 0.041 z m -0.18766,1.58211 v 1.63479 h 12.96124 v -1.63479 z" ><animateTransform attributeName="transform" type="translate" from="0,0" to="-80,0" dur="2s" repeatCount="indefinite" begin="indefinite" calcMode="linear" />
      <animate attributeName="opacity" values="0;1;1;0;0" dur="2s" repeatCount="indefinite" begin="indefinite" calcMode="linear" />
    </path><path
      id="path89-4"
      style="fill:#e0bb2d;fill-opacity:0.9;stroke-width:0.183746;stroke-linejoin:round;stroke-opacity:0.9"
      d="m 249.37391,167.59104 -7.77674,2.25741 -0.22465,0.0144 8.00139,2.63259 v -1.68748 h -0.041 v -1.63479 h 0.041 z m -0.18766,1.58211 v 1.63479 h 12.96124 v -1.63479 z" ><animateTransform attributeName="transform" type="translate" from="0,0" to="-80,0" dur="2s" repeatCount="indefinite" begin="indefinite" calcMode="linear" />
      <animate attributeName="opacity" values="0;1;1;0;0" dur="2s" repeatCount="indefinite" begin="indefinite" calcMode="linear" />
    </path><path
      id="path89-07"
      style="fill:#e0bb2d;fill-opacity:0.9;stroke-width:0.183746;stroke-linejoin:round;stroke-opacity:0.9"
      d="m 103.63228,186.63684 2.7622,6.35557 0.0176,0.1836 3.22127,-6.53917 h -2.06482 v 0.0335 h -2.00034 v -0.0335 z m 1.93589,0.15336 h 2.00034 v -10.59262 h -2.00034 z" ><animateTransform attributeName="transform" type="translate" from="0,0" to="0,50" dur="2s" repeatCount="indefinite" begin="indefinite" calcMode="linear" />
      <animate attributeName="opacity" values="0;1;1;0;0" dur="2s" repeatCount="indefinite" begin="indefinite" calcMode="linear" />
    </path><path
      id="path89-07-2"
      style="fill:#e0bb2d;fill-opacity:0.9;stroke-width:0.183746;stroke-linejoin:round;stroke-opacity:0.9"
      d="m 644.80843,190.28681 2.7622,-6.35557 0.0176,-0.18359 3.22127,6.53916 h -2.06482 v -0.0335 h -2.00034 v 0.0335 z m 1.93589,-0.15336 h 2.00034 v 10.59263 h -2.00034 z" ><animateTransform attributeName="transform" type="translate" from="0,0" to="0,-50" dur="2s" repeatCount="indefinite" begin="indefinite" calcMode="linear" />
      <animate attributeName="opacity" values="0;1;1;0;0" dur="2s" repeatCount="indefinite" begin="indefinite" calcMode="linear" />
    </path><path
      id="path89-0"
      style="fill:#e0bb2d;fill-opacity:0.9;stroke-width:0.183746;stroke-linejoin:round;stroke-opacity:0.9"
      d="m 452.85885,143.11756 -7.77673,2.25742 -0.22465,0.0144 8.00138,2.63258 v -1.68747 h -0.041 v -1.63479 h 0.041 z m -0.18765,1.58211 v 1.63479 h 12.96124 v -1.63479 z" ><animateTransform attributeName="transform" type="translate" from="0,0" to="-80,0" dur="2s" repeatCount="indefinite" begin="indefinite" calcMode="linear" />
      <animate attributeName="opacity" values="0;1;1;0;0" dur="2s" repeatCount="indefinite" begin="indefinite" calcMode="linear" />
    </path><path
      id="path89-7"
      style="fill:#e0bb2d;fill-opacity:0.9;stroke-width:0.183746;stroke-linejoin:round;stroke-opacity:0.9"
      d="m 605.76301,143.22005 -7.77674,2.25742 -0.22465,0.0144 8.00139,2.63259 v -1.68748 h -0.041 v -1.63479 h 0.041 z m -0.18765,1.58212 v 1.63479 h 12.96123 v -1.63479 z" ><animateTransform attributeName="transform" type="translate" from="0,0" to="-80,0" dur="2s" repeatCount="indefinite" begin="indefinite" calcMode="linear" />
      <animate attributeName="opacity" values="0;1;1;0;0" dur="2s" repeatCount="indefinite" begin="indefinite" calcMode="linear" />
    </path><path
       id="path89-1"
       style="fill:#e0bb2d;fill-opacity:0.9;stroke-width:0.183746;stroke-linejoin:round;stroke-opacity:0.9"
       d="m 518.80466,226.0514 7.77673,2.25742 0.22465,0.0144 -8.00138,2.63258 v -1.68747 h 0.041 v -1.63479 h -0.041 z m 0.18765,1.58211 v 1.63479 h -12.96124 v -1.63479 z" ><animateTransform attributeName="transform" type="translate" from="0,0" to="80,0" dur="2s" repeatCount="indefinite" begin="indefinite" calcMode="linear" />
      <animate attributeName="opacity" values="0;1;1;0;0" dur="2s" repeatCount="indefinite" begin="indefinite" calcMode="linear" />
    </path><path
       id="path89-0-4"
       style="fill:#e0bb2d;fill-opacity:0.9;stroke-width:0.183746;stroke-linejoin:round;stroke-opacity:0.9"
       d="m 337.60504,225.95583 7.77674,2.25742 0.22464,0.0144 -8.00138,2.63258 v -1.68747 h 0.041 v -1.63479 h -0.041 z m 0.18765,1.58211 v 1.63479 h -12.96123 v -1.63479 z" ><animateTransform attributeName="transform" type="translate" from="0,0" to="80,0" dur="2s" repeatCount="indefinite" begin="indefinite" calcMode="linear" />
      <animate attributeName="opacity" values="0;1;1;0;0" dur="2s" repeatCount="indefinite" begin="indefinite" calcMode="linear" />
    </path><path
       id="path89-0-4-9"
       style="fill:#e0bb2d;fill-opacity:0.9;stroke-width:0.183746;stroke-linejoin:round;stroke-opacity:0.9"
       d="m 301.54162,198.53033 7.77674,2.25742 0.22465,0.0144 -8.00139,2.63258 v -1.68747 h 0.041 v -1.63479 h -0.041 z m 0.18765,1.58211 v 1.63479 h -12.96123 v -1.63479 z" ><animateTransform attributeName="transform" type="translate" from="0,0" to="80,0" dur="2s" repeatCount="indefinite" begin="indefinite" calcMode="linear" />
      <animate attributeName="opacity" values="0;1;1;0;0" dur="2s" repeatCount="indefinite" begin="indefinite" calcMode="linear" />
    </path><path
       id="path89-7-8"
       style="fill:#e0bb2d;fill-opacity:0.9;stroke-width:0.183746;stroke-linejoin:round;stroke-opacity:0.9"
       d="m 184.70088,226.05833 7.77674,2.25741 0.22465,0.0144 -8.00139,2.63259 v -1.68748 h 0.041 v -1.6348 h -0.041 z m 0.18766,1.58211 v 1.63479 H 171.9273 v -1.63479 z" ><animateTransform attributeName="transform" type="translate" from="0,0" to="80,0" dur="2s" repeatCount="indefinite" begin="indefinite" calcMode="linear" />
      <animate attributeName="opacity" values="0;1;1;0;0" dur="2s" repeatCount="indefinite" begin="indefinite" calcMode="linear" />
    </path><path
       id="path89-1-9"
       style="fill:#44d4f1;fill-opacity:0.901961;stroke-width:0.183746;stroke-linejoin:round;stroke-opacity:0.9"
       d="m 216.43636,5.688842 -7.77674,2.257418 -0.22465,0.01439 8.00139,2.632586 V 8.90576 h -0.041 V 7.270969 h 0.041 z m -0.18765,1.58211 v 1.634792 h 12.96123 V 7.270952 Z" ><animateTransform attributeName="transform" type="translate" from="0,0" to="-80,0" dur="2s" repeatCount="indefinite" begin="indefinite" calcMode="linear" />
      <animate attributeName="opacity" values="0;1;1;0;0" dur="2s" repeatCount="indefinite" begin="indefinite" calcMode="linear" />
    </path><path
       id="path89-1-9-3"
       style="fill:#44d4f1;fill-opacity:0.901961;stroke-width:0.183746;stroke-linejoin:round;stroke-opacity:0.9"
       d="m 103.88765,51.734875 2.7622,6.355574 0.0176,0.183595 3.22125,-6.539169 h -2.0648 v 0.03351 h -2.00035 v -0.03351 z m 1.93589,0.153359 h 2.00035 V 41.295612 h -2.00035 z" ><animateTransform attributeName="transform" type="translate" from="0,0" to="0,50" dur="2s" repeatCount="indefinite" begin="indefinite" calcMode="linear" />
      <animate attributeName="opacity" values="0;1;1;0;0" dur="2s" repeatCount="indefinite" begin="indefinite" calcMode="linear" />
    </path><path
       id="path89-1-9-3-0"
       style="fill:#44d4f1;fill-opacity:0.901961;stroke-width:0.183746;stroke-linejoin:round;stroke-opacity:0.9"
       d="m 644.68075,48.150026 2.76221,-6.355574 0.0176,-0.183595 3.22125,6.539169 h -2.0648 v -0.03351 h -2.00035 v 0.03351 z m 1.93589,-0.153359 h 2.00035 v 10.592622 h -2.00035 z" ><animateTransform attributeName="transform" type="translate" from="0,0" to="0,-50" dur="2s" repeatCount="indefinite" begin="indefinite" calcMode="linear" />
      <animate attributeName="opacity" values="0;1;1;0;0" dur="2s" repeatCount="indefinite" begin="indefinite" calcMode="linear" />
    </path><path
       id="path89-0-4-0"
       style="fill:#44d4f1;fill-opacity:0.901961;stroke-width:0.183746;stroke-linejoin:round;stroke-opacity:0.9"
       d="m 397.63598,5.593272 -7.77674,2.257418 -0.22465,0.01439 8.00139,2.632587 V 8.81019 h -0.041 V 7.175399 h 0.041 z m -0.18766,1.58211 v 1.634792 h 12.96124 V 7.175382 Z" ><animateTransform attributeName="transform" type="translate" from="0,0" to="-80,0" dur="2s" repeatCount="indefinite" begin="indefinite" calcMode="linear" />
      <animate attributeName="opacity" values="0;1;1;0;0" dur="2s" repeatCount="indefinite" begin="indefinite" calcMode="linear" />
    </path><path
       id="path89-0-4-0-0"
       style="fill:#44d4f1;fill-opacity:0.901961;stroke-width:0.183746;stroke-linejoin:round;stroke-opacity:0.9"
       d="m 452.07292,33.106464 -7.77674,2.257409 -0.22465,0.01439 8.00139,2.632594 v -1.687481 h -0.041 v -1.634791 h 0.041 z m -0.18766,1.582102 v 1.634791 h 12.96124 v -1.634791 z" ><animateTransform attributeName="transform" type="translate" from="0,0" to="-80,0" dur="2s" repeatCount="indefinite" begin="indefinite" calcMode="linear" />
      <animate attributeName="opacity" values="0;1;1;0;0" dur="2s" repeatCount="indefinite" begin="indefinite" calcMode="linear" />
    </path><path
       id="path89-7-8-0"
       style="fill:#44d4f1;fill-opacity:0.901961;stroke-width:0.183746;stroke-linejoin:round;stroke-opacity:0.9"
       d="m 550.54013,5.695765 -7.77673,2.257418 -0.22465,0.01439 8.00138,2.632586 V 8.912686 h -0.041 V 7.277895 h 0.041 z m -0.18765,1.582111 v 1.634791 h 12.96123 V 7.277876 Z" ><animateTransform attributeName="transform" type="translate" from="0,0" to="-80,0" dur="2s" repeatCount="indefinite" begin="indefinite" calcMode="linear" />
      <animate attributeName="opacity" values="0;1;1;0;0" dur="2s" repeatCount="indefinite" begin="indefinite" calcMode="linear" />
    </path><path
       id="path89-1-9-2"
       style="fill:#44d4f1;fill-opacity:0.901961;stroke-width:0.183746;stroke-linejoin:round;stroke-opacity:0.9"
       d="m 522.02996,88.332769 7.77674,2.257418 0.22465,0.01439 -8.00139,2.632586 V 91.54969 h 0.041 v -1.634791 h -0.041 z m 0.18766,1.582111 v 1.634791 H 509.25638 V 89.91488 Z" ><animateTransform attributeName="transform" type="translate" from="0,0" to="80,0" dur="2s" repeatCount="indefinite" begin="indefinite" calcMode="linear" />
      <animate attributeName="opacity" values="0;1;1;0;0" dur="2s" repeatCount="indefinite" begin="indefinite" calcMode="linear" />
    </path><path
       id="path89-1-9-2-7"
       style="fill:#44d4f1;fill-opacity:0.901961;stroke-width:0.183746;stroke-linejoin:round;stroke-opacity:0.9"
       d="m 507.11347,63.367498 7.77674,2.257418 0.22465,0.01439 -8.00139,2.632586 v -1.687473 h 0.041 v -1.634791 h -0.041 z m 0.18765,1.582111 V 66.5844 h -12.96123 v -1.634791 z" ><animateTransform attributeName="transform" type="translate" from="0,0" to="80,0" dur="2s" repeatCount="indefinite" begin="indefinite" calcMode="linear" />
      <animate attributeName="opacity" values="0;1;1;0;0" dur="2s" repeatCount="indefinite" begin="indefinite" calcMode="linear" />
    </path><path
       id="path89-0-4-0-8"
       style="fill:#44d4f1;fill-opacity:0.901961;stroke-width:0.183746;stroke-linejoin:round;stroke-opacity:0.9"
       d="m 340.83035,88.2372 7.77673,2.257418 0.22465,0.01439 -8.00138,2.632586 v -1.687473 h 0.041 V 89.81933 h -0.041 z m 0.18765,1.58211 v 1.634791 H 328.05677 V 89.81931 Z" ><animateTransform attributeName="transform" type="translate" from="0,0" to="80,0" dur="2s" repeatCount="indefinite" begin="indefinite" calcMode="linear" />
      <animate attributeName="opacity" values="0;1;1;0;0" dur="2s" repeatCount="indefinite" begin="indefinite" calcMode="linear" />
    </path><path
       id="path89-7-8-0-2"
       style="fill:#44d4f1;fill-opacity:0.901961;stroke-width:0.183746;stroke-linejoin:round;stroke-opacity:0.9"
       d="m 187.92619,88.339693 7.77674,2.257418 0.22465,0.01439 -8.00139,2.632586 v -1.687472 h 0.041 v -1.634792 h -0.041 z m 0.18766,1.58211 v 1.634791 h -12.96124 v -1.634791 z" ><animateTransform attributeName="transform" type="translate" from="0,0" to="80,0" dur="2s" repeatCount="indefinite" begin="indefinite" calcMode="linear" />
      <animate attributeName="opacity" values="0;1;1;0;0" dur="2s" repeatCount="indefinite" begin="indefinite" calcMode="linear" />
    </path>
</g>
<text
       xml:space="preserve"
      style="font-size:11.268px;text-align:start;writing-mode:lr-tb;direction:ltr;text-anchor:start;fill:#44d4f1;fill-opacity:0.901961;fill-rule:nonzero;stroke:none;stroke-width:0.254;stroke-linejoin:round;stroke-dasharray:none;stroke-dashoffset:0;stroke-opacity:0.9;visibility:hidden"
       x="518.10767"
       y="123.5332"
      id="text90" data-running-status="off"><tspan
         sodipodi:role="line"
         id="tspan90"
         x="518.10767"
        y="123.5332"><tspan id="return-air-temp-value" data-value="return-air-temp">27.50C</tspan></tspan></text><text
       xml:space="preserve"
      style="font-size:11.268px;text-align:start;writing-mode:lr-tb;direction:ltr;text-anchor:start;fill:#44d4f1;fill-opacity:0.901961;fill-rule:nonzero;stroke:none;stroke-width:0.254;stroke-linejoin:round;stroke-dasharray:none;stroke-dashoffset:0;stroke-opacity:0.9;visibility:hidden"
       x="665.59888"
       y="27.571377"
      id="text90-97" data-running-status="off"><tspan
         sodipodi:role="line"
         id="tspan90-4"
         x="665.59888"
        y="27.571377">CO2:<tspan id="co2-level-value" data-value="co2-level">427.00ppm</tspan></tspan></text><text
       xml:space="preserve"
      style="font-size:11.268px;text-align:start;writing-mode:lr-tb;direction:ltr;text-anchor:start;fill:#44d4f1;fill-opacity:0.901961;fill-rule:nonzero;stroke:none;stroke-width:0.254;stroke-linejoin:round;stroke-dasharray:none;stroke-dashoffset:0;stroke-opacity:0.9;visibility:hidden"
       x="665.68677"
       y="51.359261"
      id="text90-1" data-running-status="off"><tspan
         sodipodi:role="line"
         id="tspan90-9"
         x="665.68677"
        y="51.359261"><tspan id="humidity-level-value" data-value="humidity-level">49.00%</tspan></tspan></text><text
       xml:space="preserve"
       style="font-size:11.268px;text-align:start;writing-mode:lr-tb;direction:ltr;text-anchor:start;fill:#44d4f1;fill-opacity:0.901961;fill-rule:nonzero;stroke:none;stroke-width:0.23817;stroke-linejoin:round;stroke-dasharray:none;stroke-dashoffset:0;stroke-opacity:0.9;visibility:hidden"
       x="242.08563"
       y="57.852116"
       id="text90-96" data-running-status="off"
       transform="scale(1.066649,0.93751552)"><tspan
         sodipodi:role="line"
         id="tspan90-17"
         x="242.08563"
         y="57.852116"
         style="stroke-width:0.23817">2<tspan id="sys2-high-pressure-value" data-value="sys2-high-pressure">1.00Mpa</tspan></tspan></text><text
       xml:space="preserve"
       style="font-size:11.268px;text-align:start;writing-mode:lr-tb;direction:ltr;text-anchor:start;fill:#44d4f1;fill-opacity:0.901961;fill-rule:nonzero;stroke:none;stroke-width:0.238506;stroke-linejoin:round;stroke-dasharray:none;stroke-dashoffset:0;stroke-opacity:0.9;visibility:hidden"
       x="431.02328"
       y="57.764343"
       id="text90-28" data-running-status="off"
       transform="scale(1.0651482,0.9388365)"><tspan
         sodipodi:role="line"
         id="tspan90-3"
         x="431.02328"
         y="57.764343"
         style="stroke-width:0.238506">2<tspan id="sys2-low-pressure-value" data-value="sys2-low-pressure">1.00Mpa</tspan></tspan></text><text
       xml:space="preserve"
       style="font-size:11.268px;text-align:start;writing-mode:lr-tb;direction:ltr;text-anchor:start;fill:#44d4f1;fill-opacity:0.901961;fill-rule:nonzero;stroke:none;stroke-width:0.254;stroke-linejoin:round;stroke-dasharray:none;stroke-dashoffset:0;stroke-opacity:0.9;visibility:hidden"
       x="177.05917"
       y="122.38956"
       id="text90-8" data-running-status="off"><tspan
         sodipodi:role="line"
         id="tspan90-0"
         x="177.05917"
        y="122.38956"><tspan id="fresh-air-temp-value" data-value="fresh-air-temp">27.50C</tspan></tspan></text><text
       xml:space="preserve"
       style="font-size:11.268px;text-align:start;writing-mode:lr-tb;direction:ltr;text-anchor:start;fill:#44d4f1;fill-opacity:0.901961;fill-rule:nonzero;stroke:none;stroke-width:0.254;stroke-linejoin:round;stroke-dasharray:none;stroke-dashoffset:0;stroke-opacity:0.9;visibility:hidden"
       x="665.90387"
       y="152.69756"
       id="text90-9" data-running-status="off"><tspan
         sodipodi:role="line"
         id="tspan90-03"
         x="665.90387"
       y="152.69756">2:<tspan id="fan2-temp-value" data-value="fan2-temp">27.00C</tspan></tspan></text><text
       xml:space="preserve"
       style="font-size:11.268px;text-align:start;writing-mode:lr-tb;direction:ltr;text-anchor:start;fill:#44d4f1;fill-opacity:0.901961;fill-rule:nonzero;stroke:none;stroke-width:0.254;stroke-linejoin:round;stroke-dasharray:none;stroke-dashoffset:0;stroke-opacity:0.9;visibility:hidden"
       x="11.363657"
       y="152.69765"
       id="text91" data-running-status="off"><tspan
         sodipodi:role="line"
         id="tspan91"
         x="11.363657"
       y="152.69765">1:<tspan id="fan1-temp-value" data-value="fan1-temp">26.90C</tspan></tspan></text><text
       xml:space="preserve"
       style="font-size:11.268px;text-align:start;writing-mode:lr-tb;direction:ltr;text-anchor:start;fill:#44d4f1;fill-opacity:0.901961;fill-rule:nonzero;stroke:none;stroke-width:0.23817;stroke-linejoin:round;stroke-dasharray:none;stroke-dashoffset:0;stroke-opacity:0.9;visibility:hidden"
       x="372.76389"
       y="201.94913"
       id="text90-2" data-running-status="off"
       transform="scale(1.0666488,0.9375157)"><tspan
         sodipodi:role="line"
         id="tspan90-8"
         x="372.76389"
         y="201.94913"
         style="stroke-width:0.23817">1<tspan id="sys1-high-pressure-value" data-value="sys1-high-pressure">1.00Mpa</tspan></tspan></text><text
       xml:space="preserve"
       style="font-size:11.268px;text-align:start;writing-mode:lr-tb;direction:ltr;text-anchor:start;fill:#44d4f1;fill-opacity:0.901961;fill-rule:nonzero;stroke:none;stroke-width:0.238506;stroke-linejoin:round;stroke-dasharray:none;stroke-dashoffset:0;stroke-opacity:0.9;visibility:hidden"
       x="196.55804"
       y="201.65878"
       id="text90-98" data-running-status="off"
       transform="scale(1.0651483,0.93883641)"><tspan
         sodipodi:role="line"
         id="tspan90-1"
         x="196.55804"
         y="201.65878"
         style="stroke-width:0.238506">1<tspan id="sys1-low-pressure-value" data-value="sys1-low-pressure">1.00Mpa</tspan></tspan></text></g></svg>
