<?xml version="1.0" encoding="UTF-8" standalone="no"?>
<!-- Created with Inkscape (http://www.inkscape.org/) -->

<svg
   height="340"
   width="780"
   sodipodi:docname="newAC.svg"
   version="1.1"
   id="ac-unit-svg"
   viewBox="0 0 780 340"
   inkscape:version="1.4.2 (ebf0e940, 2025-05-08)"
   xmlns:inkscape="http://www.inkscape.org/namespaces/inkscape"
   xmlns:sodipodi="http://sodipodi.sourceforge.net/DTD/sodipodi-0.dtd"
   xmlns:xlink="http://www.w3.org/1999/xlink"
   xmlns="http://www.w3.org/2000/svg"
   xmlns:svg="http://www.w3.org/2000/svg"
   xmlns:rdf="http://www.w3.org/1999/02/22-rdf-syntax-ns#"
   xmlns:cc="http://creativecommons.org/ns#"
   xmlns:dc="http://purl.org/dc/elements/1.1/">
  <sodipodi:namedview
     id="base"
     pagecolor="#ffffff"
     bordercolor="#000000"
     borderopacity="0.3"
     inkscape:pageopacity="0.0"
     inkscape:pageshadow="2"
     inkscape:zoom="1.88"
     inkscape:cx="423.93617"
     inkscape:cy="197.34043"
     inkscape:document-units="px"
     inkscape:current-layer="layer1"
     showgrid="false"
     showguides="true"
     inkscape:window-width="1680"
     inkscape:window-height="1027"
     inkscape:window-x="50"
     inkscape:window-y="25"
     inkscape:window-maximized="0"
     showborder="true"
     inkscape:showpageshadow="false"
     inkscape:pagecheckerboard="0"
     inkscape:deskcolor="#d1d1d1">
    <sodipodi:guide
       id="guide_baseline"
       inkscape:label="baseline"
       position="0,103"
       orientation="0,1"
       inkscape:locked="false" />
    <sodipodi:guide
       id="guide_ascender"
       inkscape:label="ascender"
       position="823.76238,360.39604"
       orientation="0,1"
       inkscape:locked="false" />
    <sodipodi:guide
       id="guide_caps"
       inkscape:label="caps"
       position="840.59406,200.9901"
       orientation="0,1"
       inkscape:locked="false" />
    <sodipodi:guide
       id="guide_xheight"
       inkscape:label="xheight"
       position="788.11881,39.60396"
       orientation="0,1"
       inkscape:locked="false" />
    <sodipodi:guide
       id="guide_descender"
       inkscape:label="descender"
       position="0,-122"
       orientation="0,1"
       inkscape:locked="false" />
    <sodipodi:guide
       position="425.80645,455.91398"
       orientation="1,0"
       id="guide30"
       inkscape:locked="false" />
  </sodipodi:namedview>
  <defs
     id="defs4">
    <inkscape:path-effect
       effect="bspline"
       id="path-effect47"
       is_visible="true"
       lpeversion="1.3"
       weight="33.333333"
       steps="2"
       helper_size="0"
       apply_no_weight="true"
       apply_with_weight="true"
       only_selected="false"
       uniform="false" />
    <inkscape:path-effect
       effect="bspline"
       id="path-effect46"
       is_visible="true"
       lpeversion="1.3"
       weight="33.333333"
       steps="2"
       helper_size="0"
       apply_no_weight="true"
       apply_with_weight="true"
       only_selected="false"
       uniform="false" />
    <inkscape:path-effect
       effect="bspline"
       id="path-effect45"
       is_visible="true"
       lpeversion="1.3"
       weight="33.333333"
       steps="2"
       helper_size="0"
       apply_no_weight="true"
       apply_with_weight="true"
       only_selected="false"
       uniform="false" />
    <inkscape:path-effect
       effect="bspline"
       id="path-effect44"
       is_visible="true"
       lpeversion="1.3"
       weight="33.333333"
       steps="2"
       helper_size="0"
       apply_no_weight="true"
       apply_with_weight="true"
       only_selected="false"
       uniform="false" />
    <inkscape:path-effect
       effect="bspline"
       id="path-effect43"
       is_visible="true"
       lpeversion="1.3"
       weight="33.333333"
       steps="2"
       helper_size="0"
       apply_no_weight="true"
       apply_with_weight="true"
       only_selected="false"
       uniform="false" />
    <inkscape:path-effect
       effect="bspline"
       id="path-effect42"
       is_visible="true"
       lpeversion="1.3"
       weight="33.333333"
       steps="2"
       helper_size="0"
       apply_no_weight="true"
       apply_with_weight="true"
       only_selected="false"
       uniform="false" />
    <linearGradient
       id="linearGradient32">
      <stop
         style="stop-color:#1eb4e6;stop-opacity:1;"
         offset="0"
         id="stop34" />
      <stop
         style="stop-color:#31fff6;stop-opacity:0.45490196;"
         offset="0.50349653"
         id="stop36" />
      <stop
         style="stop-color:#1eb4f6;stop-opacity:0.45490196;"
         offset="1"
         id="stop37" />
    </linearGradient>
    <linearGradient
       id="swatch5"
       inkscape:swatch="solid">
      <stop
         style="stop-color:#000000;stop-opacity:1;"
         offset="0"
         id="stop5" />
    </linearGradient>
    <linearGradient
       inkscape:collect="always"
       xlink:href="#linearGradient32"
       id="linearGradient33"
       x1="436.02277"
       y1="114.34781"
       x2="469.19464"
       y2="114.34781"
       gradientUnits="userSpaceOnUse"
       gradientTransform="matrix(0.80810812,0,0,1.1232558,92.054591,-28.107956)"
       spreadMethod="reflect" />
    <linearGradient
       inkscape:collect="always"
       xlink:href="#linearGradient32"
       id="linearGradient37"
       gradientUnits="userSpaceOnUse"
       gradientTransform="matrix(0.80810812,0,0,1.1232558,29.66381,170.70766)"
       x1="436.02277"
       y1="114.34781"
       x2="469.19464"
       y2="114.34781"
       spreadMethod="reflect" />
    <linearGradient
       inkscape:collect="always"
       xlink:href="#linearGradient32"
       id="linearGradient38"
       gradientUnits="userSpaceOnUse"
       gradientTransform="matrix(0.49729733,0,0,0.85581403,-109.95147,-631.19814)"
       x1="436.02277"
       y1="114.34781"
       x2="469.19464"
       y2="114.34781"
       spreadMethod="reflect" />
    <linearGradient
       inkscape:collect="always"
       xlink:href="#linearGradient32"
       id="linearGradient39"
       gradientUnits="userSpaceOnUse"
       gradientTransform="matrix(0.49729733,0,0,0.85581403,59.274046,-430.88848)"
       x1="436.02277"
       y1="114.34781"
       x2="469.19464"
       y2="114.34781"
       spreadMethod="reflect" />
  </defs>
  <metadata
     id="metadata7">
    <rdf:RDF>
      <cc:Work
         rdf:about="">
        <dc:format>image/svg+xml</dc:format>
        <dc:type
           rdf:resource="http://purl.org/dc/dcmitype/StillImage" />
      </cc:Work>
    </rdf:RDF>
  </metadata>
  <g
     id="layer1"
     inkscape:groupmode="layer"
     inkscape:label="Layer 1"
     transform="translate(-47.72727,-29.54546)">
    <path
       d="M 150.49609,40.496295 V 149.50411 H 699.50391 V 40.496295 Z m 7.95508,7.955078 H 691.54883 V 141.54903 H 158.45117 Z"
       style="fill:#283f7b;fill-opacity:0.19626169;fill-rule:nonzero;stroke:#3caadc;stroke-width:0.99259;stroke-linejoin:round;stroke-opacity:0.89999998"
       id="path5" />
    <path
       d="m 566.21484,41.251953 h -7.95507 V 74.539062 H 414.95312 v 7.955079 h 151.26172 z"
       style="fill:#283f7b;fill-opacity:0.196262;stroke:#3caadc;stroke-width:0.99259;stroke-linejoin:round;stroke-opacity:0.9"
       id="path40" />
    <path
       d="m 291.12788,359.21216 h 7.95507 V 325.92505 H 442.3896 v -7.95508 H 291.12788 Z"
       style="fill:#d2cd53;fill-opacity:0.196078;stroke:#e0bb2d;stroke-width:0.99259;stroke-linejoin:round;stroke-opacity:0.9"
       id="path40-4" />
    <path
       d="M 150.4963,250.4963 V 359.50411 H 699.5041 V 250.4963 Z m 7.95508,7.95507 h 533.09766 v 93.09766 H 158.45138 Z"
       style="fill:#d2cd53;fill-opacity:0.19626169;fill-rule:nonzero;stroke:#e0bb2d;stroke-width:0.99259;stroke-linejoin:round;stroke-opacity:0.89999998"
       id="path5-6" />
    <path
       d="m 686.48841,138.48841 v 124.02344 h 15.02344 V 138.48841 Z m 1.90625,3.90625 h 11.21094 v 54.21094 h -11.21094 z m 0,62 h 11.21094 v 54.21094 h -11.21094 z"
       style="fill:#ffffff;stroke:#ffffff;stroke-width:0.976818;stroke-linejoin:round"
       id="path8" />
    <path
       d="M 688.39466,142.39466 V 196.6056 H 699.6056 V 142.39466 Z"
       style="fill:#44d4f1;fill-opacity:0.9;stroke:#44d4f1;stroke-width:0.788212;stroke-linejoin:round;stroke-opacity:0.9"
       id="path9" />
    <path
       d="M 688.39466,204.39466 V 258.6056 H 699.6056 V 204.39466 Z"
       style="fill:#44d4f1;fill-opacity:0.9;stroke:#44d4f1;stroke-width:0.788212;stroke-linejoin:round;stroke-opacity:0.9"
       id="path10" />
    <path
       d="M 292.48841,85.511849 H 416.51185 V 70.488409 H 292.48841 Z m 3.90625,-1.90625 v -11.21094 h 54.21094 v 11.21094 z m 62,0 v -11.21094 h 54.21094 v 11.21094 z"
       style="fill:#ffffff;stroke:#ffffff;stroke-width:0.976818;stroke-linejoin:round"
       id="path8-0" />
    <path
       d="M 296.39466,83.605599 H 350.6056 V 72.394659 H 296.39466 Z"
       style="fill:#44d4f1;fill-opacity:0.9;stroke:#44d4f1;stroke-width:0.788212;stroke-linejoin:round;stroke-opacity:0.9"
       id="path9-6" />
    <path
       d="M 358.39466,83.605599 H 412.6056 V 72.394659 H 358.39466 Z"
       style="fill:#44d4f1;fill-opacity:0.9;stroke:#44d4f1;stroke-width:0.788212;stroke-linejoin:round;stroke-opacity:0.9"
       id="path10-5" />
    <path
       d="M 438.48841,329.50042 H 562.51185 V 314.47698 H 438.48841 Z m 3.90625,-1.90625 v -11.21094 h 54.21094 v 11.21094 z m 62,0 v -11.21094 h 54.21094 v 11.21094 z"
       style="fill:#ffffff;stroke:#ffffff;stroke-width:0.976818;stroke-linejoin:round"
       id="path8-0-0" />
    <path
       d="M 442.39466,327.59417 H 496.6056 V 316.38323 H 442.39466 Z"
       style="fill:#44d4f1;fill-opacity:0.9;stroke:#44d4f1;stroke-width:0.788212;stroke-linejoin:round;stroke-opacity:0.9"
       id="path9-6-1" />
    <path
       d="M 504.39466,327.59417 H 558.6056 V 316.38323 H 504.39466 Z"
       style="fill:#44d4f1;fill-opacity:0.9;stroke:#44d4f1;stroke-width:0.788212;stroke-linejoin:round;stroke-opacity:0.9"
       id="path10-5-9" />
    <path
       d="m 147.48841,138.48841 v 124.02344 h 15.02344 V 138.48841 Z m 1.90625,3.90625 h 11.21094 v 54.21094 h -11.21094 z m 0,62 h 11.21094 v 54.21094 h -11.21094 z"
       style="fill:#ffffff;stroke:#ffffff;stroke-width:0.976818;stroke-linejoin:round"
       id="path8-8" />
    <path
       d="M 149.39466,142.39466 V 196.6056 H 160.6056 V 142.39466 Z"
       style="fill:#44d4f1;fill-opacity:0.9;stroke:#44d4f1;stroke-width:0.788212;stroke-linejoin:round;stroke-opacity:0.9"
       id="path9-5" />
    <path
       d="M 149.39466,204.39466 V 258.6056 H 160.6056 V 204.39466 Z"
       style="fill:#44d4f1;fill-opacity:0.9;stroke:#44d4f1;stroke-width:0.788212;stroke-linejoin:round;stroke-opacity:0.9"
       id="path10-6" />
    <path
       d="m 355.23885,169.67632 a 29.703558,29.703558 0 0 0 -29.70313,29.70313 29.703558,29.703558 0 0 0 29.70313,29.70312 29.703558,29.703558 0 0 0 29.70312,-29.70312 29.703558,29.703558 0 0 0 -29.70312,-29.70313 z m 0,24.75196 a 4.9505925,4.950593 0 0 1 4.95117,4.95117 4.9505925,4.950593 0 0 1 -4.95117,4.95117 4.9505925,4.950593 0 0 1 -4.95117,-4.95117 4.9505925,4.950593 0 0 1 4.95117,-4.95117 z"
       style="fill:none;fill-opacity:0.9;stroke:#000000;stroke-width:0.592884;stroke-linejoin:round;stroke-opacity:1"
       id="path19" />
      <g id="fan-blades-1" data-running-status="off">
        <animateTransform
          id="fan-animate-1"
          attributeName="transform"
          type="rotate"
          from="0 355.23885 199.38038"
          to="360 355.23885 199.38038"
          dur="2s"
          repeatCount="indefinite"
          begin="indefinite" />
    <path
       style="fill:#44d4f1;fill-opacity:0.9;fill-rule:nonzero;stroke:#44d4f1;stroke-width:0.773518;stroke-linejoin:round;stroke-dasharray:none;stroke-dashoffset:0;stroke-opacity:0.9"
       id="path28"
          d="m 358.11994,203.48578 c 0.53946,0.9314 1.09899,1.84941 1.60235,2.8059 0.25143,0.22886 0.34648,0.63849 0.57815,0.88182 0.35278,0.37057 -0.10536,-0.22649 0.17035,0.14723 0.0477,0.4294 0.32325,0.73602 0.43034,1.14338 0.0718,0.53164 0.3042,1.00909 0.41031,1.53393 0.0672,0.27876 0.10579,0.56057 0.11501,0.84956 -0.017,0.62954 0.0961,1.2311 0.23207,1.83799 0.0532,0.38003 0.13903,0.75655 0.16435,1.14047 0.22339,-0.61749 -0.24082,0.79407 -0.2537,0.84546 0.007,0.0664 -0.23998,0.95483 -0.0797,0.67999 -0.15843,0.26523 -0.28679,0.57189 -0.37982,0.87954 -0.0374,0.2655 -0.0603,0.38664 -0.20645,0.60316 0,0 9.53876,6.22773 9.53876,6.22773 v 0 c 0.16452,-0.30329 0.39967,-0.62624 0.39637,-0.98808 0.0284,-0.23144 0.13186,-0.4493 0.26403,-0.64383 0.15924,-0.33649 0.17076,-0.56065 0.18027,-0.93477 0.0498,-0.42266 0.24232,-0.77638 0.41773,-1.14842 -0.023,-0.44967 -0.0498,-0.89117 -0.15555,-1.32968 -0.0844,-0.54559 -0.30607,-1.04937 -0.27001,-1.59602 10e-4,-0.3587 0.0254,-0.7251 -0.037,-1.07824 -0.0949,-0.51033 -0.13653,-1.09124 -0.4165,-1.51876 -0.0512,-0.43233 -0.0382,-0.95255 -0.36009,-1.25439 -0.0157,-0.16016 -4.1e-4,-0.32753 -0.0452,-0.4807 -0.10772,-0.36819 -0.50303,-0.62922 -0.62844,-0.98934 -0.69253,-0.73788 -1.08277,-1.78166 -1.62309,-2.65161 z"
          transform="rotate(0 355.23885 199.38038)" />
        <path
          style="fill:#44d4f1;fill-opacity:0.9;fill-rule:nonzero;stroke:#44d4f1;stroke-width:0.773518;stroke-linejoin:round;stroke-dasharray:none;stroke-dashoffset:0;stroke-opacity:0.9"
          id="path28-60"
          d="m 358.11994,203.48578 c 0.53946,0.9314 1.09899,1.84941 1.60235,2.8059 0.25143,0.22886 0.34648,0.63849 0.57815,0.88182 0.35278,0.37057 -0.10536,-0.22649 0.17035,0.14723 0.0477,0.4294 0.32325,0.73602 0.43034,1.14338 0.0718,0.53164 0.3042,1.00909 0.41031,1.53393 0.0672,0.27876 0.10579,0.56057 0.11501,0.84956 -0.017,0.62954 0.0961,1.2311 0.23207,1.83799 0.0532,0.38003 0.13903,0.75655 0.16435,1.14047 0.22339,-0.61749 -0.24082,0.79407 -0.2537,0.84546 0.007,0.0664 -0.23998,0.95483 -0.0797,0.67999 -0.15843,0.26523 -0.28679,0.57189 -0.37982,0.87954 -0.0374,0.2655 -0.0603,0.38664 -0.20645,0.60316 0,0 9.53876,6.22773 9.53876,6.22773 v 0 c 0.16452,-0.30329 0.39967,-0.62624 0.39637,-0.98808 0.0284,-0.23144 0.13186,-0.4493 0.26403,-0.64383 0.15924,-0.33649 0.17076,-0.56065 0.18027,-0.93477 0.0498,-0.42266 0.24232,-0.77638 0.41773,-1.14842 -0.023,-0.44967 -0.0498,-0.89117 -0.15555,-1.32968 -0.0844,-0.54559 -0.30607,-1.04937 -0.27001,-1.59602 10e-4,-0.3587 0.0254,-0.7251 -0.037,-1.07824 -0.0949,-0.51033 -0.13653,-1.09124 -0.4165,-1.51876 -0.0512,-0.43233 -0.0382,-0.95255 -0.36009,-1.25439 -0.0157,-0.16016 -4.1e-4,-0.32753 -0.0452,-0.4807 -0.10772,-0.36819 -0.50303,-0.62922 -0.62844,-0.98934 -0.69253,-0.73788 -1.08277,-1.78166 -1.62309,-2.65161 z"
          transform="rotate(60 355.23885 199.38038)" />
        <path
          style="fill:#44d4f1;fill-opacity:0.9;fill-rule:nonzero;stroke:#44d4f1;stroke-width:0.773518;stroke-linejoin:round;stroke-dasharray:none;stroke-dashoffset:0;stroke-opacity:0.9"
          id="path28-120"
          d="m 358.11994,203.48578 c 0.53946,0.9314 1.09899,1.84941 1.60235,2.8059 0.25143,0.22886 0.34648,0.63849 0.57815,0.88182 0.35278,0.37057 -0.10536,-0.22649 0.17035,0.14723 0.0477,0.4294 0.32325,0.73602 0.43034,1.14338 0.0718,0.53164 0.3042,1.00909 0.41031,1.53393 0.0672,0.27876 0.10579,0.56057 0.11501,0.84956 -0.017,0.62954 0.0961,1.2311 0.23207,1.83799 0.0532,0.38003 0.13903,0.75655 0.16435,1.14047 0.22339,-0.61749 -0.24082,0.79407 -0.2537,0.84546 0.007,0.0664 -0.23998,0.95483 -0.0797,0.67999 -0.15843,0.26523 -0.28679,0.57189 -0.37982,0.87954 -0.0374,0.2655 -0.0603,0.38664 -0.20645,0.60316 0,0 9.53876,6.22773 9.53876,6.22773 v 0 c 0.16452,-0.30329 0.39967,-0.62624 0.39637,-0.98808 0.0284,-0.23144 0.13186,-0.4493 0.26403,-0.64383 0.15924,-0.33649 0.17076,-0.56065 0.18027,-0.93477 0.0498,-0.42266 0.24232,-0.77638 0.41773,-1.14842 -0.023,-0.44967 -0.0498,-0.89117 -0.15555,-1.32968 -0.0844,-0.54559 -0.30607,-1.04937 -0.27001,-1.59602 10e-4,-0.3587 0.0254,-0.7251 -0.037,-1.07824 -0.0949,-0.51033 -0.13653,-1.09124 -0.4165,-1.51876 -0.0512,-0.43233 -0.0382,-0.95255 -0.36009,-1.25439 -0.0157,-0.16016 -4.1e-4,-0.32753 -0.0452,-0.4807 -0.10772,-0.36819 -0.50303,-0.62922 -0.62844,-0.98934 -0.69253,-0.73788 -1.08277,-1.78166 -1.62309,-2.65161 z"
          transform="rotate(120 355.23885 199.38038)" />
    <path
       style="fill:#44d4f1;fill-opacity:0.9;fill-rule:nonzero;stroke:#44d4f1;stroke-width:0.773518;stroke-linejoin:round;stroke-dasharray:none;stroke-dashoffset:0;stroke-opacity:0.9"
          id="path28-180"
          d="m 358.11994,203.48578 c 0.53946,0.9314 1.09899,1.84941 1.60235,2.8059 0.25143,0.22886 0.34648,0.63849 0.57815,0.88182 0.35278,0.37057 -0.10536,-0.22649 0.17035,0.14723 0.0477,0.4294 0.32325,0.73602 0.43034,1.14338 0.0718,0.53164 0.3042,1.00909 0.41031,1.53393 0.0672,0.27876 0.10579,0.56057 0.11501,0.84956 -0.017,0.62954 0.0961,1.2311 0.23207,1.83799 0.0532,0.38003 0.13903,0.75655 0.16435,1.14047 0.22339,-0.61749 -0.24082,0.79407 -0.2537,0.84546 0.007,0.0664 -0.23998,0.95483 -0.0797,0.67999 -0.15843,0.26523 -0.28679,0.57189 -0.37982,0.87954 -0.0374,0.2655 -0.0603,0.38664 -0.20645,0.60316 0,0 9.53876,6.22773 9.53876,6.22773 v 0 c 0.16452,-0.30329 0.39967,-0.62624 0.39637,-0.98808 0.0284,-0.23144 0.13186,-0.4493 0.26403,-0.64383 0.15924,-0.33649 0.17076,-0.56065 0.18027,-0.93477 0.0498,-0.42266 0.24232,-0.77638 0.41773,-1.14842 -0.023,-0.44967 -0.0498,-0.89117 -0.15555,-1.32968 -0.0844,-0.54559 -0.30607,-1.04937 -0.27001,-1.59602 10e-4,-0.3587 0.0254,-0.7251 -0.037,-1.07824 -0.0949,-0.51033 -0.13653,-1.09124 -0.4165,-1.51876 -0.0512,-0.43233 -0.0382,-0.95255 -0.36009,-1.25439 -0.0157,-0.16016 -4.1e-4,-0.32753 -0.0452,-0.4807 -0.10772,-0.36819 -0.50303,-0.62922 -0.62844,-0.98934 -0.69253,-0.73788 -1.08277,-1.78166 -1.62309,-2.65161 z"
          transform="rotate(180 355.23885 199.38038)" />
    <path
       style="fill:#44d4f1;fill-opacity:0.9;fill-rule:nonzero;stroke:#44d4f1;stroke-width:0.773518;stroke-linejoin:round;stroke-dasharray:none;stroke-dashoffset:0;stroke-opacity:0.9"
          id="path28-240"
          d="m 358.11994,203.48578 c 0.53946,0.9314 1.09899,1.84941 1.60235,2.8059 0.25143,0.22886 0.34648,0.63849 0.57815,0.88182 0.35278,0.37057 -0.10536,-0.22649 0.17035,0.14723 0.0477,0.4294 0.32325,0.73602 0.43034,1.14338 0.0718,0.53164 0.3042,1.00909 0.41031,1.53393 0.0672,0.27876 0.10579,0.56057 0.11501,0.84956 -0.017,0.62954 0.0961,1.2311 0.23207,1.83799 0.0532,0.38003 0.13903,0.75655 0.16435,1.14047 0.22339,-0.61749 -0.24082,0.79407 -0.2537,0.84546 0.007,0.0664 -0.23998,0.95483 -0.0797,0.67999 -0.15843,0.26523 -0.28679,0.57189 -0.37982,0.87954 -0.0374,0.2655 -0.0603,0.38664 -0.20645,0.60316 0,0 9.53876,6.22773 9.53876,6.22773 v 0 c 0.16452,-0.30329 0.39967,-0.62624 0.39637,-0.98808 0.0284,-0.23144 0.13186,-0.4493 0.26403,-0.64383 0.15924,-0.33649 0.17076,-0.56065 0.18027,-0.93477 0.0498,-0.42266 0.24232,-0.77638 0.41773,-1.14842 -0.023,-0.44967 -0.0498,-0.89117 -0.15555,-1.32968 -0.0844,-0.54559 -0.30607,-1.04937 -0.27001,-1.59602 10e-4,-0.3587 0.0254,-0.7251 -0.037,-1.07824 -0.0949,-0.51033 -0.13653,-1.09124 -0.4165,-1.51876 -0.0512,-0.43233 -0.0382,-0.95255 -0.36009,-1.25439 -0.0157,-0.16016 -4.1e-4,-0.32753 -0.0452,-0.4807 -0.10772,-0.36819 -0.50303,-0.62922 -0.62844,-0.98934 -0.69253,-0.73788 -1.08277,-1.78166 -1.62309,-2.65161 z"
          transform="rotate(240 355.23885 199.38038)" />
    <path
       style="fill:#44d4f1;fill-opacity:0.9;fill-rule:nonzero;stroke:#44d4f1;stroke-width:0.773518;stroke-linejoin:round;stroke-dasharray:none;stroke-dashoffset:0;stroke-opacity:0.9"
          id="path28-300"
          d="m 358.11994,203.48578 c 0.53946,0.9314 1.09899,1.84941 1.60235,2.8059 0.25143,0.22886 0.34648,0.63849 0.57815,0.88182 0.35278,0.37057 -0.10536,-0.22649 0.17035,0.14723 0.0477,0.4294 0.32325,0.73602 0.43034,1.14338 0.0718,0.53164 0.3042,1.00909 0.41031,1.53393 0.0672,0.27876 0.10579,0.56057 0.11501,0.84956 -0.017,0.62954 0.0961,1.2311 0.23207,1.83799 0.0532,0.38003 0.13903,0.75655 0.16435,1.14047 0.22339,-0.61749 -0.24082,0.79407 -0.2537,0.84546 0.007,0.0664 -0.23998,0.95483 -0.0797,0.67999 -0.15843,0.26523 -0.28679,0.57189 -0.37982,0.87954 -0.0374,0.2655 -0.0603,0.38664 -0.20645,0.60316 0,0 9.53876,6.22773 9.53876,6.22773 v 0 c 0.16452,-0.30329 0.39967,-0.62624 0.39637,-0.98808 0.0284,-0.23144 0.13186,-0.4493 0.26403,-0.64383 0.15924,-0.33649 0.17076,-0.56065 0.18027,-0.93477 0.0498,-0.42266 0.24232,-0.77638 0.41773,-1.14842 -0.023,-0.44967 -0.0498,-0.89117 -0.15555,-1.32968 -0.0844,-0.54559 -0.30607,-1.04937 -0.27001,-1.59602 10e-4,-0.3587 0.0254,-0.7251 -0.037,-1.07824 -0.0949,-0.51033 -0.13653,-1.09124 -0.4165,-1.51876 -0.0512,-0.43233 -0.0382,-0.95255 -0.36009,-1.25439 -0.0157,-0.16016 -4.1e-4,-0.32753 -0.0452,-0.4807 -0.10772,-0.36819 -0.50303,-0.62922 -0.62844,-0.98934 -0.69253,-0.73788 -1.08277,-1.78166 -1.62309,-2.65161 z"
          transform="rotate(300 355.23885 199.38038)" />
      </g>
    <path
       d="m 310.42372,166.42372 v 65.15234 h 89.15234 v -65.15234 z m 44.57617,2.87305 a 29.703558,29.703558 0 0 1 29.70312,29.70312 29.703558,29.703558 0 0 1 -29.70312,29.70312 29.703558,29.703558 0 0 1 -29.70313,-29.70312 29.703558,29.703558 0 0 1 29.70313,-29.70312 z"
       style="fill:#ffffff;fill-opacity:1;stroke:#000000;stroke-width:0.847447;stroke-linejoin:round"
       id="path29" />
    <path
       d="m 495.23885,169.67632 a 29.703558,29.703558 0 0 0 -29.70313,29.70313 29.703558,29.703558 0 0 0 29.70313,29.70312 29.703558,29.703558 0 0 0 29.70312,-29.70312 29.703558,29.703558 0 0 0 -29.70312,-29.70313 z m 0,24.75196 a 4.9505925,4.950593 0 0 1 4.95117,4.95117 4.9505925,4.950593 0 0 1 -4.95117,4.95117 4.9505925,4.950593 0 0 1 -4.95117,-4.95117 4.9505925,4.950593 0 0 1 4.95117,-4.95117 z"
       style="fill:none;fill-opacity:0.9;stroke:#000000;stroke-width:0.592884;stroke-linejoin:round;stroke-opacity:1"
       id="path19-4" />
      <g id="fan-blades-2" data-running-status="off">
        <animateTransform
          id="fan-animate-2"
          attributeName="transform"
          type="rotate"
          from="0 495.23885 199.38038"
          to="360 495.23885 199.38038"
          dur="2s"
          repeatCount="indefinite"
          begin="indefinite" />
    <path
       style="fill:#44d4f1;fill-opacity:0.9;fill-rule:nonzero;stroke:#44d4f1;stroke-width:0.773518;stroke-linejoin:round;stroke-dasharray:none;stroke-dashoffset:0;stroke-opacity:0.9"
       id="path28-9"
          d="m 498.11994,203.48578 c 0.53946,0.9314 1.09899,1.84941 1.60235,2.8059 0.25143,0.22886 0.34648,0.63849 0.57815,0.88182 0.35278,0.37057 -0.10536,-0.22649 0.17035,0.14723 0.0477,0.4294 0.32325,0.73602 0.43034,1.14338 0.0718,0.53164 0.3042,1.00909 0.41031,1.53393 0.0672,0.27876 0.10579,0.56057 0.11501,0.84956 -0.017,0.62954 0.0961,1.2311 0.23207,1.83799 0.0532,0.38003 0.13903,0.75655 0.16435,1.14047 0.22339,-0.61749 -0.24082,0.79407 -0.2537,0.84546 0.007,0.0664 -0.23998,0.95483 -0.0797,0.67999 -0.15843,0.26523 -0.28679,0.57189 -0.37982,0.87954 -0.0374,0.2655 -0.0603,0.38664 -0.20645,0.60316 0,0 9.53876,6.22773 9.53876,6.22773 v 0 c 0.16452,-0.30329 0.39967,-0.62624 0.39637,-0.98808 0.0284,-0.23144 0.13186,-0.4493 0.26403,-0.64383 0.15924,-0.33649 0.17076,-0.56065 0.18027,-0.93477 0.0498,-0.42266 0.24232,-0.77638 0.41773,-1.14842 -0.023,-0.44967 -0.0498,-0.89117 -0.15555,-1.32968 -0.0844,-0.54559 -0.30607,-1.04937 -0.27001,-1.59602 10e-4,-0.3587 0.0254,-0.7251 -0.037,-1.07824 -0.0949,-0.51033 -0.13653,-1.09124 -0.4165,-1.51876 -0.0512,-0.43233 -0.0382,-0.95255 -0.36009,-1.25439 -0.0157,-0.16016 -4.1e-4,-0.32753 -0.0452,-0.4807 -0.10772,-0.36819 -0.50303,-0.62922 -0.62844,-0.98934 -0.69253,-0.73788 -1.08277,-1.78166 -1.62309,-2.65161 z"
          transform="rotate(0 495.23885 199.38038)" />
        <path
          style="fill:#44d4f1;fill-opacity:0.9;fill-rule:nonzero;stroke:#44d4f1;stroke-width:0.773518;stroke-linejoin:round;stroke-dasharray:none;stroke-dashoffset:0;stroke-opacity:0.9"
          id="path28-9-60"
          d="m 498.11994,203.48578 c 0.53946,0.9314 1.09899,1.84941 1.60235,2.8059 0.25143,0.22886 0.34648,0.63849 0.57815,0.88182 0.35278,0.37057 -0.10536,-0.22649 0.17035,0.14723 0.0477,0.4294 0.32325,0.73602 0.43034,1.14338 0.0718,0.53164 0.3042,1.00909 0.41031,1.53393 0.0672,0.27876 0.10579,0.56057 0.11501,0.84956 -0.017,0.62954 0.0961,1.2311 0.23207,1.83799 0.0532,0.38003 0.13903,0.75655 0.16435,1.14047 0.22339,-0.61749 -0.24082,0.79407 -0.2537,0.84546 0.007,0.0664 -0.23998,0.95483 -0.0797,0.67999 -0.15843,0.26523 -0.28679,0.57189 -0.37982,0.87954 -0.0374,0.2655 -0.0603,0.38664 -0.20645,0.60316 0,0 9.53876,6.22773 9.53876,6.22773 v 0 c 0.16452,-0.30329 0.39967,-0.62624 0.39637,-0.98808 0.0284,-0.23144 0.13186,-0.4493 0.26403,-0.64383 0.15924,-0.33649 0.17076,-0.56065 0.18027,-0.93477 0.0498,-0.42266 0.24232,-0.77638 0.41773,-1.14842 -0.023,-0.44967 -0.0498,-0.89117 -0.15555,-1.32968 -0.0844,-0.54559 -0.30607,-1.04937 -0.27001,-1.59602 10e-4,-0.3587 0.0254,-0.7251 -0.037,-1.07824 -0.0949,-0.51033 -0.13653,-1.09124 -0.4165,-1.51876 -0.0512,-0.43233 -0.0382,-0.95255 -0.36009,-1.25439 -0.0157,-0.16016 -4.1e-4,-0.32753 -0.0452,-0.4807 -0.10772,-0.36819 -0.50303,-0.62922 -0.62844,-0.98934 -0.69253,-0.73788 -1.08277,-1.78166 -1.62309,-2.65161 z"
          transform="rotate(60 495.23885 199.38038)" />
        <path
          style="fill:#44d4f1;fill-opacity:0.9;fill-rule:nonzero;stroke:#44d4f1;stroke-width:0.773518;stroke-linejoin:round;stroke-dasharray:none;stroke-dashoffset:0;stroke-opacity:0.9"
          id="path28-9-120"
          d="m 498.11994,203.48578 c 0.53946,0.9314 1.09899,1.84941 1.60235,2.8059 0.25143,0.22886 0.34648,0.63849 0.57815,0.88182 0.35278,0.37057 -0.10536,-0.22649 0.17035,0.14723 0.0477,0.4294 0.32325,0.73602 0.43034,1.14338 0.0718,0.53164 0.3042,1.00909 0.41031,1.53393 0.0672,0.27876 0.10579,0.56057 0.11501,0.84956 -0.017,0.62954 0.0961,1.2311 0.23207,1.83799 0.0532,0.38003 0.13903,0.75655 0.16435,1.14047 0.22339,-0.61749 -0.24082,0.79407 -0.2537,0.84546 0.007,0.0664 -0.23998,0.95483 -0.0797,0.67999 -0.15843,0.26523 -0.28679,0.57189 -0.37982,0.87954 -0.0374,0.2655 -0.0603,0.38664 -0.20645,0.60316 0,0 9.53876,6.22773 9.53876,6.22773 v 0 c 0.16452,-0.30329 0.39967,-0.62624 0.39637,-0.98808 0.0284,-0.23144 0.13186,-0.4493 0.26403,-0.64383 0.15924,-0.33649 0.17076,-0.56065 0.18027,-0.93477 0.0498,-0.42266 0.24232,-0.77638 0.41773,-1.14842 -0.023,-0.44967 -0.0498,-0.89117 -0.15555,-1.32968 -0.0844,-0.54559 -0.30607,-1.04937 -0.27001,-1.59602 10e-4,-0.3587 0.0254,-0.7251 -0.037,-1.07824 -0.0949,-0.51033 -0.13653,-1.09124 -0.4165,-1.51876 -0.0512,-0.43233 -0.0382,-0.95255 -0.36009,-1.25439 -0.0157,-0.16016 -4.1e-4,-0.32753 -0.0452,-0.4807 -0.10772,-0.36819 -0.50303,-0.62922 -0.62844,-0.98934 -0.69253,-0.73788 -1.08277,-1.78166 -1.62309,-2.65161 z"
          transform="rotate(120 495.23885 199.38038)" />
    <path
       style="fill:#44d4f1;fill-opacity:0.9;fill-rule:nonzero;stroke:#44d4f1;stroke-width:0.773518;stroke-linejoin:round;stroke-dasharray:none;stroke-dashoffset:0;stroke-opacity:0.9"
          id="path28-9-180"
          d="m 498.11994,203.48578 c 0.53946,0.9314 1.09899,1.84941 1.60235,2.8059 0.25143,0.22886 0.34648,0.63849 0.57815,0.88182 0.35278,0.37057 -0.10536,-0.22649 0.17035,0.14723 0.0477,0.4294 0.32325,0.73602 0.43034,1.14338 0.0718,0.53164 0.3042,1.00909 0.41031,1.53393 0.0672,0.27876 0.10579,0.56057 0.11501,0.84956 -0.017,0.62954 0.0961,1.2311 0.23207,1.83799 0.0532,0.38003 0.13903,0.75655 0.16435,1.14047 0.22339,-0.61749 -0.24082,0.79407 -0.2537,0.84546 0.007,0.0664 -0.23998,0.95483 -0.0797,0.67999 -0.15843,0.26523 -0.28679,0.57189 -0.37982,0.87954 -0.0374,0.2655 -0.0603,0.38664 -0.20645,0.60316 0,0 9.53876,6.22773 9.53876,6.22773 v 0 c 0.16452,-0.30329 0.39967,-0.62624 0.39637,-0.98808 0.0284,-0.23144 0.13186,-0.4493 0.26403,-0.64383 0.15924,-0.33649 0.17076,-0.56065 0.18027,-0.93477 0.0498,-0.42266 0.24232,-0.77638 0.41773,-1.14842 -0.023,-0.44967 -0.0498,-0.89117 -0.15555,-1.32968 -0.0844,-0.54559 -0.30607,-1.04937 -0.27001,-1.59602 10e-4,-0.3587 0.0254,-0.7251 -0.037,-1.07824 -0.0949,-0.51033 -0.13653,-1.09124 -0.4165,-1.51876 -0.0512,-0.43233 -0.0382,-0.95255 -0.36009,-1.25439 -0.0157,-0.16016 -4.1e-4,-0.32753 -0.0452,-0.4807 -0.10772,-0.36819 -0.50303,-0.62922 -0.62844,-0.98934 -0.69253,-0.73788 -1.08277,-1.78166 -1.62309,-2.65161 z"
          transform="rotate(180 495.23885 199.38038)" />
    <path
       style="fill:#44d4f1;fill-opacity:0.9;fill-rule:nonzero;stroke:#44d4f1;stroke-width:0.773518;stroke-linejoin:round;stroke-dasharray:none;stroke-dashoffset:0;stroke-opacity:0.9"
          id="path28-9-240"
          d="m 498.11994,203.48578 c 0.53946,0.9314 1.09899,1.84941 1.60235,2.8059 0.25143,0.22886 0.34648,0.63849 0.57815,0.88182 0.35278,0.37057 -0.10536,-0.22649 0.17035,0.14723 0.0477,0.4294 0.32325,0.73602 0.43034,1.14338 0.0718,0.53164 0.3042,1.00909 0.41031,1.53393 0.0672,0.27876 0.10579,0.56057 0.11501,0.84956 -0.017,0.62954 0.0961,1.2311 0.23207,1.83799 0.0532,0.38003 0.13903,0.75655 0.16435,1.14047 0.22339,-0.61749 -0.24082,0.79407 -0.2537,0.84546 0.007,0.0664 -0.23998,0.95483 -0.0797,0.67999 -0.15843,0.26523 -0.28679,0.57189 -0.37982,0.87954 -0.0374,0.2655 -0.0603,0.38664 -0.20645,0.60316 0,0 9.53876,6.22773 9.53876,6.22773 v 0 c 0.16452,-0.30329 0.39967,-0.62624 0.39637,-0.98808 0.0284,-0.23144 0.13186,-0.4493 0.26403,-0.64383 0.15924,-0.33649 0.17076,-0.56065 0.18027,-0.93477 0.0498,-0.42266 0.24232,-0.77638 0.41773,-1.14842 -0.023,-0.44967 -0.0498,-0.89117 -0.15555,-1.32968 -0.0844,-0.54559 -0.30607,-1.04937 -0.27001,-1.59602 10e-4,-0.3587 0.0254,-0.7251 -0.037,-1.07824 -0.0949,-0.51033 -0.13653,-1.09124 -0.4165,-1.51876 -0.0512,-0.43233 -0.0382,-0.95255 -0.36009,-1.25439 -0.0157,-0.16016 -4.1e-4,-0.32753 -0.0452,-0.4807 -0.10772,-0.36819 -0.50303,-0.62922 -0.62844,-0.98934 -0.69253,-0.73788 -1.08277,-1.78166 -1.62309,-2.65161 z"
          transform="rotate(240 495.23885 199.38038)" />
    <path
       style="fill:#44d4f1;fill-opacity:0.9;fill-rule:nonzero;stroke:#44d4f1;stroke-width:0.773518;stroke-linejoin:round;stroke-dasharray:none;stroke-dashoffset:0;stroke-opacity:0.9"
          id="path28-9-300"
          d="m 498.11994,203.48578 c 0.53946,0.9314 1.09899,1.84941 1.60235,2.8059 0.25143,0.22886 0.34648,0.63849 0.57815,0.88182 0.35278,0.37057 -0.10536,-0.22649 0.17035,0.14723 0.0477,0.4294 0.32325,0.73602 0.43034,1.14338 0.0718,0.53164 0.3042,1.00909 0.41031,1.53393 0.0672,0.27876 0.10579,0.56057 0.11501,0.84956 -0.017,0.62954 0.0961,1.2311 0.23207,1.83799 0.0532,0.38003 0.13903,0.75655 0.16435,1.14047 0.22339,-0.61749 -0.24082,0.79407 -0.2537,0.84546 0.007,0.0664 -0.23998,0.95483 -0.0797,0.67999 -0.15843,0.26523 -0.28679,0.57189 -0.37982,0.87954 -0.0374,0.2655 -0.0603,0.38664 -0.20645,0.60316 0,0 9.53876,6.22773 9.53876,6.22773 v 0 c 0.16452,-0.30329 0.39967,-0.62624 0.39637,-0.98808 0.0284,-0.23144 0.13186,-0.4493 0.26403,-0.64383 0.15924,-0.33649 0.17076,-0.56065 0.18027,-0.93477 0.0498,-0.42266 0.24232,-0.77638 0.41773,-1.14842 -0.023,-0.44967 -0.0498,-0.89117 -0.15555,-1.32968 -0.0844,-0.54559 -0.30607,-1.04937 -0.27001,-1.59602 10e-4,-0.3587 0.0254,-0.7251 -0.037,-1.07824 -0.0949,-0.51033 -0.13653,-1.09124 -0.4165,-1.51876 -0.0512,-0.43233 -0.0382,-0.95255 -0.36009,-1.25439 -0.0157,-0.16016 -4.1e-4,-0.32753 -0.0452,-0.4807 -0.10772,-0.36819 -0.50303,-0.62922 -0.62844,-0.98934 -0.69253,-0.73788 -1.08277,-1.78166 -1.62309,-2.65161 z"
          transform="rotate(300 495.23885 199.38038)" />
      </g>
    <path
       d="m 450.42372,166.42372 v 65.15234 h 89.15234 v -65.15234 z m 44.57617,2.87305 a 29.703558,29.703558 0 0 1 29.70312,29.70312 29.703558,29.703558 0 0 1 -29.70312,29.70312 29.703558,29.703558 0 0 1 -29.70313,-29.70312 29.703558,29.703558 0 0 1 29.70313,-29.70312 z"
       style="fill:#ffffff;fill-opacity:1;stroke:#000000;stroke-width:0.847447;stroke-linejoin:round"
       id="path29-0" />
    <circle
       style="fill:#ffffff;fill-opacity:1;fill-rule:nonzero;stroke:#000000;stroke-width:0.636857;stroke-linejoin:round;stroke-dasharray:none;stroke-dashoffset:0;stroke-opacity:1"
       id="path30"
       cx="495.24942"
       cy="199.59302"
       r="4.6815715" />
    <path
       d="m 739.7975,169.23679 a 29.703558,29.703558 0 0 0 -29.70313,29.70313 29.703558,29.703558 0 0 0 29.70313,29.70312 29.703558,29.703558 0 0 0 29.70312,-29.70312 29.703558,29.703558 0 0 0 -29.70312,-29.70313 z m 0,24.75196 a 4.9505925,4.950593 0 0 1 4.95117,4.95117 4.9505925,4.950593 0 0 1 -4.95117,4.95117 4.9505925,4.950593 0 0 1 -4.95117,-4.95117 4.9505925,4.950593 0 0 1 4.95117,-4.95117 z"
       style="fill:none;fill-opacity:0.9;stroke:#000000;stroke-width:0.592884;stroke-linejoin:round;stroke-opacity:1"
       id="path19-4-0" />
      <g id="fan-blades-3" data-running-status="off">
        <animateTransform
          id="fan-animate-3"
          attributeName="transform"
          type="rotate"
          from="0 739.7975 199.38038"
          to="360 739.7975 199.38038"
          dur="2s"
          repeatCount="indefinite"
          begin="indefinite" />
        <path
          style="fill:#44d4f1;fill-opacity:0.9;fill-rule:nonzero;stroke:#44d4f1;stroke-width:0.773518;stroke-linejoin:round;stroke-dasharray:none;stroke-dashoffset:0;stroke-opacity:0.9"
          id="path28-9-4"
          d="m 742.67859,203.04625 c 0.53946,0.9314 1.09899,1.84941 1.60235,2.8059 0.25143,0.22886 0.34648,0.63849 0.57815,0.88182 0.35278,0.37057 -0.10536,-0.22649 0.17035,0.14723 0.0477,0.4294 0.32325,0.73602 0.43034,1.14338 0.0718,0.53164 0.3042,1.00909 0.41031,1.53393 0.0672,0.27876 0.10579,0.56057 0.11501,0.84956 -0.017,0.62954 0.0961,1.2311 0.23207,1.83799 0.0532,0.38003 0.13903,0.75655 0.16435,1.14047 0.22339,-0.61749 -0.24082,0.79407 -0.2537,0.84546 0.007,0.0664 -0.23998,0.95483 -0.0797,0.67999 -0.15843,0.26523 -0.28679,0.57189 -0.37982,0.87954 -0.0374,0.2655 -0.0603,0.38664 -0.20645,0.60316 0,0 9.53876,6.22773 9.53876,6.22773 v 0 c 0.16452,-0.30329 0.39967,-0.62624 0.39637,-0.98808 0.0284,-0.23144 0.13186,-0.4493 0.26403,-0.64383 0.15924,-0.33649 0.17076,-0.56065 0.18027,-0.93477 0.0498,-0.42266 0.24232,-0.77638 0.41773,-1.14842 -0.023,-0.44967 -0.0498,-0.89117 -0.15555,-1.32968 -0.0844,-0.54559 -0.30607,-1.04937 -0.27001,-1.59602 10e-4,-0.3587 0.0254,-0.7251 -0.037,-1.07824 -0.0949,-0.51033 -0.13653,-1.09124 -0.4165,-1.51876 -0.0512,-0.43233 -0.0382,-0.95255 -0.36009,-1.25439 -0.0157,-0.16016 -4.1e-4,-0.32753 -0.0452,-0.4807 -0.10772,-0.36819 -0.50303,-0.62922 -0.62844,-0.98934 -0.69253,-0.73788 -1.08277,-1.78166 -1.62309,-2.65161 z"
          transform="rotate(0 739.7975 199.38038)" />
        <path
          style="fill:#44d4f1;fill-opacity:0.9;fill-rule:nonzero;stroke:#44d4f1;stroke-width:0.773518;stroke-linejoin:round;stroke-dasharray:none;stroke-dashoffset:0;stroke-opacity:0.9"
          id="path28-9-4-60"
          d="m 742.67859,203.04625 c 0.53946,0.9314 1.09899,1.84941 1.60235,2.8059 0.25143,0.22886 0.34648,0.63849 0.57815,0.88182 0.35278,0.37057 -0.10536,-0.22649 0.17035,0.14723 0.0477,0.4294 0.32325,0.73602 0.43034,1.14338 0.0718,0.53164 0.3042,1.00909 0.41031,1.53393 0.0672,0.27876 0.10579,0.56057 0.11501,0.84956 -0.017,0.62954 0.0961,1.2311 0.23207,1.83799 0.0532,0.38003 0.13903,0.75655 0.16435,1.14047 0.22339,-0.61749 -0.24082,0.79407 -0.2537,0.84546 0.007,0.0664 -0.23998,0.95483 -0.0797,0.67999 -0.15843,0.26523 -0.28679,0.57189 -0.37982,0.87954 -0.0374,0.2655 -0.0603,0.38664 -0.20645,0.60316 0,0 9.53876,6.22773 9.53876,6.22773 v 0 c 0.16452,-0.30329 0.39967,-0.62624 0.39637,-0.98808 0.0284,-0.23144 0.13186,-0.4493 0.26403,-0.64383 0.15924,-0.33649 0.17076,-0.56065 0.18027,-0.93477 0.0498,-0.42266 0.24232,-0.77638 0.41773,-1.14842 -0.023,-0.44967 -0.0498,-0.89117 -0.15555,-1.32968 -0.0844,-0.54559 -0.30607,-1.04937 -0.27001,-1.59602 10e-4,-0.3587 0.0254,-0.7251 -0.037,-1.07824 -0.0949,-0.51033 -0.13653,-1.09124 -0.4165,-1.51876 -0.0512,-0.43233 -0.0382,-0.95255 -0.36009,-1.25439 -0.0157,-0.16016 -4.1e-4,-0.32753 -0.0452,-0.4807 -0.10772,-0.36819 -0.50303,-0.62922 -0.62844,-0.98934 -0.69253,-0.73788 -1.08277,-1.78166 -1.62309,-2.65161 z"
          transform="rotate(60 739.7975 199.38038)" />
        <path
          style="fill:#44d4f1;fill-opacity:0.9;fill-rule:nonzero;stroke:#44d4f1;stroke-width:0.773518;stroke-linejoin:round;stroke-dasharray:none;stroke-dashoffset:0;stroke-opacity:0.9"
          id="path28-9-4-120"
          d="m 742.67859,203.04625 c 0.53946,0.9314 1.09899,1.84941 1.60235,2.8059 0.25143,0.22886 0.34648,0.63849 0.57815,0.88182 0.35278,0.37057 -0.10536,-0.22649 0.17035,0.14723 0.0477,0.4294 0.32325,0.73602 0.43034,1.14338 0.0718,0.53164 0.3042,1.00909 0.41031,1.53393 0.0672,0.27876 0.10579,0.56057 0.11501,0.84956 -0.017,0.62954 0.0961,1.2311 0.23207,1.83799 0.0532,0.38003 0.13903,0.75655 0.16435,1.14047 0.22339,-0.61749 -0.24082,0.79407 -0.2537,0.84546 0.007,0.0664 -0.23998,0.95483 -0.0797,0.67999 -0.15843,0.26523 -0.28679,0.57189 -0.37982,0.87954 -0.0374,0.2655 -0.0603,0.38664 -0.20645,0.60316 0,0 9.53876,6.22773 9.53876,6.22773 v 0 c 0.16452,-0.30329 0.39967,-0.62624 0.39637,-0.98808 0.0284,-0.23144 0.13186,-0.4493 0.26403,-0.64383 0.15924,-0.33649 0.17076,-0.56065 0.18027,-0.93477 0.0498,-0.42266 0.24232,-0.77638 0.41773,-1.14842 -0.023,-0.44967 -0.0498,-0.89117 -0.15555,-1.32968 -0.0844,-0.54559 -0.30607,-1.04937 -0.27001,-1.59602 10e-4,-0.3587 0.0254,-0.7251 -0.037,-1.07824 -0.0949,-0.51033 -0.13653,-1.09124 -0.4165,-1.51876 -0.0512,-0.43233 -0.0382,-0.95255 -0.36009,-1.25439 -0.0157,-0.16016 -4.1e-4,-0.32753 -0.0452,-0.4807 -0.10772,-0.36819 -0.50303,-0.62922 -0.62844,-0.98934 -0.69253,-0.73788 -1.08277,-1.78166 -1.62309,-2.65161 z"
          transform="rotate(120 739.7975 199.38038)" />
        <path
          style="fill:#44d4f1;fill-opacity:0.9;fill-rule:nonzero;stroke:#44d4f1;stroke-width:0.773518;stroke-linejoin:round;stroke-dasharray:none;stroke-dashoffset:0;stroke-opacity:0.9"
          id="path28-9-4-180"
          d="m 742.67859,203.04625 c 0.53946,0.9314 1.09899,1.84941 1.60235,2.8059 0.25143,0.22886 0.34648,0.63849 0.57815,0.88182 0.35278,0.37057 -0.10536,-0.22649 0.17035,0.14723 0.0477,0.4294 0.32325,0.73602 0.43034,1.14338 0.0718,0.53164 0.3042,1.00909 0.41031,1.53393 0.0672,0.27876 0.10579,0.56057 0.11501,0.84956 -0.017,0.62954 0.0961,1.2311 0.23207,1.83799 0.0532,0.38003 0.13903,0.75655 0.16435,1.14047 0.22339,-0.61749 -0.24082,0.79407 -0.2537,0.84546 0.007,0.0664 -0.23998,0.95483 -0.0797,0.67999 -0.15843,0.26523 -0.28679,0.57189 -0.37982,0.87954 -0.0374,0.2655 -0.0603,0.38664 -0.20645,0.60316 0,0 9.53876,6.22773 9.53876,6.22773 v 0 c 0.16452,-0.30329 0.39967,-0.62624 0.39637,-0.98808 0.0284,-0.23144 0.13186,-0.4493 0.26403,-0.64383 0.15924,-0.33649 0.17076,-0.56065 0.18027,-0.93477 0.0498,-0.42266 0.24232,-0.77638 0.41773,-1.14842 -0.023,-0.44967 -0.0498,-0.89117 -0.15555,-1.32968 -0.0844,-0.54559 -0.30607,-1.04937 -0.27001,-1.59602 10e-4,-0.3587 0.0254,-0.7251 -0.037,-1.07824 -0.0949,-0.51033 -0.13653,-1.09124 -0.4165,-1.51876 -0.0512,-0.43233 -0.0382,-0.95255 -0.36009,-1.25439 -0.0157,-0.16016 -4.1e-4,-0.32753 -0.0452,-0.4807 -0.10772,-0.36819 -0.50303,-0.62922 -0.62844,-0.98934 -0.69253,-0.73788 -1.08277,-1.78166 -1.62309,-2.65161 z"
          transform="rotate(180 739.7975 199.38038)" />
        <path
          style="fill:#44d4f1;fill-opacity:0.9;fill-rule:nonzero;stroke:#44d4f1;stroke-width:0.773518;stroke-linejoin:round;stroke-dasharray:none;stroke-dashoffset:0;stroke-opacity:0.9"
          id="path28-9-4-240"
          d="m 742.67859,203.04625 c 0.53946,0.9314 1.09899,1.84941 1.60235,2.8059 0.25143,0.22886 0.34648,0.63849 0.57815,0.88182 0.35278,0.37057 -0.10536,-0.22649 0.17035,0.14723 0.0477,0.4294 0.32325,0.73602 0.43034,1.14338 0.0718,0.53164 0.3042,1.00909 0.41031,1.53393 0.0672,0.27876 0.10579,0.56057 0.11501,0.84956 -0.017,0.62954 0.0961,1.2311 0.23207,1.83799 0.0532,0.38003 0.13903,0.75655 0.16435,1.14047 0.22339,-0.61749 -0.24082,0.79407 -0.2537,0.84546 0.007,0.0664 -0.23998,0.95483 -0.0797,0.67999 -0.15843,0.26523 -0.28679,0.57189 -0.37982,0.87954 -0.0374,0.2655 -0.0603,0.38664 -0.20645,0.60316 0,0 9.53876,6.22773 9.53876,6.22773 v 0 c 0.16452,-0.30329 0.39967,-0.62624 0.39637,-0.98808 0.0284,-0.23144 0.13186,-0.4493 0.26403,-0.64383 0.15924,-0.33649 0.17076,-0.56065 0.18027,-0.93477 0.0498,-0.42266 0.24232,-0.77638 0.41773,-1.14842 -0.023,-0.44967 -0.0498,-0.89117 -0.15555,-1.32968 -0.0844,-0.54559 -0.30607,-1.04937 -0.27001,-1.59602 10e-4,-0.3587 0.0254,-0.7251 -0.037,-1.07824 -0.0949,-0.51033 -0.13653,-1.09124 -0.4165,-1.51876 -0.0512,-0.43233 -0.0382,-0.95255 -0.36009,-1.25439 -0.0157,-0.16016 -4.1e-4,-0.32753 -0.0452,-0.4807 -0.10772,-0.36819 -0.50303,-0.62922 -0.62844,-0.98934 -0.69253,-0.73788 -1.08277,-1.78166 -1.62309,-2.65161 z"
          transform="rotate(240 739.7975 199.38038)" />
        <path
          style="fill:#44d4f1;fill-opacity:0.9;fill-rule:nonzero;stroke:#44d4f1;stroke-width:0.773518;stroke-linejoin:round;stroke-dasharray:none;stroke-dashoffset:0;stroke-opacity:0.9"
          id="path28-9-4-300"
          d="m 742.67859,203.04625 c 0.53946,0.9314 1.09899,1.84941 1.60235,2.8059 0.25143,0.22886 0.34648,0.63849 0.57815,0.88182 0.35278,0.37057 -0.10536,-0.22649 0.17035,0.14723 0.0477,0.4294 0.32325,0.73602 0.43034,1.14338 0.0718,0.53164 0.3042,1.00909 0.41031,1.53393 0.0672,0.27876 0.10579,0.56057 0.11501,0.84956 -0.017,0.62954 0.0961,1.2311 0.23207,1.83799 0.0532,0.38003 0.13903,0.75655 0.16435,1.14047 0.22339,-0.61749 -0.24082,0.79407 -0.2537,0.84546 0.007,0.0664 -0.23998,0.95483 -0.0797,0.67999 -0.15843,0.26523 -0.28679,0.57189 -0.37982,0.87954 -0.0374,0.2655 -0.0603,0.38664 -0.20645,0.60316 0,0 9.53876,6.22773 9.53876,6.22773 v 0 c 0.16452,-0.30329 0.39967,-0.62624 0.39637,-0.98808 0.0284,-0.23144 0.13186,-0.4493 0.26403,-0.64383 0.15924,-0.33649 0.17076,-0.56065 0.18027,-0.93477 0.0498,-0.42266 0.24232,-0.77638 0.41773,-1.14842 -0.023,-0.44967 -0.0498,-0.89117 -0.15555,-1.32968 -0.0844,-0.54559 -0.30607,-1.04937 -0.27001,-1.59602 10e-4,-0.3587 0.0254,-0.7251 -0.037,-1.07824 -0.0949,-0.51033 -0.13653,-1.09124 -0.4165,-1.51876 -0.0512,-0.43233 -0.0382,-0.95255 -0.36009,-1.25439 -0.0157,-0.16016 -4.1e-4,-0.32753 -0.0452,-0.4807 -0.10772,-0.36819 -0.50303,-0.62922 -0.62844,-0.98934 -0.69253,-0.73788 -1.08277,-1.78166 -1.62309,-2.65161 z"
          transform="rotate(300 739.7975 199.38038)" />
      </g>
    <circle
       style="fill:#ffffff;fill-opacity:1;fill-rule:nonzero;stroke:#000000;stroke-width:0.636857;stroke-linejoin:round;stroke-dasharray:none;stroke-dashoffset:0;stroke-opacity:1"
       id="path30-6"
       cx="739.80804"
       cy="199.15349"
       r="4.6815715" />
    <circle
       style="fill:#ffffff;fill-opacity:1;fill-rule:nonzero;stroke:#000000;stroke-width:0.636857;stroke-linejoin:round;stroke-dasharray:none;stroke-dashoffset:0;stroke-opacity:1"
       id="path30-8"
       cx="355.22699"
       cy="199.20859"
       r="4.6815715" />
    <path
       d="m 739.99921,164.38202 a 34.617977,34.617981 0 0 0 -34.61719,34.61719 34.617977,34.617981 0 0 0 34.61719,34.61719 34.617977,34.617981 0 0 0 34.61719,-34.61719 34.617977,34.617981 0 0 0 -34.61719,-34.61719 z m 0,4.91406 a 29.703558,29.703558 0 0 1 29.70312,29.70313 29.703558,29.703558 0 0 1 -29.70312,29.70312 29.703558,29.703558 0 0 1 -29.70313,-29.70312 29.703558,29.703558 0 0 1 29.70313,-29.70313 z"
       style="fill:#ffffff;stroke:#000000;stroke-width:0.76404;stroke-linejoin:round"
       id="path32" />
    <path
       d="m 109.7975,169.23679 a 29.703558,29.703558 0 0 0 -29.70313,29.70313 29.703558,29.703558 0 0 0 29.70313,29.70312 29.703558,29.703558 0 0 0 29.70312,-29.70312 29.703558,29.703558 0 0 0 -29.70312,-29.70313 z m 0,24.75196 a 4.9505925,4.950593 0 0 1 4.95117,4.95117 4.9505925,4.950593 0 0 1 -4.95117,4.95117 4.9505925,4.950593 0 0 1 -4.95117,-4.95117 4.9505925,4.950593 0 0 1 4.95117,-4.95117 z"
       style="fill:none;fill-opacity:0.9;stroke:#000000;stroke-width:0.592884;stroke-linejoin:round;stroke-opacity:1"
       id="path19-4-0-1" />
      <g id="fan-blades-4" data-running-status="off">
        <animateTransform
          id="fan-animate-4"
          attributeName="transform"
          type="rotate"
          from="0 109.7975 199.38038"
          to="360 109.7975 199.38038"
          dur="2s"
          repeatCount="indefinite"
          begin="indefinite" />
        <path
          style="fill:#44d4f1;fill-opacity:0.9;fill-rule:nonzero;stroke:#44d4f1;stroke-width:0.773518;stroke-linejoin:round;stroke-dasharray:none;stroke-dashoffset:0;stroke-opacity:0.9"
          id="path28-9-4-1"
          d="m 112.67859,203.04625 c 0.53946,0.9314 1.09899,1.84941 1.60235,2.8059 0.25143,0.22886 0.34648,0.63849 0.57815,0.88182 0.35278,0.37057 -0.10536,-0.22649 0.17035,0.14723 0.0477,0.4294 0.32325,0.73602 0.43034,1.14338 0.0718,0.53164 0.3042,1.00909 0.41031,1.53393 0.0672,0.27876 0.10579,0.56057 0.11501,0.84956 -0.017,0.62954 0.0961,1.2311 0.23207,1.83799 0.0532,0.38003 0.13903,0.75655 0.16435,1.14047 0.22339,-0.61749 -0.24082,0.79407 -0.2537,0.84546 0.007,0.0664 -0.23998,0.95483 -0.0797,0.67999 -0.15843,0.26523 -0.28679,0.57189 -0.37982,0.87954 -0.0374,0.2655 -0.0603,0.38664 -0.20645,0.60316 0,0 9.53876,6.22773 9.53876,6.22773 v 0 c 0.16452,-0.30329 0.39967,-0.62624 0.39637,-0.98808 0.0284,-0.23144 0.13186,-0.4493 0.26403,-0.64383 0.15924,-0.33649 0.17076,-0.56065 0.18027,-0.93477 0.0498,-0.42266 0.24232,-0.77638 0.41773,-1.14842 -0.023,-0.44967 -0.0498,-0.89117 -0.15555,-1.32968 -0.0844,-0.54559 -0.30607,-1.04937 -0.27001,-1.59602 0.001,-0.3587 0.0254,-0.7251 -0.037,-1.07824 -0.0949,-0.51033 -0.13653,-1.09124 -0.4165,-1.51876 -0.0512,-0.43233 -0.0382,-0.95255 -0.36009,-1.25439 -0.0157,-0.16016 -4.1e-4,-0.32753 -0.0452,-0.4807 -0.10772,-0.36819 -0.50303,-0.62922 -0.62844,-0.98934 -0.69253,-0.73788 -1.08277,-1.78166 -1.62309,-2.65161 z"
          transform="rotate(0 109.7975 199.38038)" />
        <path
          style="fill:#44d4f1;fill-opacity:0.9;fill-rule:nonzero;stroke:#44d4f1;stroke-width:0.773518;stroke-linejoin:round;stroke-dasharray:none;stroke-dashoffset:0;stroke-opacity:0.9"
          id="path28-9-4-1-60"
          d="m 112.67859,203.04625 c 0.53946,0.9314 1.09899,1.84941 1.60235,2.8059 0.25143,0.22886 0.34648,0.63849 0.57815,0.88182 0.35278,0.37057 -0.10536,-0.22649 0.17035,0.14723 0.0477,0.4294 0.32325,0.73602 0.43034,1.14338 0.0718,0.53164 0.3042,1.00909 0.41031,1.53393 0.0672,0.27876 0.10579,0.56057 0.11501,0.84956 -0.017,0.62954 0.0961,1.2311 0.23207,1.83799 0.0532,0.38003 0.13903,0.75655 0.16435,1.14047 0.22339,-0.61749 -0.24082,0.79407 -0.2537,0.84546 0.007,0.0664 -0.23998,0.95483 -0.0797,0.67999 -0.15843,0.26523 -0.28679,0.57189 -0.37982,0.87954 -0.0374,0.2655 -0.0603,0.38664 -0.20645,0.60316 0,0 9.53876,6.22773 9.53876,6.22773 v 0 c 0.16452,-0.30329 0.39967,-0.62624 0.39637,-0.98808 0.0284,-0.23144 0.13186,-0.4493 0.26403,-0.64383 0.15924,-0.33649 0.17076,-0.56065 0.18027,-0.93477 0.0498,-0.42266 0.24232,-0.77638 0.41773,-1.14842 -0.023,-0.44967 -0.0498,-0.89117 -0.15555,-1.32968 -0.0844,-0.54559 -0.30607,-1.04937 -0.27001,-1.59602 0.001,-0.3587 0.0254,-0.7251 -0.037,-1.07824 -0.0949,-0.51033 -0.13653,-1.09124 -0.4165,-1.51876 -0.0512,-0.43233 -0.0382,-0.95255 -0.36009,-1.25439 -0.0157,-0.16016 -4.1e-4,-0.32753 -0.0452,-0.4807 -0.10772,-0.36819 -0.50303,-0.62922 -0.62844,-0.98934 -0.69253,-0.73788 -1.08277,-1.78166 -1.62309,-2.65161 z"
          transform="rotate(60 109.7975 199.38038)" />
        <path
          style="fill:#44d4f1;fill-opacity:0.9;fill-rule:nonzero;stroke:#44d4f1;stroke-width:0.773518;stroke-linejoin:round;stroke-dasharray:none;stroke-dashoffset:0;stroke-opacity:0.9"
          id="path28-9-4-1-120"
          d="m 112.67859,203.04625 c 0.53946,0.9314 1.09899,1.84941 1.60235,2.8059 0.25143,0.22886 0.34648,0.63849 0.57815,0.88182 0.35278,0.37057 -0.10536,-0.22649 0.17035,0.14723 0.0477,0.4294 0.32325,0.73602 0.43034,1.14338 0.0718,0.53164 0.3042,1.00909 0.41031,1.53393 0.0672,0.27876 0.10579,0.56057 0.11501,0.84956 -0.017,0.62954 0.0961,1.2311 0.23207,1.83799 0.0532,0.38003 0.13903,0.75655 0.16435,1.14047 0.22339,-0.61749 -0.24082,0.79407 -0.2537,0.84546 0.007,0.0664 -0.23998,0.95483 -0.0797,0.67999 -0.15843,0.26523 -0.28679,0.57189 -0.37982,0.87954 -0.0374,0.2655 -0.0603,0.38664 -0.20645,0.60316 0,0 9.53876,6.22773 9.53876,6.22773 v 0 c 0.16452,-0.30329 0.39967,-0.62624 0.39637,-0.98808 0.0284,-0.23144 0.13186,-0.4493 0.26403,-0.64383 0.15924,-0.33649 0.17076,-0.56065 0.18027,-0.93477 0.0498,-0.42266 0.24232,-0.77638 0.41773,-1.14842 -0.023,-0.44967 -0.0498,-0.89117 -0.15555,-1.32968 -0.0844,-0.54559 -0.30607,-1.04937 -0.27001,-1.59602 0.001,-0.3587 0.0254,-0.7251 -0.037,-1.07824 -0.0949,-0.51033 -0.13653,-1.09124 -0.4165,-1.51876 -0.0512,-0.43233 -0.0382,-0.95255 -0.36009,-1.25439 -0.0157,-0.16016 -4.1e-4,-0.32753 -0.0452,-0.4807 -0.10772,-0.36819 -0.50303,-0.62922 -0.62844,-0.98934 -0.69253,-0.73788 -1.08277,-1.78166 -1.62309,-2.65161 z"
          transform="rotate(120 109.7975 199.38038)" />
        <path
          style="fill:#44d4f1;fill-opacity:0.9;fill-rule:nonzero;stroke:#44d4f1;stroke-width:0.773518;stroke-linejoin:round;stroke-dasharray:none;stroke-dashoffset:0;stroke-opacity:0.9"
          id="path28-9-4-1-180"
          d="m 112.67859,203.04625 c 0.53946,0.9314 1.09899,1.84941 1.60235,2.8059 0.25143,0.22886 0.34648,0.63849 0.57815,0.88182 0.35278,0.37057 -0.10536,-0.22649 0.17035,0.14723 0.0477,0.4294 0.32325,0.73602 0.43034,1.14338 0.0718,0.53164 0.3042,1.00909 0.41031,1.53393 0.0672,0.27876 0.10579,0.56057 0.11501,0.84956 -0.017,0.62954 0.0961,1.2311 0.23207,1.83799 0.0532,0.38003 0.13903,0.75655 0.16435,1.14047 0.22339,-0.61749 -0.24082,0.79407 -0.2537,0.84546 0.007,0.0664 -0.23998,0.95483 -0.0797,0.67999 -0.15843,0.26523 -0.28679,0.57189 -0.37982,0.87954 -0.0374,0.2655 -0.0603,0.38664 -0.20645,0.60316 0,0 9.53876,6.22773 9.53876,6.22773 v 0 c 0.16452,-0.30329 0.39967,-0.62624 0.39637,-0.98808 0.0284,-0.23144 0.13186,-0.4493 0.26403,-0.64383 0.15924,-0.33649 0.17076,-0.56065 0.18027,-0.93477 0.0498,-0.42266 0.24232,-0.77638 0.41773,-1.14842 -0.023,-0.44967 -0.0498,-0.89117 -0.15555,-1.32968 -0.0844,-0.54559 -0.30607,-1.04937 -0.27001,-1.59602 0.001,-0.3587 0.0254,-0.7251 -0.037,-1.07824 -0.0949,-0.51033 -0.13653,-1.09124 -0.4165,-1.51876 -0.0512,-0.43233 -0.0382,-0.95255 -0.36009,-1.25439 -0.0157,-0.16016 -4.1e-4,-0.32753 -0.0452,-0.4807 -0.10772,-0.36819 -0.50303,-0.62922 -0.62844,-0.98934 -0.69253,-0.73788 -1.08277,-1.78166 -1.62309,-2.65161 z"
          transform="rotate(180 109.7975 199.38038)" />
        <path
          style="fill:#44d4f1;fill-opacity:0.9;fill-rule:nonzero;stroke:#44d4f1;stroke-width:0.773518;stroke-linejoin:round;stroke-dasharray:none;stroke-dashoffset:0;stroke-opacity:0.9"
          id="path28-9-4-1-240"
          d="m 112.67859,203.04625 c 0.53946,0.9314 1.09899,1.84941 1.60235,2.8059 0.25143,0.22886 0.34648,0.63849 0.57815,0.88182 0.35278,0.37057 -0.10536,-0.22649 0.17035,0.14723 0.0477,0.4294 0.32325,0.73602 0.43034,1.14338 0.0718,0.53164 0.3042,1.00909 0.41031,1.53393 0.0672,0.27876 0.10579,0.56057 0.11501,0.84956 -0.017,0.62954 0.0961,1.2311 0.23207,1.83799 0.0532,0.38003 0.13903,0.75655 0.16435,1.14047 0.22339,-0.61749 -0.24082,0.79407 -0.2537,0.84546 0.007,0.0664 -0.23998,0.95483 -0.0797,0.67999 -0.15843,0.26523 -0.28679,0.57189 -0.37982,0.87954 -0.0374,0.2655 -0.0603,0.38664 -0.20645,0.60316 0,0 9.53876,6.22773 9.53876,6.22773 v 0 c 0.16452,-0.30329 0.39967,-0.62624 0.39637,-0.98808 0.0284,-0.23144 0.13186,-0.4493 0.26403,-0.64383 0.15924,-0.33649 0.17076,-0.56065 0.18027,-0.93477 0.0498,-0.42266 0.24232,-0.77638 0.41773,-1.14842 -0.023,-0.44967 -0.0498,-0.89117 -0.15555,-1.32968 -0.0844,-0.54559 -0.30607,-1.04937 -0.27001,-1.59602 0.001,-0.3587 0.0254,-0.7251 -0.037,-1.07824 -0.0949,-0.51033 -0.13653,-1.09124 -0.4165,-1.51876 -0.0512,-0.43233 -0.0382,-0.95255 -0.36009,-1.25439 -0.0157,-0.16016 -4.1e-4,-0.32753 -0.0452,-0.4807 -0.10772,-0.36819 -0.50303,-0.62922 -0.62844,-0.98934 -0.69253,-0.73788 -1.08277,-1.78166 -1.62309,-2.65161 z"
          transform="rotate(240 109.7975 199.38038)" />
        <path
          style="fill:#44d4f1;fill-opacity:0.9;fill-rule:nonzero;stroke:#44d4f1;stroke-width:0.773518;stroke-linejoin:round;stroke-dasharray:none;stroke-dashoffset:0;stroke-opacity:0.9"
          id="path28-9-4-1-300"
          d="m 112.67859,203.04625 c 0.53946,0.9314 1.09899,1.84941 1.60235,2.8059 0.25143,0.22886 0.34648,0.63849 0.57815,0.88182 0.35278,0.37057 -0.10536,-0.22649 0.17035,0.14723 0.0477,0.4294 0.32325,0.73602 0.43034,1.14338 0.0718,0.53164 0.3042,1.00909 0.41031,1.53393 0.0672,0.27876 0.10579,0.56057 0.11501,0.84956 -0.017,0.62954 0.0961,1.2311 0.23207,1.83799 0.0532,0.38003 0.13903,0.75655 0.16435,1.14047 0.22339,-0.61749 -0.24082,0.79407 -0.2537,0.84546 0.007,0.0664 -0.23998,0.95483 -0.0797,0.67999 -0.15843,0.26523 -0.28679,0.57189 -0.37982,0.87954 -0.0374,0.2655 -0.0603,0.38664 -0.20645,0.60316 0,0 9.53876,6.22773 9.53876,6.22773 v 0 c 0.16452,-0.30329 0.39967,-0.62624 0.39637,-0.98808 0.0284,-0.23144 0.13186,-0.4493 0.26403,-0.64383 0.15924,-0.33649 0.17076,-0.56065 0.18027,-0.93477 0.0498,-0.42266 0.24232,-0.77638 0.41773,-1.14842 -0.023,-0.44967 -0.0498,-0.89117 -0.15555,-1.32968 -0.0844,-0.54559 -0.30607,-1.04937 -0.27001,-1.59602 0.001,-0.3587 0.0254,-0.7251 -0.037,-1.07824 -0.0949,-0.51033 -0.13653,-1.09124 -0.4165,-1.51876 -0.0512,-0.43233 -0.0382,-0.95255 -0.36009,-1.25439 -0.0157,-0.16016 -4.1e-4,-0.32753 -0.0452,-0.4807 -0.10772,-0.36819 -0.50303,-0.62922 -0.62844,-0.98934 -0.69253,-0.73788 -1.08277,-1.78166 -1.62309,-2.65161 z"
          transform="rotate(300 109.7975 199.38038)" />
      </g>
    <circle
       style="fill:#ffffff;fill-opacity:1;fill-rule:nonzero;stroke:#000000;stroke-width:0.636857;stroke-linejoin:round;stroke-dasharray:none;stroke-dashoffset:0;stroke-opacity:1"
       id="path30-6-8"
       cx="109.80804"
       cy="199.1535"
       r="4.6815715" />
    <path
       d="m 109.99921,164.38202 a 34.617977,34.617981 0 0 0 -34.61719,34.61719 34.617977,34.617981 0 0 0 34.61719,34.61719 34.617977,34.617981 0 0 0 34.61719,-34.61719 34.617977,34.617981 0 0 0 -34.61719,-34.61719 z m 0,4.91406 a 29.703558,29.703558 0 0 1 29.70312,29.70313 29.703558,29.703558 0 0 1 -29.70312,29.70312 29.703558,29.703558 0 0 1 -29.70313,-29.70312 29.703558,29.703558 0 0 1 29.70313,-29.70313 z"
       style="fill:#ffffff;stroke:#000000;stroke-width:0.76404;stroke-linejoin:round"
       id="path32-3" />
    <rect
       style="fill:url(#linearGradient33);fill-rule:nonzero;stroke:none;stroke-width:0.950829;stroke-linejoin:round;stroke-dasharray:none;stroke-dashoffset:0;stroke-opacity:1"
       id="rect32"
       width="26"
       height="42"
       x="444.81134"
       y="79.333908" />
    <path
       d="m 622.28186,148.26231 h -7.95807 V 118.70074 H 470.96312 V 111.636 h 151.31874 z"
       style="fill:#283f7b;fill-opacity:0.196262;stroke:#3caadc;stroke-width:0.935573;stroke-linejoin:round;stroke-opacity:0.9"
       id="path40-5" />
    <path
       d="m 232.41516,250.99411 h 7.95807 v 29.56157 H 383.7339 v 7.06474 H 232.41516 Z"
       style="fill:#d2cd53;fill-opacity:0.19607843;stroke:#e0bb2d;stroke-width:0.935573;stroke-linejoin:round;stroke-opacity:0.89999998"
       id="path40-5-7" />
    <rect
       style="fill:url(#linearGradient38);fill-rule:nonzero;stroke:none;stroke-width:0.651068;stroke-linejoin:round;stroke-dasharray:none;stroke-dashoffset:0;stroke-opacity:1"
       id="rect32-5"
       width="16"
       height="32"
       x="107.12962"
       y="-549.33771"
       transform="rotate(90)" />
    <rect
       style="fill:url(#linearGradient39);fill-rule:nonzero;stroke:none;stroke-width:0.651068;stroke-linejoin:round;stroke-dasharray:none;stroke-dashoffset:0;stroke-opacity:1"
       id="rect32-5-0"
       width="16"
       height="32"
       x="276.35513"
       y="-349.02805"
       transform="rotate(90)" />
    <rect
       style="fill:url(#linearGradient37);fill-rule:nonzero;stroke:none;stroke-width:0.950829;stroke-linejoin:round;stroke-dasharray:none;stroke-dashoffset:0;stroke-opacity:1"
       id="rect32-4"
       width="26"
       height="42"
       x="382.42056"
       y="278.14954" />
    <path
       d="m 549.9997,40.994445 v 7.06446 h 8.27539 v 4.57226 h 7.95898 v -4.57226 h 9.42383 v -7.06446 h -9.42383 -7.95898 z"
       style="fill:#14e7eb;fill-opacity:1;stroke:none;stroke-width:0.998;stroke-linejoin:round;stroke-opacity:0.9"
       id="path41" />
    <path
       d="m 606.10527,149.32094 v -7.06446 h 8.27539 v -4.57227 h 7.95898 v 4.57227 h 9.42383 v 7.06446 h -9.42383 -7.95898 z"
       style="fill:#14e7eb;fill-opacity:1;stroke:none;stroke-width:0.998;stroke-linejoin:round;stroke-opacity:0.9"
       id="path41-4" />
    <path
       d="m 283.23684,359.39989 v -7.06446 h 8.27539 v -4.57227 h 7.95898 v 4.57227 h 9.42383 v 7.06446 h -9.42383 -7.95898 z"
       style="fill:#e0bb2d;fill-opacity:0.89999998;stroke:none;stroke-width:0.998;stroke-linejoin:round;stroke-opacity:0.9"
       id="path41-4-3" />
    <path
       d="m 224.5,250.97368 v 7.06446 h 8.27539 v 4.57227 h 7.95898 v -4.57227 h 9.42383 v -7.06446 h -9.42383 -7.95898 z"
       style="fill:#e0bb2d;fill-opacity:0.90000004;stroke:none;stroke-width:0.998;stroke-linejoin:round;stroke-opacity:0.9"
       id="path41-4-3-1" />
    <g id="flow-arrow-1" data-running-status="off" style="visibility: hidden;">
      <path
         id="path89"
         style="fill:#e0bb2d;fill-opacity:0.9;stroke-width:0.203219;stroke-linejoin:round;stroke-opacity:0.9"
         d="m 319.4048,251.43145 -7.77539,2.76172 -0.22461,0.0176 8,3.2207 v -2.06445 h -0.041 v -2 h 0.041 z m -0.18762,1.93555 v 2 h 12.95899 v -2 z">
        <animateTransform attributeName="transform" type="translate" from="0,0" to="-80,0" dur="2s" repeatCount="indefinite" begin="indefinite" calcMode="linear" />
        <animate attributeName="opacity" values="0; 1; 1; 0; 0" dur="2s" repeatCount="indefinite" begin="indefinite" calcMode="linear" />
      </path>
    </g>
    <g id="flow-arrow-2" data-running-status="off" style="visibility: hidden;">
      <path
         id="path89-4"
         style="fill:#e0bb2d;fill-opacity:0.9;stroke-width:0.203219;stroke-linejoin:round;stroke-opacity:0.9"
         d="m 302.12766,281.25532 -7.77539,2.76172 -0.22461,0.0176 8,3.2207 v -2.06445 h -0.041 v -2 h 0.041 z m -0.18762,1.93555 v 2 h 12.95899 v -2 z">
        <animateTransform attributeName="transform" type="translate" from="0,0" to="-80,0" dur="2s" repeatCount="indefinite" begin="indefinite" calcMode="linear" />
        <animate attributeName="opacity" values="0; 1; 1; 0; 0" dur="2s" repeatCount="indefinite" begin="indefinite" calcMode="linear" />
      </path>
    </g>
    <g id="arrow-group-path89-07" data-running-status="off" style="visibility: hidden;">
      <path
         id="path89-07"
         style="fill:#e0bb2d;fill-opacity:0.9;stroke-width:0.203219;stroke-linejoin:round;stroke-opacity:0.9"
         d="m 151.40695,304.55591 2.76172,7.77539 0.0176,0.22461 3.22071,-8 h -2.06446 v 0.041 h -2 v -0.041 z m 1.93555,0.18762 h 2 v -12.95899 h -2 z">
        <animateTransform attributeName="transform" type="translate" from="0,0" to="0,50" dur="2s" repeatCount="indefinite" begin="indefinite" calcMode="linear" />
        <animate attributeName="opacity" values="0; 1; 1; 0; 0" dur="2s" repeatCount="indefinite" begin="indefinite" calcMode="linear" />
      </path>
    </g>
    <g id="arrow-group-path89-07-2" data-running-status="off" style="visibility: hidden;">
      <path
         id="path89-07-2"
         style="fill:#e0bb2d;fill-opacity:0.9;stroke-width:0.203219;stroke-linejoin:round;stroke-opacity:0.9"
         d="m 692.48936,309.02128 2.76172,-7.77539 0.0176,-0.22461 3.22071,8 h -2.06446 v -0.041 h -2 v 0.041 z m 1.93555,-0.18762 h 2 v 12.95899 h -2 z">
        <animateTransform attributeName="transform" type="translate" from="0,0" to="0,-50" dur="2s" repeatCount="indefinite" begin="indefinite" calcMode="linear" />
        <animate attributeName="opacity" values="0; 1; 1; 0; 0" dur="2s" repeatCount="indefinite" begin="indefinite" calcMode="linear" />
      </path>
    </g>
    <g id="arrow-group-path89-0" data-running-status="off" style="visibility: hidden;">
      <path
         id="path89-0"
         style="fill:#e0bb2d;fill-opacity:0.9;stroke-width:0.203219;stroke-linejoin:round;stroke-opacity:0.9"
         d="m 500.57303,251.31453 -7.77539,2.76172 -0.22461,0.0176 8,3.2207 v -2.06445 h -0.041 v -2 h 0.041 z m -0.18762,1.93555 v 2 h 12.95899 v -2 z">
        <animateTransform attributeName="transform" type="translate" from="0,0" to="-80,0" dur="2s" repeatCount="indefinite" begin="indefinite" calcMode="linear" />
        <animate attributeName="opacity" values="0; 1; 1; 0; 0" dur="2s" repeatCount="indefinite" begin="indefinite" calcMode="linear" />
      </path>
    </g>
    <g id="arrow-group-path89-7" data-running-status="off" style="visibility: hidden;">
      <path
         id="path89-7"
         style="fill:#e0bb2d;fill-opacity:0.9;stroke-width:0.203219;stroke-linejoin:round;stroke-opacity:0.9"
         d="m 653.4507,251.43992 -7.77539,2.76172 -0.22461,0.0176 8,3.2207 v -2.06445 h -0.041 v -2 h 0.041 z m -0.18762,1.93555 v 2 h 12.95899 v -2 z">
        <animateTransform attributeName="transform" type="translate" from="0,0" to="-80,0" dur="2s" repeatCount="indefinite" begin="indefinite" calcMode="linear" />
        <animate attributeName="opacity" values="0; 1; 1; 0; 0" dur="2s" repeatCount="indefinite" begin="indefinite" calcMode="linear" />
      </path>
    </g>
    <g id="arrow-group-path89-1" data-running-status="off" style="visibility: hidden;">
      <path
         id="path89-1"
         style="fill:#e0bb2d;fill-opacity:0.9;stroke-width:0.203219;stroke-linejoin:round;stroke-opacity:0.9"
         d="m 566.50741,352.77559 7.77539,2.76172 0.22461,0.0176 -8,3.2207 v -2.06445 h 0.041 v -2 h -0.041 z m 0.18762,1.93555 v 2 h -12.95899 v -2 z">
        <animateTransform attributeName="transform" type="translate" from="0,0" to="80,0" dur="2s" repeatCount="indefinite" begin="indefinite" calcMode="linear" />
        <animate attributeName="opacity" values="0; 1; 1; 0; 0" dur="2s" repeatCount="indefinite" begin="indefinite" calcMode="linear" />
      </path>
    </g>
    <g id="arrow-group-path89-0-4" data-running-status="off" style="visibility: hidden;">
      <path
         id="path89-0-4"
         style="fill:#e0bb2d;fill-opacity:0.9;stroke-width:0.203219;stroke-linejoin:round;stroke-opacity:0.9"
         d="m 385.33918,352.65867 7.77539,2.76172 0.22461,0.0176 -8,3.2207 v -2.06445 h 0.041 v -2 h -0.041 z m 0.18762,1.93555 v 2 h -12.95899 v -2 z">
        <animateTransform attributeName="transform" type="translate" from="0,0" to="80,0" dur="2s" repeatCount="indefinite" begin="indefinite" calcMode="linear" />
        <animate attributeName="opacity" values="0; 1; 1; 0; 0" dur="2s" repeatCount="indefinite" begin="indefinite" calcMode="linear" />
      </path>
    </g>
    <g id="arrow-group-path89-0-4-9" data-running-status="off" style="visibility: hidden;">
      <path
         id="path89-0-4-9"
         style="fill:#e0bb2d;fill-opacity:0.9;stroke-width:0.203219;stroke-linejoin:round;stroke-opacity:0.9"
         d="m 349.28201,319.10638 7.77539,2.76172 0.22461,0.0176 -8,3.2207 v -2.06445 h 0.041 v -2 h -0.041 z m 0.18762,1.93555 v 2 h -12.95899 v -2 z">
        <animateTransform attributeName="transform" type="translate" from="0,0" to="80,0" dur="2s" repeatCount="indefinite" begin="indefinite" calcMode="linear" />
        <animate attributeName="opacity" values="0; 1; 1; 0; 0" dur="2s" repeatCount="indefinite" begin="indefinite" calcMode="linear" />
      </path>
    </g>
    <g id="arrow-group-path89-7-8" data-running-status="off" style="visibility: hidden;">
      <path
         id="path89-7-8"
         style="fill:#e0bb2d;fill-opacity:0.9;stroke-width:0.203219;stroke-linejoin:round;stroke-opacity:0.9"
         d="m 232.46151,352.78406 7.77539,2.76172 0.22461,0.0176 -8,3.2207 v -2.06445 h 0.041 v -2 h -0.041 z m 0.18762,1.93555 v 2 h -12.95899 v -2 z">
        <animateTransform attributeName="transform" type="translate" from="0,0" to="80,0" dur="2s" repeatCount="indefinite" begin="indefinite" calcMode="linear" />
        <animate attributeName="opacity" values="0; 1; 1; 0; 0" dur="2s" repeatCount="indefinite" begin="indefinite" calcMode="linear" />
      </path>
    </g>
    <g id="arrow-group-path89-1-9" data-running-status="off" style="visibility: hidden;">
      <path
         id="path89-1-9"
         style="fill:#44d4f1;fill-opacity:0.90196079;stroke-width:0.203219;stroke-linejoin:round;stroke-opacity:0.9"
         d="m 264.19149,41.457345 -7.77539,2.76172 -0.22461,0.0176 8,3.2207 v -2.06445 h -0.041 v -2 h 0.041 z m -0.18762,1.93555 v 2 h 12.95899 v -2 z">
        <animateTransform attributeName="transform" type="translate" from="0,0" to="-80,0" dur="2s" repeatCount="indefinite" begin="indefinite" calcMode="linear" />
        <animate attributeName="opacity" values="0; 1; 1; 0; 0" dur="2s" repeatCount="indefinite" begin="indefinite" calcMode="linear" />
      </path>
    </g>
    <g id="arrow-group-path89-1-9-3" data-running-status="off" style="visibility: hidden;">
      <path
         id="path89-1-9-3"
         style="fill:#44d4f1;fill-opacity:0.901961;stroke-width:0.203219;stroke-linejoin:round;stroke-opacity:0.9"
         d="m 151.66227,97.789955 2.76173,7.775395 0.0176,0.22461 3.22069,-8.000005 h -2.06444 v 0.041 h -2 v -0.041 z m 1.93556,0.18762 h 2 v -12.95899 h -2 z">
        <animateTransform attributeName="transform" type="translate" from="0,0" to="0,50" dur="2s" repeatCount="indefinite" begin="indefinite" calcMode="linear" />
        <animate attributeName="opacity" values="0; 1; 1; 0; 0" dur="2s" repeatCount="indefinite" begin="indefinite" calcMode="linear" />
      </path>
    </g>
    <g id="arrow-group-path89-1-9-3-0" data-running-status="off" style="visibility: hidden;">
      <path
         id="path89-1-9-3-0"
         style="fill:#44d4f1;fill-opacity:0.901961;stroke-width:0.203219;stroke-linejoin:round;stroke-opacity:0.9"
         d="m 692.3617,93.40426 2.76173,-7.775395 0.0176,-0.22461 3.22069,8.000005 h -2.06444 v -0.041 h -2 v 0.041 z m 1.93556,-0.18762 h 2 v 12.95899 h -2 z">
        <animateTransform attributeName="transform" type="translate" from="0,0" to="0,-50" dur="2s" repeatCount="indefinite" begin="indefinite" calcMode="linear" />
        <animate attributeName="opacity" values="0; 1; 1; 0; 0" dur="2s" repeatCount="indefinite" begin="indefinite" calcMode="linear" />
      </path>
    </g>
    <g id="arrow-group-path89-0-4-0" data-running-status="off" style="visibility: hidden;">
      <path
         id="path89-0-4-0"
         style="fill:#44d4f1;fill-opacity:0.90196079;stroke-width:0.203219;stroke-linejoin:round;stroke-opacity:0.9"
         d="m 445.35972,41.340425 -7.77539,2.76172 -0.22461,0.0176 8,3.2207 v -2.06445 h -0.041 v -2 h 0.041 z m -0.18762,1.93555 v 2 h 12.95899 v -2 z">
        <animateTransform attributeName="transform" type="translate" from="0,0" to="-80,0" dur="2s" repeatCount="indefinite" begin="indefinite" calcMode="linear" />
        <animate attributeName="opacity" values="0; 1; 1; 0; 0" dur="2s" repeatCount="indefinite" begin="indefinite" calcMode="linear" />
      </path>
    </g>
    <g id="arrow-group-path89-0-4-0-0" data-running-status="off" style="visibility: hidden;">
      <path
         id="path89-0-4-0-0"
         style="fill:#44d4f1;fill-opacity:0.901961;stroke-width:0.203219;stroke-linejoin:round;stroke-opacity:0.9"
         d="m 499.78723,75 -7.77539,2.76171 -0.22461,0.0176 8,3.22071 v -2.06446 h -0.041 v -2 h 0.041 z m -0.18762,1.93554 v 2 h 12.95899 v -2 z">
        <animateTransform attributeName="transform" type="translate" from="0,0" to="-80,0" dur="2s" repeatCount="indefinite" begin="indefinite" calcMode="linear" />
        <animate attributeName="opacity" values="0; 1; 1; 0; 0" dur="2s" repeatCount="indefinite" begin="indefinite" calcMode="linear" />
      </path>
    </g>
    <g id="arrow-group-path89-7-8-0" data-running-status="off" style="visibility: hidden;">
      <path
         id="path89-7-8-0"
         style="fill:#44d4f1;fill-opacity:0.90196079;stroke-width:0.203219;stroke-linejoin:round;stroke-opacity:0.9"
         d="m 598.23739,41.465815 -7.77539,2.76172 -0.22461,0.0176 8,3.2207 v -2.06445 h -0.041 v -2 h 0.041 z m -0.18762,1.93555 v 2 h 12.95899 v -2 z">
        <animateTransform attributeName="transform" type="translate" from="0,0" to="-80,0" dur="2s" repeatCount="indefinite" begin="indefinite" calcMode="linear" />
        <animate attributeName="opacity" values="0; 1; 1; 0; 0" dur="2s" repeatCount="indefinite" begin="indefinite" calcMode="linear" />
      </path>
    </g>
    <g id="arrow-group-path89-1-9-2" data-running-status="off" style="visibility: hidden;">
      <path
         id="path89-1-9-2"
         style="fill:#44d4f1;fill-opacity:0.901961;stroke-width:0.203219;stroke-linejoin:round;stroke-opacity:0.9"
         d="m 569.73216,142.56373 7.77539,2.76172 0.22461,0.0176 -8,3.2207 v -2.06445 h 0.041 v -2 h -0.041 z m 0.18762,1.93555 v 2 h -12.95899 v -2 z">
        <animateTransform attributeName="transform" type="translate" from="0,0" to="80,0" dur="2s" repeatCount="indefinite" begin="indefinite" calcMode="linear" />
        <animate attributeName="opacity" values="0; 1; 1; 0; 0" dur="2s" repeatCount="indefinite" begin="indefinite" calcMode="linear" />
      </path>
    </g>
    <g id="arrow-group-path89-1-9-2-7" data-running-status="off" style="visibility: hidden;">
      <path
         id="path89-1-9-2-7"
         style="fill:#44d4f1;fill-opacity:0.901961;stroke-width:0.203219;stroke-linejoin:round;stroke-opacity:0.9"
         d="m 549.81392,112.02128 7.77539,2.76172 0.22461,0.0176 -8,3.2207 v -2.06445 h 0.041 v -2 h -0.041 z m 0.18762,1.93555 v 2 h -12.95899 v -2 z">
        <animateTransform attributeName="transform" type="translate" from="0,0" to="80,0" dur="2s" repeatCount="indefinite" begin="indefinite" calcMode="linear" />
        <animate attributeName="opacity" values="0; 1; 1; 0; 0" dur="2s" repeatCount="indefinite" begin="indefinite" calcMode="linear" />
      </path>
    </g>
    <g id="arrow-group-path89-0-4-0-8" data-running-status="off" style="visibility: hidden;">
      <path
         id="path89-0-4-0-8"
         style="fill:#44d4f1;fill-opacity:0.901961;stroke-width:0.203219;stroke-linejoin:round;stroke-opacity:0.9"
         d="m 388.56393,142.44681 7.77539,2.76172 0.22461,0.0176 -8,3.2207 v -2.06445 h 0.041 v -2 h -0.041 z m 0.18762,1.93555 v 2 h -12.95899 v -2 z">
        <animateTransform attributeName="transform" type="translate" from="0,0" to="80,0" dur="2s" repeatCount="indefinite" begin="indefinite" calcMode="linear" />
        <animate attributeName="opacity" values="0; 1; 1; 0; 0" dur="2s" repeatCount="indefinite" begin="indefinite" calcMode="linear" />
      </path>
    </g>
    <g id="arrow-group-path89-7-8-0-2" data-running-status="off" style="visibility: hidden;">
      <path
         id="path89-7-8-0-2"
         style="fill:#44d4f1;fill-opacity:0.901961;stroke-width:0.203219;stroke-linejoin:round;stroke-opacity:0.9"
         d="m 235.68626,142.5722 7.77539,2.76172 0.22461,0.0176 -8,3.2207 v -2.06445 h 0.041 v -2 h -0.041 z m 0.18762,1.93555 v 2 h -12.95899 v -2 z">
        <animateTransform attributeName="transform" type="translate" from="0,0" to="80,0" dur="2s" repeatCount="indefinite" begin="indefinite" calcMode="linear" />
        <animate attributeName="opacity" values="0; 1; 1; 0; 0" dur="2s" repeatCount="indefinite" begin="indefinite" calcMode="linear" />
      </path>
    </g>
    
    <!--  -->
    <!--  -->
    <text id="fan1-temp-text" x="53.787899" y="249.60664" data-running-status="off" style="fill:#ffffff;font-size:12px;font-family:Arial,sans-serif;font-weight:bold;visibility: hidden;">1:<tspan id="fan1-temp-value" data-value="fan1-temp">26.90C</tspan></text>
    <text id="fan2-temp-text" x="704.63086" y="249.60664" data-running-status="off" style="fill:#ffffff;font-size:12px;font-family:Arial,sans-serif;font-weight:bold;visibility: hidden;">2:<tspan id="fan2-temp-value" data-value="fan2-temp">27.00C</tspan></text>
    
    <!-- rect32-4  -->
    <text id="sys1-low-pressure-text" x="257.11981" y="307.05469" data-running-status="off" style="fill:#ffffff;font-size:11px;font-family:Arial,sans-serif;font-weight:bold;visibility: hidden;">1<tspan id="sys1-low-pressure-value" data-value="sys1-low-pressure">1.00Mpa</tspan></text>
    <text id="sys1-high-pressure-text" x="445.33191" y="307.08984" data-running-status="off" style="fill:#ffffff;font-size:11px;font-family:Arial,sans-serif;font-weight:bold;visibility: hidden;">1<tspan id="sys1-high-pressure-value" data-value="sys1-high-pressure">1.00Mpa</tspan></text>
    
    <!-- rect32  -->
    <text id="sys2-high-pressure-text" x="305.96829" y="100.08984" data-running-status="off" style="fill:#ffffff;font-size:11px;font-family:Arial,sans-serif;font-weight:bold;visibility: hidden;">2<tspan id="sys2-high-pressure-value" data-value="sys2-high-pressure">1.00Mpa</tspan></text>
    <text id="sys2-low-pressure-text" x="506.81677" y="100.05469" data-running-status="off" style="fill:#ffffff;font-size:11px;font-family:Arial,sans-serif;font-weight:bold;visibility: hidden;">2<tspan id="sys2-low-pressure-value" data-value="sys2-low-pressure">1.00Mpa</tspan></text>
    
    <!-- path29  -->
    <text id="fresh-air-temp-text" x="214.78645" y="201.93501" data-running-status="off" style="fill:#ffffff;font-size:11px;font-family:Arial,sans-serif;font-weight:bold;visibility: hidden;"><tspan id="fresh-air-temp-value" data-value="fresh-air-temp">27.50C</tspan></text>
    
    <!-- path29-0  -->
    <text id="return-air-temp-text" x="555.83496" y="203.07866" data-running-status="off" style="fill:#ffffff;font-size:11px;font-family:Arial,sans-serif;font-weight:bold;visibility: hidden;"><tspan id="return-air-temp-value" data-value="return-air-temp">27.50C</tspan></text>
    
    <!-- CO2 -->
    <text id="co2-level-text" x="713.32617" y="63.116833" data-running-status="off" style="fill:#ffffff;font-size:11px;font-family:Arial,sans-serif;font-weight:bold;visibility: hidden;">CO2:<tspan id="co2-level-value" data-value="co2-level">427.00ppm</tspan></text>
    <text id="humidity-level-text" x="713.41406" y="86.904716" data-running-status="off" style="fill:#ffffff;font-size:11px;font-family:Arial,sans-serif;font-weight:bold;visibility: hidden;"><tspan id="humidity-level-value" data-value="humidity-level">49.00%</tspan></text>
  </g>
</svg>
